G04 #@! TF.GenerationSoftware,KiCad,Pcbnew,5.1.4+dfsg1-1*
G04 #@! TF.CreationDate,2019-10-28T17:39:09+02:00*
G04 #@! TF.ProjectId,backplane,6261636b-706c-4616-9e65-2e6b69636164,rev?*
G04 #@! TF.SameCoordinates,Original*
G04 #@! TF.FileFunction,Paste,Bot*
G04 #@! TF.FilePolarity,Positive*
%FSLAX46Y46*%
G04 Gerber Fmt 4.6, Leading zero omitted, Abs format (unit mm)*
G04 Created by KiCad (PCBNEW 5.1.4+dfsg1-1) date 2019-10-28 17:39:09*
%MOMM*%
%LPD*%
G04 APERTURE LIST*
%ADD10C,0.100000*%
%ADD11C,0.950000*%
%ADD12C,0.600000*%
G04 APERTURE END LIST*
D10*
G36*
X157160779Y-77151144D02*
G01*
X157183834Y-77154563D01*
X157206443Y-77160227D01*
X157228387Y-77168079D01*
X157249457Y-77178044D01*
X157269448Y-77190026D01*
X157288168Y-77203910D01*
X157305438Y-77219562D01*
X157321090Y-77236832D01*
X157334974Y-77255552D01*
X157346956Y-77275543D01*
X157356921Y-77296613D01*
X157364773Y-77318557D01*
X157370437Y-77341166D01*
X157373856Y-77364221D01*
X157375000Y-77387500D01*
X157375000Y-77962500D01*
X157373856Y-77985779D01*
X157370437Y-78008834D01*
X157364773Y-78031443D01*
X157356921Y-78053387D01*
X157346956Y-78074457D01*
X157334974Y-78094448D01*
X157321090Y-78113168D01*
X157305438Y-78130438D01*
X157288168Y-78146090D01*
X157269448Y-78159974D01*
X157249457Y-78171956D01*
X157228387Y-78181921D01*
X157206443Y-78189773D01*
X157183834Y-78195437D01*
X157160779Y-78198856D01*
X157137500Y-78200000D01*
X156662500Y-78200000D01*
X156639221Y-78198856D01*
X156616166Y-78195437D01*
X156593557Y-78189773D01*
X156571613Y-78181921D01*
X156550543Y-78171956D01*
X156530552Y-78159974D01*
X156511832Y-78146090D01*
X156494562Y-78130438D01*
X156478910Y-78113168D01*
X156465026Y-78094448D01*
X156453044Y-78074457D01*
X156443079Y-78053387D01*
X156435227Y-78031443D01*
X156429563Y-78008834D01*
X156426144Y-77985779D01*
X156425000Y-77962500D01*
X156425000Y-77387500D01*
X156426144Y-77364221D01*
X156429563Y-77341166D01*
X156435227Y-77318557D01*
X156443079Y-77296613D01*
X156453044Y-77275543D01*
X156465026Y-77255552D01*
X156478910Y-77236832D01*
X156494562Y-77219562D01*
X156511832Y-77203910D01*
X156530552Y-77190026D01*
X156550543Y-77178044D01*
X156571613Y-77168079D01*
X156593557Y-77160227D01*
X156616166Y-77154563D01*
X156639221Y-77151144D01*
X156662500Y-77150000D01*
X157137500Y-77150000D01*
X157160779Y-77151144D01*
X157160779Y-77151144D01*
G37*
D11*
X156900000Y-77675000D03*
D10*
G36*
X157160779Y-75401144D02*
G01*
X157183834Y-75404563D01*
X157206443Y-75410227D01*
X157228387Y-75418079D01*
X157249457Y-75428044D01*
X157269448Y-75440026D01*
X157288168Y-75453910D01*
X157305438Y-75469562D01*
X157321090Y-75486832D01*
X157334974Y-75505552D01*
X157346956Y-75525543D01*
X157356921Y-75546613D01*
X157364773Y-75568557D01*
X157370437Y-75591166D01*
X157373856Y-75614221D01*
X157375000Y-75637500D01*
X157375000Y-76212500D01*
X157373856Y-76235779D01*
X157370437Y-76258834D01*
X157364773Y-76281443D01*
X157356921Y-76303387D01*
X157346956Y-76324457D01*
X157334974Y-76344448D01*
X157321090Y-76363168D01*
X157305438Y-76380438D01*
X157288168Y-76396090D01*
X157269448Y-76409974D01*
X157249457Y-76421956D01*
X157228387Y-76431921D01*
X157206443Y-76439773D01*
X157183834Y-76445437D01*
X157160779Y-76448856D01*
X157137500Y-76450000D01*
X156662500Y-76450000D01*
X156639221Y-76448856D01*
X156616166Y-76445437D01*
X156593557Y-76439773D01*
X156571613Y-76431921D01*
X156550543Y-76421956D01*
X156530552Y-76409974D01*
X156511832Y-76396090D01*
X156494562Y-76380438D01*
X156478910Y-76363168D01*
X156465026Y-76344448D01*
X156453044Y-76324457D01*
X156443079Y-76303387D01*
X156435227Y-76281443D01*
X156429563Y-76258834D01*
X156426144Y-76235779D01*
X156425000Y-76212500D01*
X156425000Y-75637500D01*
X156426144Y-75614221D01*
X156429563Y-75591166D01*
X156435227Y-75568557D01*
X156443079Y-75546613D01*
X156453044Y-75525543D01*
X156465026Y-75505552D01*
X156478910Y-75486832D01*
X156494562Y-75469562D01*
X156511832Y-75453910D01*
X156530552Y-75440026D01*
X156550543Y-75428044D01*
X156571613Y-75418079D01*
X156593557Y-75410227D01*
X156616166Y-75404563D01*
X156639221Y-75401144D01*
X156662500Y-75400000D01*
X157137500Y-75400000D01*
X157160779Y-75401144D01*
X157160779Y-75401144D01*
G37*
D11*
X156900000Y-75925000D03*
D10*
G36*
X159635779Y-70626144D02*
G01*
X159658834Y-70629563D01*
X159681443Y-70635227D01*
X159703387Y-70643079D01*
X159724457Y-70653044D01*
X159744448Y-70665026D01*
X159763168Y-70678910D01*
X159780438Y-70694562D01*
X159796090Y-70711832D01*
X159809974Y-70730552D01*
X159821956Y-70750543D01*
X159831921Y-70771613D01*
X159839773Y-70793557D01*
X159845437Y-70816166D01*
X159848856Y-70839221D01*
X159850000Y-70862500D01*
X159850000Y-71337500D01*
X159848856Y-71360779D01*
X159845437Y-71383834D01*
X159839773Y-71406443D01*
X159831921Y-71428387D01*
X159821956Y-71449457D01*
X159809974Y-71469448D01*
X159796090Y-71488168D01*
X159780438Y-71505438D01*
X159763168Y-71521090D01*
X159744448Y-71534974D01*
X159724457Y-71546956D01*
X159703387Y-71556921D01*
X159681443Y-71564773D01*
X159658834Y-71570437D01*
X159635779Y-71573856D01*
X159612500Y-71575000D01*
X159037500Y-71575000D01*
X159014221Y-71573856D01*
X158991166Y-71570437D01*
X158968557Y-71564773D01*
X158946613Y-71556921D01*
X158925543Y-71546956D01*
X158905552Y-71534974D01*
X158886832Y-71521090D01*
X158869562Y-71505438D01*
X158853910Y-71488168D01*
X158840026Y-71469448D01*
X158828044Y-71449457D01*
X158818079Y-71428387D01*
X158810227Y-71406443D01*
X158804563Y-71383834D01*
X158801144Y-71360779D01*
X158800000Y-71337500D01*
X158800000Y-70862500D01*
X158801144Y-70839221D01*
X158804563Y-70816166D01*
X158810227Y-70793557D01*
X158818079Y-70771613D01*
X158828044Y-70750543D01*
X158840026Y-70730552D01*
X158853910Y-70711832D01*
X158869562Y-70694562D01*
X158886832Y-70678910D01*
X158905552Y-70665026D01*
X158925543Y-70653044D01*
X158946613Y-70643079D01*
X158968557Y-70635227D01*
X158991166Y-70629563D01*
X159014221Y-70626144D01*
X159037500Y-70625000D01*
X159612500Y-70625000D01*
X159635779Y-70626144D01*
X159635779Y-70626144D01*
G37*
D11*
X159325000Y-71100000D03*
D10*
G36*
X161385779Y-70626144D02*
G01*
X161408834Y-70629563D01*
X161431443Y-70635227D01*
X161453387Y-70643079D01*
X161474457Y-70653044D01*
X161494448Y-70665026D01*
X161513168Y-70678910D01*
X161530438Y-70694562D01*
X161546090Y-70711832D01*
X161559974Y-70730552D01*
X161571956Y-70750543D01*
X161581921Y-70771613D01*
X161589773Y-70793557D01*
X161595437Y-70816166D01*
X161598856Y-70839221D01*
X161600000Y-70862500D01*
X161600000Y-71337500D01*
X161598856Y-71360779D01*
X161595437Y-71383834D01*
X161589773Y-71406443D01*
X161581921Y-71428387D01*
X161571956Y-71449457D01*
X161559974Y-71469448D01*
X161546090Y-71488168D01*
X161530438Y-71505438D01*
X161513168Y-71521090D01*
X161494448Y-71534974D01*
X161474457Y-71546956D01*
X161453387Y-71556921D01*
X161431443Y-71564773D01*
X161408834Y-71570437D01*
X161385779Y-71573856D01*
X161362500Y-71575000D01*
X160787500Y-71575000D01*
X160764221Y-71573856D01*
X160741166Y-71570437D01*
X160718557Y-71564773D01*
X160696613Y-71556921D01*
X160675543Y-71546956D01*
X160655552Y-71534974D01*
X160636832Y-71521090D01*
X160619562Y-71505438D01*
X160603910Y-71488168D01*
X160590026Y-71469448D01*
X160578044Y-71449457D01*
X160568079Y-71428387D01*
X160560227Y-71406443D01*
X160554563Y-71383834D01*
X160551144Y-71360779D01*
X160550000Y-71337500D01*
X160550000Y-70862500D01*
X160551144Y-70839221D01*
X160554563Y-70816166D01*
X160560227Y-70793557D01*
X160568079Y-70771613D01*
X160578044Y-70750543D01*
X160590026Y-70730552D01*
X160603910Y-70711832D01*
X160619562Y-70694562D01*
X160636832Y-70678910D01*
X160655552Y-70665026D01*
X160675543Y-70653044D01*
X160696613Y-70643079D01*
X160718557Y-70635227D01*
X160741166Y-70629563D01*
X160764221Y-70626144D01*
X160787500Y-70625000D01*
X161362500Y-70625000D01*
X161385779Y-70626144D01*
X161385779Y-70626144D01*
G37*
D11*
X161075000Y-71100000D03*
D10*
G36*
X118140779Y-87826144D02*
G01*
X118163834Y-87829563D01*
X118186443Y-87835227D01*
X118208387Y-87843079D01*
X118229457Y-87853044D01*
X118249448Y-87865026D01*
X118268168Y-87878910D01*
X118285438Y-87894562D01*
X118301090Y-87911832D01*
X118314974Y-87930552D01*
X118326956Y-87950543D01*
X118336921Y-87971613D01*
X118344773Y-87993557D01*
X118350437Y-88016166D01*
X118353856Y-88039221D01*
X118355000Y-88062500D01*
X118355000Y-88637500D01*
X118353856Y-88660779D01*
X118350437Y-88683834D01*
X118344773Y-88706443D01*
X118336921Y-88728387D01*
X118326956Y-88749457D01*
X118314974Y-88769448D01*
X118301090Y-88788168D01*
X118285438Y-88805438D01*
X118268168Y-88821090D01*
X118249448Y-88834974D01*
X118229457Y-88846956D01*
X118208387Y-88856921D01*
X118186443Y-88864773D01*
X118163834Y-88870437D01*
X118140779Y-88873856D01*
X118117500Y-88875000D01*
X117642500Y-88875000D01*
X117619221Y-88873856D01*
X117596166Y-88870437D01*
X117573557Y-88864773D01*
X117551613Y-88856921D01*
X117530543Y-88846956D01*
X117510552Y-88834974D01*
X117491832Y-88821090D01*
X117474562Y-88805438D01*
X117458910Y-88788168D01*
X117445026Y-88769448D01*
X117433044Y-88749457D01*
X117423079Y-88728387D01*
X117415227Y-88706443D01*
X117409563Y-88683834D01*
X117406144Y-88660779D01*
X117405000Y-88637500D01*
X117405000Y-88062500D01*
X117406144Y-88039221D01*
X117409563Y-88016166D01*
X117415227Y-87993557D01*
X117423079Y-87971613D01*
X117433044Y-87950543D01*
X117445026Y-87930552D01*
X117458910Y-87911832D01*
X117474562Y-87894562D01*
X117491832Y-87878910D01*
X117510552Y-87865026D01*
X117530543Y-87853044D01*
X117551613Y-87843079D01*
X117573557Y-87835227D01*
X117596166Y-87829563D01*
X117619221Y-87826144D01*
X117642500Y-87825000D01*
X118117500Y-87825000D01*
X118140779Y-87826144D01*
X118140779Y-87826144D01*
G37*
D11*
X117880000Y-88350000D03*
D10*
G36*
X118140779Y-89576144D02*
G01*
X118163834Y-89579563D01*
X118186443Y-89585227D01*
X118208387Y-89593079D01*
X118229457Y-89603044D01*
X118249448Y-89615026D01*
X118268168Y-89628910D01*
X118285438Y-89644562D01*
X118301090Y-89661832D01*
X118314974Y-89680552D01*
X118326956Y-89700543D01*
X118336921Y-89721613D01*
X118344773Y-89743557D01*
X118350437Y-89766166D01*
X118353856Y-89789221D01*
X118355000Y-89812500D01*
X118355000Y-90387500D01*
X118353856Y-90410779D01*
X118350437Y-90433834D01*
X118344773Y-90456443D01*
X118336921Y-90478387D01*
X118326956Y-90499457D01*
X118314974Y-90519448D01*
X118301090Y-90538168D01*
X118285438Y-90555438D01*
X118268168Y-90571090D01*
X118249448Y-90584974D01*
X118229457Y-90596956D01*
X118208387Y-90606921D01*
X118186443Y-90614773D01*
X118163834Y-90620437D01*
X118140779Y-90623856D01*
X118117500Y-90625000D01*
X117642500Y-90625000D01*
X117619221Y-90623856D01*
X117596166Y-90620437D01*
X117573557Y-90614773D01*
X117551613Y-90606921D01*
X117530543Y-90596956D01*
X117510552Y-90584974D01*
X117491832Y-90571090D01*
X117474562Y-90555438D01*
X117458910Y-90538168D01*
X117445026Y-90519448D01*
X117433044Y-90499457D01*
X117423079Y-90478387D01*
X117415227Y-90456443D01*
X117409563Y-90433834D01*
X117406144Y-90410779D01*
X117405000Y-90387500D01*
X117405000Y-89812500D01*
X117406144Y-89789221D01*
X117409563Y-89766166D01*
X117415227Y-89743557D01*
X117423079Y-89721613D01*
X117433044Y-89700543D01*
X117445026Y-89680552D01*
X117458910Y-89661832D01*
X117474562Y-89644562D01*
X117491832Y-89628910D01*
X117510552Y-89615026D01*
X117530543Y-89603044D01*
X117551613Y-89593079D01*
X117573557Y-89585227D01*
X117596166Y-89579563D01*
X117619221Y-89576144D01*
X117642500Y-89575000D01*
X118117500Y-89575000D01*
X118140779Y-89576144D01*
X118140779Y-89576144D01*
G37*
D11*
X117880000Y-90100000D03*
D10*
G36*
X116700779Y-90866144D02*
G01*
X116723834Y-90869563D01*
X116746443Y-90875227D01*
X116768387Y-90883079D01*
X116789457Y-90893044D01*
X116809448Y-90905026D01*
X116828168Y-90918910D01*
X116845438Y-90934562D01*
X116861090Y-90951832D01*
X116874974Y-90970552D01*
X116886956Y-90990543D01*
X116896921Y-91011613D01*
X116904773Y-91033557D01*
X116910437Y-91056166D01*
X116913856Y-91079221D01*
X116915000Y-91102500D01*
X116915000Y-91677500D01*
X116913856Y-91700779D01*
X116910437Y-91723834D01*
X116904773Y-91746443D01*
X116896921Y-91768387D01*
X116886956Y-91789457D01*
X116874974Y-91809448D01*
X116861090Y-91828168D01*
X116845438Y-91845438D01*
X116828168Y-91861090D01*
X116809448Y-91874974D01*
X116789457Y-91886956D01*
X116768387Y-91896921D01*
X116746443Y-91904773D01*
X116723834Y-91910437D01*
X116700779Y-91913856D01*
X116677500Y-91915000D01*
X116202500Y-91915000D01*
X116179221Y-91913856D01*
X116156166Y-91910437D01*
X116133557Y-91904773D01*
X116111613Y-91896921D01*
X116090543Y-91886956D01*
X116070552Y-91874974D01*
X116051832Y-91861090D01*
X116034562Y-91845438D01*
X116018910Y-91828168D01*
X116005026Y-91809448D01*
X115993044Y-91789457D01*
X115983079Y-91768387D01*
X115975227Y-91746443D01*
X115969563Y-91723834D01*
X115966144Y-91700779D01*
X115965000Y-91677500D01*
X115965000Y-91102500D01*
X115966144Y-91079221D01*
X115969563Y-91056166D01*
X115975227Y-91033557D01*
X115983079Y-91011613D01*
X115993044Y-90990543D01*
X116005026Y-90970552D01*
X116018910Y-90951832D01*
X116034562Y-90934562D01*
X116051832Y-90918910D01*
X116070552Y-90905026D01*
X116090543Y-90893044D01*
X116111613Y-90883079D01*
X116133557Y-90875227D01*
X116156166Y-90869563D01*
X116179221Y-90866144D01*
X116202500Y-90865000D01*
X116677500Y-90865000D01*
X116700779Y-90866144D01*
X116700779Y-90866144D01*
G37*
D11*
X116440000Y-91390000D03*
D10*
G36*
X116700779Y-89116144D02*
G01*
X116723834Y-89119563D01*
X116746443Y-89125227D01*
X116768387Y-89133079D01*
X116789457Y-89143044D01*
X116809448Y-89155026D01*
X116828168Y-89168910D01*
X116845438Y-89184562D01*
X116861090Y-89201832D01*
X116874974Y-89220552D01*
X116886956Y-89240543D01*
X116896921Y-89261613D01*
X116904773Y-89283557D01*
X116910437Y-89306166D01*
X116913856Y-89329221D01*
X116915000Y-89352500D01*
X116915000Y-89927500D01*
X116913856Y-89950779D01*
X116910437Y-89973834D01*
X116904773Y-89996443D01*
X116896921Y-90018387D01*
X116886956Y-90039457D01*
X116874974Y-90059448D01*
X116861090Y-90078168D01*
X116845438Y-90095438D01*
X116828168Y-90111090D01*
X116809448Y-90124974D01*
X116789457Y-90136956D01*
X116768387Y-90146921D01*
X116746443Y-90154773D01*
X116723834Y-90160437D01*
X116700779Y-90163856D01*
X116677500Y-90165000D01*
X116202500Y-90165000D01*
X116179221Y-90163856D01*
X116156166Y-90160437D01*
X116133557Y-90154773D01*
X116111613Y-90146921D01*
X116090543Y-90136956D01*
X116070552Y-90124974D01*
X116051832Y-90111090D01*
X116034562Y-90095438D01*
X116018910Y-90078168D01*
X116005026Y-90059448D01*
X115993044Y-90039457D01*
X115983079Y-90018387D01*
X115975227Y-89996443D01*
X115969563Y-89973834D01*
X115966144Y-89950779D01*
X115965000Y-89927500D01*
X115965000Y-89352500D01*
X115966144Y-89329221D01*
X115969563Y-89306166D01*
X115975227Y-89283557D01*
X115983079Y-89261613D01*
X115993044Y-89240543D01*
X116005026Y-89220552D01*
X116018910Y-89201832D01*
X116034562Y-89184562D01*
X116051832Y-89168910D01*
X116070552Y-89155026D01*
X116090543Y-89143044D01*
X116111613Y-89133079D01*
X116133557Y-89125227D01*
X116156166Y-89119563D01*
X116179221Y-89116144D01*
X116202500Y-89115000D01*
X116677500Y-89115000D01*
X116700779Y-89116144D01*
X116700779Y-89116144D01*
G37*
D11*
X116440000Y-89640000D03*
D10*
G36*
X103685779Y-113626144D02*
G01*
X103708834Y-113629563D01*
X103731443Y-113635227D01*
X103753387Y-113643079D01*
X103774457Y-113653044D01*
X103794448Y-113665026D01*
X103813168Y-113678910D01*
X103830438Y-113694562D01*
X103846090Y-113711832D01*
X103859974Y-113730552D01*
X103871956Y-113750543D01*
X103881921Y-113771613D01*
X103889773Y-113793557D01*
X103895437Y-113816166D01*
X103898856Y-113839221D01*
X103900000Y-113862500D01*
X103900000Y-114337500D01*
X103898856Y-114360779D01*
X103895437Y-114383834D01*
X103889773Y-114406443D01*
X103881921Y-114428387D01*
X103871956Y-114449457D01*
X103859974Y-114469448D01*
X103846090Y-114488168D01*
X103830438Y-114505438D01*
X103813168Y-114521090D01*
X103794448Y-114534974D01*
X103774457Y-114546956D01*
X103753387Y-114556921D01*
X103731443Y-114564773D01*
X103708834Y-114570437D01*
X103685779Y-114573856D01*
X103662500Y-114575000D01*
X103087500Y-114575000D01*
X103064221Y-114573856D01*
X103041166Y-114570437D01*
X103018557Y-114564773D01*
X102996613Y-114556921D01*
X102975543Y-114546956D01*
X102955552Y-114534974D01*
X102936832Y-114521090D01*
X102919562Y-114505438D01*
X102903910Y-114488168D01*
X102890026Y-114469448D01*
X102878044Y-114449457D01*
X102868079Y-114428387D01*
X102860227Y-114406443D01*
X102854563Y-114383834D01*
X102851144Y-114360779D01*
X102850000Y-114337500D01*
X102850000Y-113862500D01*
X102851144Y-113839221D01*
X102854563Y-113816166D01*
X102860227Y-113793557D01*
X102868079Y-113771613D01*
X102878044Y-113750543D01*
X102890026Y-113730552D01*
X102903910Y-113711832D01*
X102919562Y-113694562D01*
X102936832Y-113678910D01*
X102955552Y-113665026D01*
X102975543Y-113653044D01*
X102996613Y-113643079D01*
X103018557Y-113635227D01*
X103041166Y-113629563D01*
X103064221Y-113626144D01*
X103087500Y-113625000D01*
X103662500Y-113625000D01*
X103685779Y-113626144D01*
X103685779Y-113626144D01*
G37*
D11*
X103375000Y-114100000D03*
D10*
G36*
X101935779Y-113626144D02*
G01*
X101958834Y-113629563D01*
X101981443Y-113635227D01*
X102003387Y-113643079D01*
X102024457Y-113653044D01*
X102044448Y-113665026D01*
X102063168Y-113678910D01*
X102080438Y-113694562D01*
X102096090Y-113711832D01*
X102109974Y-113730552D01*
X102121956Y-113750543D01*
X102131921Y-113771613D01*
X102139773Y-113793557D01*
X102145437Y-113816166D01*
X102148856Y-113839221D01*
X102150000Y-113862500D01*
X102150000Y-114337500D01*
X102148856Y-114360779D01*
X102145437Y-114383834D01*
X102139773Y-114406443D01*
X102131921Y-114428387D01*
X102121956Y-114449457D01*
X102109974Y-114469448D01*
X102096090Y-114488168D01*
X102080438Y-114505438D01*
X102063168Y-114521090D01*
X102044448Y-114534974D01*
X102024457Y-114546956D01*
X102003387Y-114556921D01*
X101981443Y-114564773D01*
X101958834Y-114570437D01*
X101935779Y-114573856D01*
X101912500Y-114575000D01*
X101337500Y-114575000D01*
X101314221Y-114573856D01*
X101291166Y-114570437D01*
X101268557Y-114564773D01*
X101246613Y-114556921D01*
X101225543Y-114546956D01*
X101205552Y-114534974D01*
X101186832Y-114521090D01*
X101169562Y-114505438D01*
X101153910Y-114488168D01*
X101140026Y-114469448D01*
X101128044Y-114449457D01*
X101118079Y-114428387D01*
X101110227Y-114406443D01*
X101104563Y-114383834D01*
X101101144Y-114360779D01*
X101100000Y-114337500D01*
X101100000Y-113862500D01*
X101101144Y-113839221D01*
X101104563Y-113816166D01*
X101110227Y-113793557D01*
X101118079Y-113771613D01*
X101128044Y-113750543D01*
X101140026Y-113730552D01*
X101153910Y-113711832D01*
X101169562Y-113694562D01*
X101186832Y-113678910D01*
X101205552Y-113665026D01*
X101225543Y-113653044D01*
X101246613Y-113643079D01*
X101268557Y-113635227D01*
X101291166Y-113629563D01*
X101314221Y-113626144D01*
X101337500Y-113625000D01*
X101912500Y-113625000D01*
X101935779Y-113626144D01*
X101935779Y-113626144D01*
G37*
D11*
X101625000Y-114100000D03*
D10*
G36*
X99110779Y-113626144D02*
G01*
X99133834Y-113629563D01*
X99156443Y-113635227D01*
X99178387Y-113643079D01*
X99199457Y-113653044D01*
X99219448Y-113665026D01*
X99238168Y-113678910D01*
X99255438Y-113694562D01*
X99271090Y-113711832D01*
X99284974Y-113730552D01*
X99296956Y-113750543D01*
X99306921Y-113771613D01*
X99314773Y-113793557D01*
X99320437Y-113816166D01*
X99323856Y-113839221D01*
X99325000Y-113862500D01*
X99325000Y-114337500D01*
X99323856Y-114360779D01*
X99320437Y-114383834D01*
X99314773Y-114406443D01*
X99306921Y-114428387D01*
X99296956Y-114449457D01*
X99284974Y-114469448D01*
X99271090Y-114488168D01*
X99255438Y-114505438D01*
X99238168Y-114521090D01*
X99219448Y-114534974D01*
X99199457Y-114546956D01*
X99178387Y-114556921D01*
X99156443Y-114564773D01*
X99133834Y-114570437D01*
X99110779Y-114573856D01*
X99087500Y-114575000D01*
X98512500Y-114575000D01*
X98489221Y-114573856D01*
X98466166Y-114570437D01*
X98443557Y-114564773D01*
X98421613Y-114556921D01*
X98400543Y-114546956D01*
X98380552Y-114534974D01*
X98361832Y-114521090D01*
X98344562Y-114505438D01*
X98328910Y-114488168D01*
X98315026Y-114469448D01*
X98303044Y-114449457D01*
X98293079Y-114428387D01*
X98285227Y-114406443D01*
X98279563Y-114383834D01*
X98276144Y-114360779D01*
X98275000Y-114337500D01*
X98275000Y-113862500D01*
X98276144Y-113839221D01*
X98279563Y-113816166D01*
X98285227Y-113793557D01*
X98293079Y-113771613D01*
X98303044Y-113750543D01*
X98315026Y-113730552D01*
X98328910Y-113711832D01*
X98344562Y-113694562D01*
X98361832Y-113678910D01*
X98380552Y-113665026D01*
X98400543Y-113653044D01*
X98421613Y-113643079D01*
X98443557Y-113635227D01*
X98466166Y-113629563D01*
X98489221Y-113626144D01*
X98512500Y-113625000D01*
X99087500Y-113625000D01*
X99110779Y-113626144D01*
X99110779Y-113626144D01*
G37*
D11*
X98800000Y-114100000D03*
D10*
G36*
X97360779Y-113626144D02*
G01*
X97383834Y-113629563D01*
X97406443Y-113635227D01*
X97428387Y-113643079D01*
X97449457Y-113653044D01*
X97469448Y-113665026D01*
X97488168Y-113678910D01*
X97505438Y-113694562D01*
X97521090Y-113711832D01*
X97534974Y-113730552D01*
X97546956Y-113750543D01*
X97556921Y-113771613D01*
X97564773Y-113793557D01*
X97570437Y-113816166D01*
X97573856Y-113839221D01*
X97575000Y-113862500D01*
X97575000Y-114337500D01*
X97573856Y-114360779D01*
X97570437Y-114383834D01*
X97564773Y-114406443D01*
X97556921Y-114428387D01*
X97546956Y-114449457D01*
X97534974Y-114469448D01*
X97521090Y-114488168D01*
X97505438Y-114505438D01*
X97488168Y-114521090D01*
X97469448Y-114534974D01*
X97449457Y-114546956D01*
X97428387Y-114556921D01*
X97406443Y-114564773D01*
X97383834Y-114570437D01*
X97360779Y-114573856D01*
X97337500Y-114575000D01*
X96762500Y-114575000D01*
X96739221Y-114573856D01*
X96716166Y-114570437D01*
X96693557Y-114564773D01*
X96671613Y-114556921D01*
X96650543Y-114546956D01*
X96630552Y-114534974D01*
X96611832Y-114521090D01*
X96594562Y-114505438D01*
X96578910Y-114488168D01*
X96565026Y-114469448D01*
X96553044Y-114449457D01*
X96543079Y-114428387D01*
X96535227Y-114406443D01*
X96529563Y-114383834D01*
X96526144Y-114360779D01*
X96525000Y-114337500D01*
X96525000Y-113862500D01*
X96526144Y-113839221D01*
X96529563Y-113816166D01*
X96535227Y-113793557D01*
X96543079Y-113771613D01*
X96553044Y-113750543D01*
X96565026Y-113730552D01*
X96578910Y-113711832D01*
X96594562Y-113694562D01*
X96611832Y-113678910D01*
X96630552Y-113665026D01*
X96650543Y-113653044D01*
X96671613Y-113643079D01*
X96693557Y-113635227D01*
X96716166Y-113629563D01*
X96739221Y-113626144D01*
X96762500Y-113625000D01*
X97337500Y-113625000D01*
X97360779Y-113626144D01*
X97360779Y-113626144D01*
G37*
D11*
X97050000Y-114100000D03*
D10*
G36*
X94885779Y-90876144D02*
G01*
X94908834Y-90879563D01*
X94931443Y-90885227D01*
X94953387Y-90893079D01*
X94974457Y-90903044D01*
X94994448Y-90915026D01*
X95013168Y-90928910D01*
X95030438Y-90944562D01*
X95046090Y-90961832D01*
X95059974Y-90980552D01*
X95071956Y-91000543D01*
X95081921Y-91021613D01*
X95089773Y-91043557D01*
X95095437Y-91066166D01*
X95098856Y-91089221D01*
X95100000Y-91112500D01*
X95100000Y-91687500D01*
X95098856Y-91710779D01*
X95095437Y-91733834D01*
X95089773Y-91756443D01*
X95081921Y-91778387D01*
X95071956Y-91799457D01*
X95059974Y-91819448D01*
X95046090Y-91838168D01*
X95030438Y-91855438D01*
X95013168Y-91871090D01*
X94994448Y-91884974D01*
X94974457Y-91896956D01*
X94953387Y-91906921D01*
X94931443Y-91914773D01*
X94908834Y-91920437D01*
X94885779Y-91923856D01*
X94862500Y-91925000D01*
X94387500Y-91925000D01*
X94364221Y-91923856D01*
X94341166Y-91920437D01*
X94318557Y-91914773D01*
X94296613Y-91906921D01*
X94275543Y-91896956D01*
X94255552Y-91884974D01*
X94236832Y-91871090D01*
X94219562Y-91855438D01*
X94203910Y-91838168D01*
X94190026Y-91819448D01*
X94178044Y-91799457D01*
X94168079Y-91778387D01*
X94160227Y-91756443D01*
X94154563Y-91733834D01*
X94151144Y-91710779D01*
X94150000Y-91687500D01*
X94150000Y-91112500D01*
X94151144Y-91089221D01*
X94154563Y-91066166D01*
X94160227Y-91043557D01*
X94168079Y-91021613D01*
X94178044Y-91000543D01*
X94190026Y-90980552D01*
X94203910Y-90961832D01*
X94219562Y-90944562D01*
X94236832Y-90928910D01*
X94255552Y-90915026D01*
X94275543Y-90903044D01*
X94296613Y-90893079D01*
X94318557Y-90885227D01*
X94341166Y-90879563D01*
X94364221Y-90876144D01*
X94387500Y-90875000D01*
X94862500Y-90875000D01*
X94885779Y-90876144D01*
X94885779Y-90876144D01*
G37*
D11*
X94625000Y-91400000D03*
D10*
G36*
X94885779Y-89126144D02*
G01*
X94908834Y-89129563D01*
X94931443Y-89135227D01*
X94953387Y-89143079D01*
X94974457Y-89153044D01*
X94994448Y-89165026D01*
X95013168Y-89178910D01*
X95030438Y-89194562D01*
X95046090Y-89211832D01*
X95059974Y-89230552D01*
X95071956Y-89250543D01*
X95081921Y-89271613D01*
X95089773Y-89293557D01*
X95095437Y-89316166D01*
X95098856Y-89339221D01*
X95100000Y-89362500D01*
X95100000Y-89937500D01*
X95098856Y-89960779D01*
X95095437Y-89983834D01*
X95089773Y-90006443D01*
X95081921Y-90028387D01*
X95071956Y-90049457D01*
X95059974Y-90069448D01*
X95046090Y-90088168D01*
X95030438Y-90105438D01*
X95013168Y-90121090D01*
X94994448Y-90134974D01*
X94974457Y-90146956D01*
X94953387Y-90156921D01*
X94931443Y-90164773D01*
X94908834Y-90170437D01*
X94885779Y-90173856D01*
X94862500Y-90175000D01*
X94387500Y-90175000D01*
X94364221Y-90173856D01*
X94341166Y-90170437D01*
X94318557Y-90164773D01*
X94296613Y-90156921D01*
X94275543Y-90146956D01*
X94255552Y-90134974D01*
X94236832Y-90121090D01*
X94219562Y-90105438D01*
X94203910Y-90088168D01*
X94190026Y-90069448D01*
X94178044Y-90049457D01*
X94168079Y-90028387D01*
X94160227Y-90006443D01*
X94154563Y-89983834D01*
X94151144Y-89960779D01*
X94150000Y-89937500D01*
X94150000Y-89362500D01*
X94151144Y-89339221D01*
X94154563Y-89316166D01*
X94160227Y-89293557D01*
X94168079Y-89271613D01*
X94178044Y-89250543D01*
X94190026Y-89230552D01*
X94203910Y-89211832D01*
X94219562Y-89194562D01*
X94236832Y-89178910D01*
X94255552Y-89165026D01*
X94275543Y-89153044D01*
X94296613Y-89143079D01*
X94318557Y-89135227D01*
X94341166Y-89129563D01*
X94364221Y-89126144D01*
X94387500Y-89125000D01*
X94862500Y-89125000D01*
X94885779Y-89126144D01*
X94885779Y-89126144D01*
G37*
D11*
X94625000Y-89650000D03*
D10*
G36*
X93335779Y-88951144D02*
G01*
X93358834Y-88954563D01*
X93381443Y-88960227D01*
X93403387Y-88968079D01*
X93424457Y-88978044D01*
X93444448Y-88990026D01*
X93463168Y-89003910D01*
X93480438Y-89019562D01*
X93496090Y-89036832D01*
X93509974Y-89055552D01*
X93521956Y-89075543D01*
X93531921Y-89096613D01*
X93539773Y-89118557D01*
X93545437Y-89141166D01*
X93548856Y-89164221D01*
X93550000Y-89187500D01*
X93550000Y-89762500D01*
X93548856Y-89785779D01*
X93545437Y-89808834D01*
X93539773Y-89831443D01*
X93531921Y-89853387D01*
X93521956Y-89874457D01*
X93509974Y-89894448D01*
X93496090Y-89913168D01*
X93480438Y-89930438D01*
X93463168Y-89946090D01*
X93444448Y-89959974D01*
X93424457Y-89971956D01*
X93403387Y-89981921D01*
X93381443Y-89989773D01*
X93358834Y-89995437D01*
X93335779Y-89998856D01*
X93312500Y-90000000D01*
X92837500Y-90000000D01*
X92814221Y-89998856D01*
X92791166Y-89995437D01*
X92768557Y-89989773D01*
X92746613Y-89981921D01*
X92725543Y-89971956D01*
X92705552Y-89959974D01*
X92686832Y-89946090D01*
X92669562Y-89930438D01*
X92653910Y-89913168D01*
X92640026Y-89894448D01*
X92628044Y-89874457D01*
X92618079Y-89853387D01*
X92610227Y-89831443D01*
X92604563Y-89808834D01*
X92601144Y-89785779D01*
X92600000Y-89762500D01*
X92600000Y-89187500D01*
X92601144Y-89164221D01*
X92604563Y-89141166D01*
X92610227Y-89118557D01*
X92618079Y-89096613D01*
X92628044Y-89075543D01*
X92640026Y-89055552D01*
X92653910Y-89036832D01*
X92669562Y-89019562D01*
X92686832Y-89003910D01*
X92705552Y-88990026D01*
X92725543Y-88978044D01*
X92746613Y-88968079D01*
X92768557Y-88960227D01*
X92791166Y-88954563D01*
X92814221Y-88951144D01*
X92837500Y-88950000D01*
X93312500Y-88950000D01*
X93335779Y-88951144D01*
X93335779Y-88951144D01*
G37*
D11*
X93075000Y-89475000D03*
D10*
G36*
X93335779Y-87201144D02*
G01*
X93358834Y-87204563D01*
X93381443Y-87210227D01*
X93403387Y-87218079D01*
X93424457Y-87228044D01*
X93444448Y-87240026D01*
X93463168Y-87253910D01*
X93480438Y-87269562D01*
X93496090Y-87286832D01*
X93509974Y-87305552D01*
X93521956Y-87325543D01*
X93531921Y-87346613D01*
X93539773Y-87368557D01*
X93545437Y-87391166D01*
X93548856Y-87414221D01*
X93550000Y-87437500D01*
X93550000Y-88012500D01*
X93548856Y-88035779D01*
X93545437Y-88058834D01*
X93539773Y-88081443D01*
X93531921Y-88103387D01*
X93521956Y-88124457D01*
X93509974Y-88144448D01*
X93496090Y-88163168D01*
X93480438Y-88180438D01*
X93463168Y-88196090D01*
X93444448Y-88209974D01*
X93424457Y-88221956D01*
X93403387Y-88231921D01*
X93381443Y-88239773D01*
X93358834Y-88245437D01*
X93335779Y-88248856D01*
X93312500Y-88250000D01*
X92837500Y-88250000D01*
X92814221Y-88248856D01*
X92791166Y-88245437D01*
X92768557Y-88239773D01*
X92746613Y-88231921D01*
X92725543Y-88221956D01*
X92705552Y-88209974D01*
X92686832Y-88196090D01*
X92669562Y-88180438D01*
X92653910Y-88163168D01*
X92640026Y-88144448D01*
X92628044Y-88124457D01*
X92618079Y-88103387D01*
X92610227Y-88081443D01*
X92604563Y-88058834D01*
X92601144Y-88035779D01*
X92600000Y-88012500D01*
X92600000Y-87437500D01*
X92601144Y-87414221D01*
X92604563Y-87391166D01*
X92610227Y-87368557D01*
X92618079Y-87346613D01*
X92628044Y-87325543D01*
X92640026Y-87305552D01*
X92653910Y-87286832D01*
X92669562Y-87269562D01*
X92686832Y-87253910D01*
X92705552Y-87240026D01*
X92725543Y-87228044D01*
X92746613Y-87218079D01*
X92768557Y-87210227D01*
X92791166Y-87204563D01*
X92814221Y-87201144D01*
X92837500Y-87200000D01*
X93312500Y-87200000D01*
X93335779Y-87201144D01*
X93335779Y-87201144D01*
G37*
D11*
X93075000Y-87725000D03*
D10*
G36*
X121735779Y-86476144D02*
G01*
X121758834Y-86479563D01*
X121781443Y-86485227D01*
X121803387Y-86493079D01*
X121824457Y-86503044D01*
X121844448Y-86515026D01*
X121863168Y-86528910D01*
X121880438Y-86544562D01*
X121896090Y-86561832D01*
X121909974Y-86580552D01*
X121921956Y-86600543D01*
X121931921Y-86621613D01*
X121939773Y-86643557D01*
X121945437Y-86666166D01*
X121948856Y-86689221D01*
X121950000Y-86712500D01*
X121950000Y-87187500D01*
X121948856Y-87210779D01*
X121945437Y-87233834D01*
X121939773Y-87256443D01*
X121931921Y-87278387D01*
X121921956Y-87299457D01*
X121909974Y-87319448D01*
X121896090Y-87338168D01*
X121880438Y-87355438D01*
X121863168Y-87371090D01*
X121844448Y-87384974D01*
X121824457Y-87396956D01*
X121803387Y-87406921D01*
X121781443Y-87414773D01*
X121758834Y-87420437D01*
X121735779Y-87423856D01*
X121712500Y-87425000D01*
X121137500Y-87425000D01*
X121114221Y-87423856D01*
X121091166Y-87420437D01*
X121068557Y-87414773D01*
X121046613Y-87406921D01*
X121025543Y-87396956D01*
X121005552Y-87384974D01*
X120986832Y-87371090D01*
X120969562Y-87355438D01*
X120953910Y-87338168D01*
X120940026Y-87319448D01*
X120928044Y-87299457D01*
X120918079Y-87278387D01*
X120910227Y-87256443D01*
X120904563Y-87233834D01*
X120901144Y-87210779D01*
X120900000Y-87187500D01*
X120900000Y-86712500D01*
X120901144Y-86689221D01*
X120904563Y-86666166D01*
X120910227Y-86643557D01*
X120918079Y-86621613D01*
X120928044Y-86600543D01*
X120940026Y-86580552D01*
X120953910Y-86561832D01*
X120969562Y-86544562D01*
X120986832Y-86528910D01*
X121005552Y-86515026D01*
X121025543Y-86503044D01*
X121046613Y-86493079D01*
X121068557Y-86485227D01*
X121091166Y-86479563D01*
X121114221Y-86476144D01*
X121137500Y-86475000D01*
X121712500Y-86475000D01*
X121735779Y-86476144D01*
X121735779Y-86476144D01*
G37*
D11*
X121425000Y-86950000D03*
D10*
G36*
X123485779Y-86476144D02*
G01*
X123508834Y-86479563D01*
X123531443Y-86485227D01*
X123553387Y-86493079D01*
X123574457Y-86503044D01*
X123594448Y-86515026D01*
X123613168Y-86528910D01*
X123630438Y-86544562D01*
X123646090Y-86561832D01*
X123659974Y-86580552D01*
X123671956Y-86600543D01*
X123681921Y-86621613D01*
X123689773Y-86643557D01*
X123695437Y-86666166D01*
X123698856Y-86689221D01*
X123700000Y-86712500D01*
X123700000Y-87187500D01*
X123698856Y-87210779D01*
X123695437Y-87233834D01*
X123689773Y-87256443D01*
X123681921Y-87278387D01*
X123671956Y-87299457D01*
X123659974Y-87319448D01*
X123646090Y-87338168D01*
X123630438Y-87355438D01*
X123613168Y-87371090D01*
X123594448Y-87384974D01*
X123574457Y-87396956D01*
X123553387Y-87406921D01*
X123531443Y-87414773D01*
X123508834Y-87420437D01*
X123485779Y-87423856D01*
X123462500Y-87425000D01*
X122887500Y-87425000D01*
X122864221Y-87423856D01*
X122841166Y-87420437D01*
X122818557Y-87414773D01*
X122796613Y-87406921D01*
X122775543Y-87396956D01*
X122755552Y-87384974D01*
X122736832Y-87371090D01*
X122719562Y-87355438D01*
X122703910Y-87338168D01*
X122690026Y-87319448D01*
X122678044Y-87299457D01*
X122668079Y-87278387D01*
X122660227Y-87256443D01*
X122654563Y-87233834D01*
X122651144Y-87210779D01*
X122650000Y-87187500D01*
X122650000Y-86712500D01*
X122651144Y-86689221D01*
X122654563Y-86666166D01*
X122660227Y-86643557D01*
X122668079Y-86621613D01*
X122678044Y-86600543D01*
X122690026Y-86580552D01*
X122703910Y-86561832D01*
X122719562Y-86544562D01*
X122736832Y-86528910D01*
X122755552Y-86515026D01*
X122775543Y-86503044D01*
X122796613Y-86493079D01*
X122818557Y-86485227D01*
X122841166Y-86479563D01*
X122864221Y-86476144D01*
X122887500Y-86475000D01*
X123462500Y-86475000D01*
X123485779Y-86476144D01*
X123485779Y-86476144D01*
G37*
D11*
X123175000Y-86950000D03*
D10*
G36*
X126685779Y-86476144D02*
G01*
X126708834Y-86479563D01*
X126731443Y-86485227D01*
X126753387Y-86493079D01*
X126774457Y-86503044D01*
X126794448Y-86515026D01*
X126813168Y-86528910D01*
X126830438Y-86544562D01*
X126846090Y-86561832D01*
X126859974Y-86580552D01*
X126871956Y-86600543D01*
X126881921Y-86621613D01*
X126889773Y-86643557D01*
X126895437Y-86666166D01*
X126898856Y-86689221D01*
X126900000Y-86712500D01*
X126900000Y-87187500D01*
X126898856Y-87210779D01*
X126895437Y-87233834D01*
X126889773Y-87256443D01*
X126881921Y-87278387D01*
X126871956Y-87299457D01*
X126859974Y-87319448D01*
X126846090Y-87338168D01*
X126830438Y-87355438D01*
X126813168Y-87371090D01*
X126794448Y-87384974D01*
X126774457Y-87396956D01*
X126753387Y-87406921D01*
X126731443Y-87414773D01*
X126708834Y-87420437D01*
X126685779Y-87423856D01*
X126662500Y-87425000D01*
X126087500Y-87425000D01*
X126064221Y-87423856D01*
X126041166Y-87420437D01*
X126018557Y-87414773D01*
X125996613Y-87406921D01*
X125975543Y-87396956D01*
X125955552Y-87384974D01*
X125936832Y-87371090D01*
X125919562Y-87355438D01*
X125903910Y-87338168D01*
X125890026Y-87319448D01*
X125878044Y-87299457D01*
X125868079Y-87278387D01*
X125860227Y-87256443D01*
X125854563Y-87233834D01*
X125851144Y-87210779D01*
X125850000Y-87187500D01*
X125850000Y-86712500D01*
X125851144Y-86689221D01*
X125854563Y-86666166D01*
X125860227Y-86643557D01*
X125868079Y-86621613D01*
X125878044Y-86600543D01*
X125890026Y-86580552D01*
X125903910Y-86561832D01*
X125919562Y-86544562D01*
X125936832Y-86528910D01*
X125955552Y-86515026D01*
X125975543Y-86503044D01*
X125996613Y-86493079D01*
X126018557Y-86485227D01*
X126041166Y-86479563D01*
X126064221Y-86476144D01*
X126087500Y-86475000D01*
X126662500Y-86475000D01*
X126685779Y-86476144D01*
X126685779Y-86476144D01*
G37*
D11*
X126375000Y-86950000D03*
D10*
G36*
X124935779Y-86476144D02*
G01*
X124958834Y-86479563D01*
X124981443Y-86485227D01*
X125003387Y-86493079D01*
X125024457Y-86503044D01*
X125044448Y-86515026D01*
X125063168Y-86528910D01*
X125080438Y-86544562D01*
X125096090Y-86561832D01*
X125109974Y-86580552D01*
X125121956Y-86600543D01*
X125131921Y-86621613D01*
X125139773Y-86643557D01*
X125145437Y-86666166D01*
X125148856Y-86689221D01*
X125150000Y-86712500D01*
X125150000Y-87187500D01*
X125148856Y-87210779D01*
X125145437Y-87233834D01*
X125139773Y-87256443D01*
X125131921Y-87278387D01*
X125121956Y-87299457D01*
X125109974Y-87319448D01*
X125096090Y-87338168D01*
X125080438Y-87355438D01*
X125063168Y-87371090D01*
X125044448Y-87384974D01*
X125024457Y-87396956D01*
X125003387Y-87406921D01*
X124981443Y-87414773D01*
X124958834Y-87420437D01*
X124935779Y-87423856D01*
X124912500Y-87425000D01*
X124337500Y-87425000D01*
X124314221Y-87423856D01*
X124291166Y-87420437D01*
X124268557Y-87414773D01*
X124246613Y-87406921D01*
X124225543Y-87396956D01*
X124205552Y-87384974D01*
X124186832Y-87371090D01*
X124169562Y-87355438D01*
X124153910Y-87338168D01*
X124140026Y-87319448D01*
X124128044Y-87299457D01*
X124118079Y-87278387D01*
X124110227Y-87256443D01*
X124104563Y-87233834D01*
X124101144Y-87210779D01*
X124100000Y-87187500D01*
X124100000Y-86712500D01*
X124101144Y-86689221D01*
X124104563Y-86666166D01*
X124110227Y-86643557D01*
X124118079Y-86621613D01*
X124128044Y-86600543D01*
X124140026Y-86580552D01*
X124153910Y-86561832D01*
X124169562Y-86544562D01*
X124186832Y-86528910D01*
X124205552Y-86515026D01*
X124225543Y-86503044D01*
X124246613Y-86493079D01*
X124268557Y-86485227D01*
X124291166Y-86479563D01*
X124314221Y-86476144D01*
X124337500Y-86475000D01*
X124912500Y-86475000D01*
X124935779Y-86476144D01*
X124935779Y-86476144D01*
G37*
D11*
X124625000Y-86950000D03*
D10*
G36*
X167019703Y-111625722D02*
G01*
X167034264Y-111627882D01*
X167048543Y-111631459D01*
X167062403Y-111636418D01*
X167075710Y-111642712D01*
X167088336Y-111650280D01*
X167100159Y-111659048D01*
X167111066Y-111668934D01*
X167120952Y-111679841D01*
X167129720Y-111691664D01*
X167137288Y-111704290D01*
X167143582Y-111717597D01*
X167148541Y-111731457D01*
X167152118Y-111745736D01*
X167154278Y-111760297D01*
X167155000Y-111775000D01*
X167155000Y-113525000D01*
X167154278Y-113539703D01*
X167152118Y-113554264D01*
X167148541Y-113568543D01*
X167143582Y-113582403D01*
X167137288Y-113595710D01*
X167129720Y-113608336D01*
X167120952Y-113620159D01*
X167111066Y-113631066D01*
X167100159Y-113640952D01*
X167088336Y-113649720D01*
X167075710Y-113657288D01*
X167062403Y-113663582D01*
X167048543Y-113668541D01*
X167034264Y-113672118D01*
X167019703Y-113674278D01*
X167005000Y-113675000D01*
X166705000Y-113675000D01*
X166690297Y-113674278D01*
X166675736Y-113672118D01*
X166661457Y-113668541D01*
X166647597Y-113663582D01*
X166634290Y-113657288D01*
X166621664Y-113649720D01*
X166609841Y-113640952D01*
X166598934Y-113631066D01*
X166589048Y-113620159D01*
X166580280Y-113608336D01*
X166572712Y-113595710D01*
X166566418Y-113582403D01*
X166561459Y-113568543D01*
X166557882Y-113554264D01*
X166555722Y-113539703D01*
X166555000Y-113525000D01*
X166555000Y-111775000D01*
X166555722Y-111760297D01*
X166557882Y-111745736D01*
X166561459Y-111731457D01*
X166566418Y-111717597D01*
X166572712Y-111704290D01*
X166580280Y-111691664D01*
X166589048Y-111679841D01*
X166598934Y-111668934D01*
X166609841Y-111659048D01*
X166621664Y-111650280D01*
X166634290Y-111642712D01*
X166647597Y-111636418D01*
X166661457Y-111631459D01*
X166675736Y-111627882D01*
X166690297Y-111625722D01*
X166705000Y-111625000D01*
X167005000Y-111625000D01*
X167019703Y-111625722D01*
X167019703Y-111625722D01*
G37*
D12*
X166855000Y-112650000D03*
D10*
G36*
X165749703Y-111625722D02*
G01*
X165764264Y-111627882D01*
X165778543Y-111631459D01*
X165792403Y-111636418D01*
X165805710Y-111642712D01*
X165818336Y-111650280D01*
X165830159Y-111659048D01*
X165841066Y-111668934D01*
X165850952Y-111679841D01*
X165859720Y-111691664D01*
X165867288Y-111704290D01*
X165873582Y-111717597D01*
X165878541Y-111731457D01*
X165882118Y-111745736D01*
X165884278Y-111760297D01*
X165885000Y-111775000D01*
X165885000Y-113525000D01*
X165884278Y-113539703D01*
X165882118Y-113554264D01*
X165878541Y-113568543D01*
X165873582Y-113582403D01*
X165867288Y-113595710D01*
X165859720Y-113608336D01*
X165850952Y-113620159D01*
X165841066Y-113631066D01*
X165830159Y-113640952D01*
X165818336Y-113649720D01*
X165805710Y-113657288D01*
X165792403Y-113663582D01*
X165778543Y-113668541D01*
X165764264Y-113672118D01*
X165749703Y-113674278D01*
X165735000Y-113675000D01*
X165435000Y-113675000D01*
X165420297Y-113674278D01*
X165405736Y-113672118D01*
X165391457Y-113668541D01*
X165377597Y-113663582D01*
X165364290Y-113657288D01*
X165351664Y-113649720D01*
X165339841Y-113640952D01*
X165328934Y-113631066D01*
X165319048Y-113620159D01*
X165310280Y-113608336D01*
X165302712Y-113595710D01*
X165296418Y-113582403D01*
X165291459Y-113568543D01*
X165287882Y-113554264D01*
X165285722Y-113539703D01*
X165285000Y-113525000D01*
X165285000Y-111775000D01*
X165285722Y-111760297D01*
X165287882Y-111745736D01*
X165291459Y-111731457D01*
X165296418Y-111717597D01*
X165302712Y-111704290D01*
X165310280Y-111691664D01*
X165319048Y-111679841D01*
X165328934Y-111668934D01*
X165339841Y-111659048D01*
X165351664Y-111650280D01*
X165364290Y-111642712D01*
X165377597Y-111636418D01*
X165391457Y-111631459D01*
X165405736Y-111627882D01*
X165420297Y-111625722D01*
X165435000Y-111625000D01*
X165735000Y-111625000D01*
X165749703Y-111625722D01*
X165749703Y-111625722D01*
G37*
D12*
X165585000Y-112650000D03*
D10*
G36*
X164479703Y-111625722D02*
G01*
X164494264Y-111627882D01*
X164508543Y-111631459D01*
X164522403Y-111636418D01*
X164535710Y-111642712D01*
X164548336Y-111650280D01*
X164560159Y-111659048D01*
X164571066Y-111668934D01*
X164580952Y-111679841D01*
X164589720Y-111691664D01*
X164597288Y-111704290D01*
X164603582Y-111717597D01*
X164608541Y-111731457D01*
X164612118Y-111745736D01*
X164614278Y-111760297D01*
X164615000Y-111775000D01*
X164615000Y-113525000D01*
X164614278Y-113539703D01*
X164612118Y-113554264D01*
X164608541Y-113568543D01*
X164603582Y-113582403D01*
X164597288Y-113595710D01*
X164589720Y-113608336D01*
X164580952Y-113620159D01*
X164571066Y-113631066D01*
X164560159Y-113640952D01*
X164548336Y-113649720D01*
X164535710Y-113657288D01*
X164522403Y-113663582D01*
X164508543Y-113668541D01*
X164494264Y-113672118D01*
X164479703Y-113674278D01*
X164465000Y-113675000D01*
X164165000Y-113675000D01*
X164150297Y-113674278D01*
X164135736Y-113672118D01*
X164121457Y-113668541D01*
X164107597Y-113663582D01*
X164094290Y-113657288D01*
X164081664Y-113649720D01*
X164069841Y-113640952D01*
X164058934Y-113631066D01*
X164049048Y-113620159D01*
X164040280Y-113608336D01*
X164032712Y-113595710D01*
X164026418Y-113582403D01*
X164021459Y-113568543D01*
X164017882Y-113554264D01*
X164015722Y-113539703D01*
X164015000Y-113525000D01*
X164015000Y-111775000D01*
X164015722Y-111760297D01*
X164017882Y-111745736D01*
X164021459Y-111731457D01*
X164026418Y-111717597D01*
X164032712Y-111704290D01*
X164040280Y-111691664D01*
X164049048Y-111679841D01*
X164058934Y-111668934D01*
X164069841Y-111659048D01*
X164081664Y-111650280D01*
X164094290Y-111642712D01*
X164107597Y-111636418D01*
X164121457Y-111631459D01*
X164135736Y-111627882D01*
X164150297Y-111625722D01*
X164165000Y-111625000D01*
X164465000Y-111625000D01*
X164479703Y-111625722D01*
X164479703Y-111625722D01*
G37*
D12*
X164315000Y-112650000D03*
D10*
G36*
X163209703Y-111625722D02*
G01*
X163224264Y-111627882D01*
X163238543Y-111631459D01*
X163252403Y-111636418D01*
X163265710Y-111642712D01*
X163278336Y-111650280D01*
X163290159Y-111659048D01*
X163301066Y-111668934D01*
X163310952Y-111679841D01*
X163319720Y-111691664D01*
X163327288Y-111704290D01*
X163333582Y-111717597D01*
X163338541Y-111731457D01*
X163342118Y-111745736D01*
X163344278Y-111760297D01*
X163345000Y-111775000D01*
X163345000Y-113525000D01*
X163344278Y-113539703D01*
X163342118Y-113554264D01*
X163338541Y-113568543D01*
X163333582Y-113582403D01*
X163327288Y-113595710D01*
X163319720Y-113608336D01*
X163310952Y-113620159D01*
X163301066Y-113631066D01*
X163290159Y-113640952D01*
X163278336Y-113649720D01*
X163265710Y-113657288D01*
X163252403Y-113663582D01*
X163238543Y-113668541D01*
X163224264Y-113672118D01*
X163209703Y-113674278D01*
X163195000Y-113675000D01*
X162895000Y-113675000D01*
X162880297Y-113674278D01*
X162865736Y-113672118D01*
X162851457Y-113668541D01*
X162837597Y-113663582D01*
X162824290Y-113657288D01*
X162811664Y-113649720D01*
X162799841Y-113640952D01*
X162788934Y-113631066D01*
X162779048Y-113620159D01*
X162770280Y-113608336D01*
X162762712Y-113595710D01*
X162756418Y-113582403D01*
X162751459Y-113568543D01*
X162747882Y-113554264D01*
X162745722Y-113539703D01*
X162745000Y-113525000D01*
X162745000Y-111775000D01*
X162745722Y-111760297D01*
X162747882Y-111745736D01*
X162751459Y-111731457D01*
X162756418Y-111717597D01*
X162762712Y-111704290D01*
X162770280Y-111691664D01*
X162779048Y-111679841D01*
X162788934Y-111668934D01*
X162799841Y-111659048D01*
X162811664Y-111650280D01*
X162824290Y-111642712D01*
X162837597Y-111636418D01*
X162851457Y-111631459D01*
X162865736Y-111627882D01*
X162880297Y-111625722D01*
X162895000Y-111625000D01*
X163195000Y-111625000D01*
X163209703Y-111625722D01*
X163209703Y-111625722D01*
G37*
D12*
X163045000Y-112650000D03*
D10*
G36*
X161939703Y-111625722D02*
G01*
X161954264Y-111627882D01*
X161968543Y-111631459D01*
X161982403Y-111636418D01*
X161995710Y-111642712D01*
X162008336Y-111650280D01*
X162020159Y-111659048D01*
X162031066Y-111668934D01*
X162040952Y-111679841D01*
X162049720Y-111691664D01*
X162057288Y-111704290D01*
X162063582Y-111717597D01*
X162068541Y-111731457D01*
X162072118Y-111745736D01*
X162074278Y-111760297D01*
X162075000Y-111775000D01*
X162075000Y-113525000D01*
X162074278Y-113539703D01*
X162072118Y-113554264D01*
X162068541Y-113568543D01*
X162063582Y-113582403D01*
X162057288Y-113595710D01*
X162049720Y-113608336D01*
X162040952Y-113620159D01*
X162031066Y-113631066D01*
X162020159Y-113640952D01*
X162008336Y-113649720D01*
X161995710Y-113657288D01*
X161982403Y-113663582D01*
X161968543Y-113668541D01*
X161954264Y-113672118D01*
X161939703Y-113674278D01*
X161925000Y-113675000D01*
X161625000Y-113675000D01*
X161610297Y-113674278D01*
X161595736Y-113672118D01*
X161581457Y-113668541D01*
X161567597Y-113663582D01*
X161554290Y-113657288D01*
X161541664Y-113649720D01*
X161529841Y-113640952D01*
X161518934Y-113631066D01*
X161509048Y-113620159D01*
X161500280Y-113608336D01*
X161492712Y-113595710D01*
X161486418Y-113582403D01*
X161481459Y-113568543D01*
X161477882Y-113554264D01*
X161475722Y-113539703D01*
X161475000Y-113525000D01*
X161475000Y-111775000D01*
X161475722Y-111760297D01*
X161477882Y-111745736D01*
X161481459Y-111731457D01*
X161486418Y-111717597D01*
X161492712Y-111704290D01*
X161500280Y-111691664D01*
X161509048Y-111679841D01*
X161518934Y-111668934D01*
X161529841Y-111659048D01*
X161541664Y-111650280D01*
X161554290Y-111642712D01*
X161567597Y-111636418D01*
X161581457Y-111631459D01*
X161595736Y-111627882D01*
X161610297Y-111625722D01*
X161625000Y-111625000D01*
X161925000Y-111625000D01*
X161939703Y-111625722D01*
X161939703Y-111625722D01*
G37*
D12*
X161775000Y-112650000D03*
D10*
G36*
X160669703Y-111625722D02*
G01*
X160684264Y-111627882D01*
X160698543Y-111631459D01*
X160712403Y-111636418D01*
X160725710Y-111642712D01*
X160738336Y-111650280D01*
X160750159Y-111659048D01*
X160761066Y-111668934D01*
X160770952Y-111679841D01*
X160779720Y-111691664D01*
X160787288Y-111704290D01*
X160793582Y-111717597D01*
X160798541Y-111731457D01*
X160802118Y-111745736D01*
X160804278Y-111760297D01*
X160805000Y-111775000D01*
X160805000Y-113525000D01*
X160804278Y-113539703D01*
X160802118Y-113554264D01*
X160798541Y-113568543D01*
X160793582Y-113582403D01*
X160787288Y-113595710D01*
X160779720Y-113608336D01*
X160770952Y-113620159D01*
X160761066Y-113631066D01*
X160750159Y-113640952D01*
X160738336Y-113649720D01*
X160725710Y-113657288D01*
X160712403Y-113663582D01*
X160698543Y-113668541D01*
X160684264Y-113672118D01*
X160669703Y-113674278D01*
X160655000Y-113675000D01*
X160355000Y-113675000D01*
X160340297Y-113674278D01*
X160325736Y-113672118D01*
X160311457Y-113668541D01*
X160297597Y-113663582D01*
X160284290Y-113657288D01*
X160271664Y-113649720D01*
X160259841Y-113640952D01*
X160248934Y-113631066D01*
X160239048Y-113620159D01*
X160230280Y-113608336D01*
X160222712Y-113595710D01*
X160216418Y-113582403D01*
X160211459Y-113568543D01*
X160207882Y-113554264D01*
X160205722Y-113539703D01*
X160205000Y-113525000D01*
X160205000Y-111775000D01*
X160205722Y-111760297D01*
X160207882Y-111745736D01*
X160211459Y-111731457D01*
X160216418Y-111717597D01*
X160222712Y-111704290D01*
X160230280Y-111691664D01*
X160239048Y-111679841D01*
X160248934Y-111668934D01*
X160259841Y-111659048D01*
X160271664Y-111650280D01*
X160284290Y-111642712D01*
X160297597Y-111636418D01*
X160311457Y-111631459D01*
X160325736Y-111627882D01*
X160340297Y-111625722D01*
X160355000Y-111625000D01*
X160655000Y-111625000D01*
X160669703Y-111625722D01*
X160669703Y-111625722D01*
G37*
D12*
X160505000Y-112650000D03*
D10*
G36*
X159399703Y-111625722D02*
G01*
X159414264Y-111627882D01*
X159428543Y-111631459D01*
X159442403Y-111636418D01*
X159455710Y-111642712D01*
X159468336Y-111650280D01*
X159480159Y-111659048D01*
X159491066Y-111668934D01*
X159500952Y-111679841D01*
X159509720Y-111691664D01*
X159517288Y-111704290D01*
X159523582Y-111717597D01*
X159528541Y-111731457D01*
X159532118Y-111745736D01*
X159534278Y-111760297D01*
X159535000Y-111775000D01*
X159535000Y-113525000D01*
X159534278Y-113539703D01*
X159532118Y-113554264D01*
X159528541Y-113568543D01*
X159523582Y-113582403D01*
X159517288Y-113595710D01*
X159509720Y-113608336D01*
X159500952Y-113620159D01*
X159491066Y-113631066D01*
X159480159Y-113640952D01*
X159468336Y-113649720D01*
X159455710Y-113657288D01*
X159442403Y-113663582D01*
X159428543Y-113668541D01*
X159414264Y-113672118D01*
X159399703Y-113674278D01*
X159385000Y-113675000D01*
X159085000Y-113675000D01*
X159070297Y-113674278D01*
X159055736Y-113672118D01*
X159041457Y-113668541D01*
X159027597Y-113663582D01*
X159014290Y-113657288D01*
X159001664Y-113649720D01*
X158989841Y-113640952D01*
X158978934Y-113631066D01*
X158969048Y-113620159D01*
X158960280Y-113608336D01*
X158952712Y-113595710D01*
X158946418Y-113582403D01*
X158941459Y-113568543D01*
X158937882Y-113554264D01*
X158935722Y-113539703D01*
X158935000Y-113525000D01*
X158935000Y-111775000D01*
X158935722Y-111760297D01*
X158937882Y-111745736D01*
X158941459Y-111731457D01*
X158946418Y-111717597D01*
X158952712Y-111704290D01*
X158960280Y-111691664D01*
X158969048Y-111679841D01*
X158978934Y-111668934D01*
X158989841Y-111659048D01*
X159001664Y-111650280D01*
X159014290Y-111642712D01*
X159027597Y-111636418D01*
X159041457Y-111631459D01*
X159055736Y-111627882D01*
X159070297Y-111625722D01*
X159085000Y-111625000D01*
X159385000Y-111625000D01*
X159399703Y-111625722D01*
X159399703Y-111625722D01*
G37*
D12*
X159235000Y-112650000D03*
D10*
G36*
X158129703Y-111625722D02*
G01*
X158144264Y-111627882D01*
X158158543Y-111631459D01*
X158172403Y-111636418D01*
X158185710Y-111642712D01*
X158198336Y-111650280D01*
X158210159Y-111659048D01*
X158221066Y-111668934D01*
X158230952Y-111679841D01*
X158239720Y-111691664D01*
X158247288Y-111704290D01*
X158253582Y-111717597D01*
X158258541Y-111731457D01*
X158262118Y-111745736D01*
X158264278Y-111760297D01*
X158265000Y-111775000D01*
X158265000Y-113525000D01*
X158264278Y-113539703D01*
X158262118Y-113554264D01*
X158258541Y-113568543D01*
X158253582Y-113582403D01*
X158247288Y-113595710D01*
X158239720Y-113608336D01*
X158230952Y-113620159D01*
X158221066Y-113631066D01*
X158210159Y-113640952D01*
X158198336Y-113649720D01*
X158185710Y-113657288D01*
X158172403Y-113663582D01*
X158158543Y-113668541D01*
X158144264Y-113672118D01*
X158129703Y-113674278D01*
X158115000Y-113675000D01*
X157815000Y-113675000D01*
X157800297Y-113674278D01*
X157785736Y-113672118D01*
X157771457Y-113668541D01*
X157757597Y-113663582D01*
X157744290Y-113657288D01*
X157731664Y-113649720D01*
X157719841Y-113640952D01*
X157708934Y-113631066D01*
X157699048Y-113620159D01*
X157690280Y-113608336D01*
X157682712Y-113595710D01*
X157676418Y-113582403D01*
X157671459Y-113568543D01*
X157667882Y-113554264D01*
X157665722Y-113539703D01*
X157665000Y-113525000D01*
X157665000Y-111775000D01*
X157665722Y-111760297D01*
X157667882Y-111745736D01*
X157671459Y-111731457D01*
X157676418Y-111717597D01*
X157682712Y-111704290D01*
X157690280Y-111691664D01*
X157699048Y-111679841D01*
X157708934Y-111668934D01*
X157719841Y-111659048D01*
X157731664Y-111650280D01*
X157744290Y-111642712D01*
X157757597Y-111636418D01*
X157771457Y-111631459D01*
X157785736Y-111627882D01*
X157800297Y-111625722D01*
X157815000Y-111625000D01*
X158115000Y-111625000D01*
X158129703Y-111625722D01*
X158129703Y-111625722D01*
G37*
D12*
X157965000Y-112650000D03*
D10*
G36*
X156859703Y-111625722D02*
G01*
X156874264Y-111627882D01*
X156888543Y-111631459D01*
X156902403Y-111636418D01*
X156915710Y-111642712D01*
X156928336Y-111650280D01*
X156940159Y-111659048D01*
X156951066Y-111668934D01*
X156960952Y-111679841D01*
X156969720Y-111691664D01*
X156977288Y-111704290D01*
X156983582Y-111717597D01*
X156988541Y-111731457D01*
X156992118Y-111745736D01*
X156994278Y-111760297D01*
X156995000Y-111775000D01*
X156995000Y-113525000D01*
X156994278Y-113539703D01*
X156992118Y-113554264D01*
X156988541Y-113568543D01*
X156983582Y-113582403D01*
X156977288Y-113595710D01*
X156969720Y-113608336D01*
X156960952Y-113620159D01*
X156951066Y-113631066D01*
X156940159Y-113640952D01*
X156928336Y-113649720D01*
X156915710Y-113657288D01*
X156902403Y-113663582D01*
X156888543Y-113668541D01*
X156874264Y-113672118D01*
X156859703Y-113674278D01*
X156845000Y-113675000D01*
X156545000Y-113675000D01*
X156530297Y-113674278D01*
X156515736Y-113672118D01*
X156501457Y-113668541D01*
X156487597Y-113663582D01*
X156474290Y-113657288D01*
X156461664Y-113649720D01*
X156449841Y-113640952D01*
X156438934Y-113631066D01*
X156429048Y-113620159D01*
X156420280Y-113608336D01*
X156412712Y-113595710D01*
X156406418Y-113582403D01*
X156401459Y-113568543D01*
X156397882Y-113554264D01*
X156395722Y-113539703D01*
X156395000Y-113525000D01*
X156395000Y-111775000D01*
X156395722Y-111760297D01*
X156397882Y-111745736D01*
X156401459Y-111731457D01*
X156406418Y-111717597D01*
X156412712Y-111704290D01*
X156420280Y-111691664D01*
X156429048Y-111679841D01*
X156438934Y-111668934D01*
X156449841Y-111659048D01*
X156461664Y-111650280D01*
X156474290Y-111642712D01*
X156487597Y-111636418D01*
X156501457Y-111631459D01*
X156515736Y-111627882D01*
X156530297Y-111625722D01*
X156545000Y-111625000D01*
X156845000Y-111625000D01*
X156859703Y-111625722D01*
X156859703Y-111625722D01*
G37*
D12*
X156695000Y-112650000D03*
D10*
G36*
X155589703Y-111625722D02*
G01*
X155604264Y-111627882D01*
X155618543Y-111631459D01*
X155632403Y-111636418D01*
X155645710Y-111642712D01*
X155658336Y-111650280D01*
X155670159Y-111659048D01*
X155681066Y-111668934D01*
X155690952Y-111679841D01*
X155699720Y-111691664D01*
X155707288Y-111704290D01*
X155713582Y-111717597D01*
X155718541Y-111731457D01*
X155722118Y-111745736D01*
X155724278Y-111760297D01*
X155725000Y-111775000D01*
X155725000Y-113525000D01*
X155724278Y-113539703D01*
X155722118Y-113554264D01*
X155718541Y-113568543D01*
X155713582Y-113582403D01*
X155707288Y-113595710D01*
X155699720Y-113608336D01*
X155690952Y-113620159D01*
X155681066Y-113631066D01*
X155670159Y-113640952D01*
X155658336Y-113649720D01*
X155645710Y-113657288D01*
X155632403Y-113663582D01*
X155618543Y-113668541D01*
X155604264Y-113672118D01*
X155589703Y-113674278D01*
X155575000Y-113675000D01*
X155275000Y-113675000D01*
X155260297Y-113674278D01*
X155245736Y-113672118D01*
X155231457Y-113668541D01*
X155217597Y-113663582D01*
X155204290Y-113657288D01*
X155191664Y-113649720D01*
X155179841Y-113640952D01*
X155168934Y-113631066D01*
X155159048Y-113620159D01*
X155150280Y-113608336D01*
X155142712Y-113595710D01*
X155136418Y-113582403D01*
X155131459Y-113568543D01*
X155127882Y-113554264D01*
X155125722Y-113539703D01*
X155125000Y-113525000D01*
X155125000Y-111775000D01*
X155125722Y-111760297D01*
X155127882Y-111745736D01*
X155131459Y-111731457D01*
X155136418Y-111717597D01*
X155142712Y-111704290D01*
X155150280Y-111691664D01*
X155159048Y-111679841D01*
X155168934Y-111668934D01*
X155179841Y-111659048D01*
X155191664Y-111650280D01*
X155204290Y-111642712D01*
X155217597Y-111636418D01*
X155231457Y-111631459D01*
X155245736Y-111627882D01*
X155260297Y-111625722D01*
X155275000Y-111625000D01*
X155575000Y-111625000D01*
X155589703Y-111625722D01*
X155589703Y-111625722D01*
G37*
D12*
X155425000Y-112650000D03*
D10*
G36*
X154319703Y-111625722D02*
G01*
X154334264Y-111627882D01*
X154348543Y-111631459D01*
X154362403Y-111636418D01*
X154375710Y-111642712D01*
X154388336Y-111650280D01*
X154400159Y-111659048D01*
X154411066Y-111668934D01*
X154420952Y-111679841D01*
X154429720Y-111691664D01*
X154437288Y-111704290D01*
X154443582Y-111717597D01*
X154448541Y-111731457D01*
X154452118Y-111745736D01*
X154454278Y-111760297D01*
X154455000Y-111775000D01*
X154455000Y-113525000D01*
X154454278Y-113539703D01*
X154452118Y-113554264D01*
X154448541Y-113568543D01*
X154443582Y-113582403D01*
X154437288Y-113595710D01*
X154429720Y-113608336D01*
X154420952Y-113620159D01*
X154411066Y-113631066D01*
X154400159Y-113640952D01*
X154388336Y-113649720D01*
X154375710Y-113657288D01*
X154362403Y-113663582D01*
X154348543Y-113668541D01*
X154334264Y-113672118D01*
X154319703Y-113674278D01*
X154305000Y-113675000D01*
X154005000Y-113675000D01*
X153990297Y-113674278D01*
X153975736Y-113672118D01*
X153961457Y-113668541D01*
X153947597Y-113663582D01*
X153934290Y-113657288D01*
X153921664Y-113649720D01*
X153909841Y-113640952D01*
X153898934Y-113631066D01*
X153889048Y-113620159D01*
X153880280Y-113608336D01*
X153872712Y-113595710D01*
X153866418Y-113582403D01*
X153861459Y-113568543D01*
X153857882Y-113554264D01*
X153855722Y-113539703D01*
X153855000Y-113525000D01*
X153855000Y-111775000D01*
X153855722Y-111760297D01*
X153857882Y-111745736D01*
X153861459Y-111731457D01*
X153866418Y-111717597D01*
X153872712Y-111704290D01*
X153880280Y-111691664D01*
X153889048Y-111679841D01*
X153898934Y-111668934D01*
X153909841Y-111659048D01*
X153921664Y-111650280D01*
X153934290Y-111642712D01*
X153947597Y-111636418D01*
X153961457Y-111631459D01*
X153975736Y-111627882D01*
X153990297Y-111625722D01*
X154005000Y-111625000D01*
X154305000Y-111625000D01*
X154319703Y-111625722D01*
X154319703Y-111625722D01*
G37*
D12*
X154155000Y-112650000D03*
D10*
G36*
X153049703Y-111625722D02*
G01*
X153064264Y-111627882D01*
X153078543Y-111631459D01*
X153092403Y-111636418D01*
X153105710Y-111642712D01*
X153118336Y-111650280D01*
X153130159Y-111659048D01*
X153141066Y-111668934D01*
X153150952Y-111679841D01*
X153159720Y-111691664D01*
X153167288Y-111704290D01*
X153173582Y-111717597D01*
X153178541Y-111731457D01*
X153182118Y-111745736D01*
X153184278Y-111760297D01*
X153185000Y-111775000D01*
X153185000Y-113525000D01*
X153184278Y-113539703D01*
X153182118Y-113554264D01*
X153178541Y-113568543D01*
X153173582Y-113582403D01*
X153167288Y-113595710D01*
X153159720Y-113608336D01*
X153150952Y-113620159D01*
X153141066Y-113631066D01*
X153130159Y-113640952D01*
X153118336Y-113649720D01*
X153105710Y-113657288D01*
X153092403Y-113663582D01*
X153078543Y-113668541D01*
X153064264Y-113672118D01*
X153049703Y-113674278D01*
X153035000Y-113675000D01*
X152735000Y-113675000D01*
X152720297Y-113674278D01*
X152705736Y-113672118D01*
X152691457Y-113668541D01*
X152677597Y-113663582D01*
X152664290Y-113657288D01*
X152651664Y-113649720D01*
X152639841Y-113640952D01*
X152628934Y-113631066D01*
X152619048Y-113620159D01*
X152610280Y-113608336D01*
X152602712Y-113595710D01*
X152596418Y-113582403D01*
X152591459Y-113568543D01*
X152587882Y-113554264D01*
X152585722Y-113539703D01*
X152585000Y-113525000D01*
X152585000Y-111775000D01*
X152585722Y-111760297D01*
X152587882Y-111745736D01*
X152591459Y-111731457D01*
X152596418Y-111717597D01*
X152602712Y-111704290D01*
X152610280Y-111691664D01*
X152619048Y-111679841D01*
X152628934Y-111668934D01*
X152639841Y-111659048D01*
X152651664Y-111650280D01*
X152664290Y-111642712D01*
X152677597Y-111636418D01*
X152691457Y-111631459D01*
X152705736Y-111627882D01*
X152720297Y-111625722D01*
X152735000Y-111625000D01*
X153035000Y-111625000D01*
X153049703Y-111625722D01*
X153049703Y-111625722D01*
G37*
D12*
X152885000Y-112650000D03*
D10*
G36*
X151779703Y-111625722D02*
G01*
X151794264Y-111627882D01*
X151808543Y-111631459D01*
X151822403Y-111636418D01*
X151835710Y-111642712D01*
X151848336Y-111650280D01*
X151860159Y-111659048D01*
X151871066Y-111668934D01*
X151880952Y-111679841D01*
X151889720Y-111691664D01*
X151897288Y-111704290D01*
X151903582Y-111717597D01*
X151908541Y-111731457D01*
X151912118Y-111745736D01*
X151914278Y-111760297D01*
X151915000Y-111775000D01*
X151915000Y-113525000D01*
X151914278Y-113539703D01*
X151912118Y-113554264D01*
X151908541Y-113568543D01*
X151903582Y-113582403D01*
X151897288Y-113595710D01*
X151889720Y-113608336D01*
X151880952Y-113620159D01*
X151871066Y-113631066D01*
X151860159Y-113640952D01*
X151848336Y-113649720D01*
X151835710Y-113657288D01*
X151822403Y-113663582D01*
X151808543Y-113668541D01*
X151794264Y-113672118D01*
X151779703Y-113674278D01*
X151765000Y-113675000D01*
X151465000Y-113675000D01*
X151450297Y-113674278D01*
X151435736Y-113672118D01*
X151421457Y-113668541D01*
X151407597Y-113663582D01*
X151394290Y-113657288D01*
X151381664Y-113649720D01*
X151369841Y-113640952D01*
X151358934Y-113631066D01*
X151349048Y-113620159D01*
X151340280Y-113608336D01*
X151332712Y-113595710D01*
X151326418Y-113582403D01*
X151321459Y-113568543D01*
X151317882Y-113554264D01*
X151315722Y-113539703D01*
X151315000Y-113525000D01*
X151315000Y-111775000D01*
X151315722Y-111760297D01*
X151317882Y-111745736D01*
X151321459Y-111731457D01*
X151326418Y-111717597D01*
X151332712Y-111704290D01*
X151340280Y-111691664D01*
X151349048Y-111679841D01*
X151358934Y-111668934D01*
X151369841Y-111659048D01*
X151381664Y-111650280D01*
X151394290Y-111642712D01*
X151407597Y-111636418D01*
X151421457Y-111631459D01*
X151435736Y-111627882D01*
X151450297Y-111625722D01*
X151465000Y-111625000D01*
X151765000Y-111625000D01*
X151779703Y-111625722D01*
X151779703Y-111625722D01*
G37*
D12*
X151615000Y-112650000D03*
D10*
G36*
X150509703Y-111625722D02*
G01*
X150524264Y-111627882D01*
X150538543Y-111631459D01*
X150552403Y-111636418D01*
X150565710Y-111642712D01*
X150578336Y-111650280D01*
X150590159Y-111659048D01*
X150601066Y-111668934D01*
X150610952Y-111679841D01*
X150619720Y-111691664D01*
X150627288Y-111704290D01*
X150633582Y-111717597D01*
X150638541Y-111731457D01*
X150642118Y-111745736D01*
X150644278Y-111760297D01*
X150645000Y-111775000D01*
X150645000Y-113525000D01*
X150644278Y-113539703D01*
X150642118Y-113554264D01*
X150638541Y-113568543D01*
X150633582Y-113582403D01*
X150627288Y-113595710D01*
X150619720Y-113608336D01*
X150610952Y-113620159D01*
X150601066Y-113631066D01*
X150590159Y-113640952D01*
X150578336Y-113649720D01*
X150565710Y-113657288D01*
X150552403Y-113663582D01*
X150538543Y-113668541D01*
X150524264Y-113672118D01*
X150509703Y-113674278D01*
X150495000Y-113675000D01*
X150195000Y-113675000D01*
X150180297Y-113674278D01*
X150165736Y-113672118D01*
X150151457Y-113668541D01*
X150137597Y-113663582D01*
X150124290Y-113657288D01*
X150111664Y-113649720D01*
X150099841Y-113640952D01*
X150088934Y-113631066D01*
X150079048Y-113620159D01*
X150070280Y-113608336D01*
X150062712Y-113595710D01*
X150056418Y-113582403D01*
X150051459Y-113568543D01*
X150047882Y-113554264D01*
X150045722Y-113539703D01*
X150045000Y-113525000D01*
X150045000Y-111775000D01*
X150045722Y-111760297D01*
X150047882Y-111745736D01*
X150051459Y-111731457D01*
X150056418Y-111717597D01*
X150062712Y-111704290D01*
X150070280Y-111691664D01*
X150079048Y-111679841D01*
X150088934Y-111668934D01*
X150099841Y-111659048D01*
X150111664Y-111650280D01*
X150124290Y-111642712D01*
X150137597Y-111636418D01*
X150151457Y-111631459D01*
X150165736Y-111627882D01*
X150180297Y-111625722D01*
X150195000Y-111625000D01*
X150495000Y-111625000D01*
X150509703Y-111625722D01*
X150509703Y-111625722D01*
G37*
D12*
X150345000Y-112650000D03*
D10*
G36*
X150509703Y-102325722D02*
G01*
X150524264Y-102327882D01*
X150538543Y-102331459D01*
X150552403Y-102336418D01*
X150565710Y-102342712D01*
X150578336Y-102350280D01*
X150590159Y-102359048D01*
X150601066Y-102368934D01*
X150610952Y-102379841D01*
X150619720Y-102391664D01*
X150627288Y-102404290D01*
X150633582Y-102417597D01*
X150638541Y-102431457D01*
X150642118Y-102445736D01*
X150644278Y-102460297D01*
X150645000Y-102475000D01*
X150645000Y-104225000D01*
X150644278Y-104239703D01*
X150642118Y-104254264D01*
X150638541Y-104268543D01*
X150633582Y-104282403D01*
X150627288Y-104295710D01*
X150619720Y-104308336D01*
X150610952Y-104320159D01*
X150601066Y-104331066D01*
X150590159Y-104340952D01*
X150578336Y-104349720D01*
X150565710Y-104357288D01*
X150552403Y-104363582D01*
X150538543Y-104368541D01*
X150524264Y-104372118D01*
X150509703Y-104374278D01*
X150495000Y-104375000D01*
X150195000Y-104375000D01*
X150180297Y-104374278D01*
X150165736Y-104372118D01*
X150151457Y-104368541D01*
X150137597Y-104363582D01*
X150124290Y-104357288D01*
X150111664Y-104349720D01*
X150099841Y-104340952D01*
X150088934Y-104331066D01*
X150079048Y-104320159D01*
X150070280Y-104308336D01*
X150062712Y-104295710D01*
X150056418Y-104282403D01*
X150051459Y-104268543D01*
X150047882Y-104254264D01*
X150045722Y-104239703D01*
X150045000Y-104225000D01*
X150045000Y-102475000D01*
X150045722Y-102460297D01*
X150047882Y-102445736D01*
X150051459Y-102431457D01*
X150056418Y-102417597D01*
X150062712Y-102404290D01*
X150070280Y-102391664D01*
X150079048Y-102379841D01*
X150088934Y-102368934D01*
X150099841Y-102359048D01*
X150111664Y-102350280D01*
X150124290Y-102342712D01*
X150137597Y-102336418D01*
X150151457Y-102331459D01*
X150165736Y-102327882D01*
X150180297Y-102325722D01*
X150195000Y-102325000D01*
X150495000Y-102325000D01*
X150509703Y-102325722D01*
X150509703Y-102325722D01*
G37*
D12*
X150345000Y-103350000D03*
D10*
G36*
X151779703Y-102325722D02*
G01*
X151794264Y-102327882D01*
X151808543Y-102331459D01*
X151822403Y-102336418D01*
X151835710Y-102342712D01*
X151848336Y-102350280D01*
X151860159Y-102359048D01*
X151871066Y-102368934D01*
X151880952Y-102379841D01*
X151889720Y-102391664D01*
X151897288Y-102404290D01*
X151903582Y-102417597D01*
X151908541Y-102431457D01*
X151912118Y-102445736D01*
X151914278Y-102460297D01*
X151915000Y-102475000D01*
X151915000Y-104225000D01*
X151914278Y-104239703D01*
X151912118Y-104254264D01*
X151908541Y-104268543D01*
X151903582Y-104282403D01*
X151897288Y-104295710D01*
X151889720Y-104308336D01*
X151880952Y-104320159D01*
X151871066Y-104331066D01*
X151860159Y-104340952D01*
X151848336Y-104349720D01*
X151835710Y-104357288D01*
X151822403Y-104363582D01*
X151808543Y-104368541D01*
X151794264Y-104372118D01*
X151779703Y-104374278D01*
X151765000Y-104375000D01*
X151465000Y-104375000D01*
X151450297Y-104374278D01*
X151435736Y-104372118D01*
X151421457Y-104368541D01*
X151407597Y-104363582D01*
X151394290Y-104357288D01*
X151381664Y-104349720D01*
X151369841Y-104340952D01*
X151358934Y-104331066D01*
X151349048Y-104320159D01*
X151340280Y-104308336D01*
X151332712Y-104295710D01*
X151326418Y-104282403D01*
X151321459Y-104268543D01*
X151317882Y-104254264D01*
X151315722Y-104239703D01*
X151315000Y-104225000D01*
X151315000Y-102475000D01*
X151315722Y-102460297D01*
X151317882Y-102445736D01*
X151321459Y-102431457D01*
X151326418Y-102417597D01*
X151332712Y-102404290D01*
X151340280Y-102391664D01*
X151349048Y-102379841D01*
X151358934Y-102368934D01*
X151369841Y-102359048D01*
X151381664Y-102350280D01*
X151394290Y-102342712D01*
X151407597Y-102336418D01*
X151421457Y-102331459D01*
X151435736Y-102327882D01*
X151450297Y-102325722D01*
X151465000Y-102325000D01*
X151765000Y-102325000D01*
X151779703Y-102325722D01*
X151779703Y-102325722D01*
G37*
D12*
X151615000Y-103350000D03*
D10*
G36*
X153049703Y-102325722D02*
G01*
X153064264Y-102327882D01*
X153078543Y-102331459D01*
X153092403Y-102336418D01*
X153105710Y-102342712D01*
X153118336Y-102350280D01*
X153130159Y-102359048D01*
X153141066Y-102368934D01*
X153150952Y-102379841D01*
X153159720Y-102391664D01*
X153167288Y-102404290D01*
X153173582Y-102417597D01*
X153178541Y-102431457D01*
X153182118Y-102445736D01*
X153184278Y-102460297D01*
X153185000Y-102475000D01*
X153185000Y-104225000D01*
X153184278Y-104239703D01*
X153182118Y-104254264D01*
X153178541Y-104268543D01*
X153173582Y-104282403D01*
X153167288Y-104295710D01*
X153159720Y-104308336D01*
X153150952Y-104320159D01*
X153141066Y-104331066D01*
X153130159Y-104340952D01*
X153118336Y-104349720D01*
X153105710Y-104357288D01*
X153092403Y-104363582D01*
X153078543Y-104368541D01*
X153064264Y-104372118D01*
X153049703Y-104374278D01*
X153035000Y-104375000D01*
X152735000Y-104375000D01*
X152720297Y-104374278D01*
X152705736Y-104372118D01*
X152691457Y-104368541D01*
X152677597Y-104363582D01*
X152664290Y-104357288D01*
X152651664Y-104349720D01*
X152639841Y-104340952D01*
X152628934Y-104331066D01*
X152619048Y-104320159D01*
X152610280Y-104308336D01*
X152602712Y-104295710D01*
X152596418Y-104282403D01*
X152591459Y-104268543D01*
X152587882Y-104254264D01*
X152585722Y-104239703D01*
X152585000Y-104225000D01*
X152585000Y-102475000D01*
X152585722Y-102460297D01*
X152587882Y-102445736D01*
X152591459Y-102431457D01*
X152596418Y-102417597D01*
X152602712Y-102404290D01*
X152610280Y-102391664D01*
X152619048Y-102379841D01*
X152628934Y-102368934D01*
X152639841Y-102359048D01*
X152651664Y-102350280D01*
X152664290Y-102342712D01*
X152677597Y-102336418D01*
X152691457Y-102331459D01*
X152705736Y-102327882D01*
X152720297Y-102325722D01*
X152735000Y-102325000D01*
X153035000Y-102325000D01*
X153049703Y-102325722D01*
X153049703Y-102325722D01*
G37*
D12*
X152885000Y-103350000D03*
D10*
G36*
X154319703Y-102325722D02*
G01*
X154334264Y-102327882D01*
X154348543Y-102331459D01*
X154362403Y-102336418D01*
X154375710Y-102342712D01*
X154388336Y-102350280D01*
X154400159Y-102359048D01*
X154411066Y-102368934D01*
X154420952Y-102379841D01*
X154429720Y-102391664D01*
X154437288Y-102404290D01*
X154443582Y-102417597D01*
X154448541Y-102431457D01*
X154452118Y-102445736D01*
X154454278Y-102460297D01*
X154455000Y-102475000D01*
X154455000Y-104225000D01*
X154454278Y-104239703D01*
X154452118Y-104254264D01*
X154448541Y-104268543D01*
X154443582Y-104282403D01*
X154437288Y-104295710D01*
X154429720Y-104308336D01*
X154420952Y-104320159D01*
X154411066Y-104331066D01*
X154400159Y-104340952D01*
X154388336Y-104349720D01*
X154375710Y-104357288D01*
X154362403Y-104363582D01*
X154348543Y-104368541D01*
X154334264Y-104372118D01*
X154319703Y-104374278D01*
X154305000Y-104375000D01*
X154005000Y-104375000D01*
X153990297Y-104374278D01*
X153975736Y-104372118D01*
X153961457Y-104368541D01*
X153947597Y-104363582D01*
X153934290Y-104357288D01*
X153921664Y-104349720D01*
X153909841Y-104340952D01*
X153898934Y-104331066D01*
X153889048Y-104320159D01*
X153880280Y-104308336D01*
X153872712Y-104295710D01*
X153866418Y-104282403D01*
X153861459Y-104268543D01*
X153857882Y-104254264D01*
X153855722Y-104239703D01*
X153855000Y-104225000D01*
X153855000Y-102475000D01*
X153855722Y-102460297D01*
X153857882Y-102445736D01*
X153861459Y-102431457D01*
X153866418Y-102417597D01*
X153872712Y-102404290D01*
X153880280Y-102391664D01*
X153889048Y-102379841D01*
X153898934Y-102368934D01*
X153909841Y-102359048D01*
X153921664Y-102350280D01*
X153934290Y-102342712D01*
X153947597Y-102336418D01*
X153961457Y-102331459D01*
X153975736Y-102327882D01*
X153990297Y-102325722D01*
X154005000Y-102325000D01*
X154305000Y-102325000D01*
X154319703Y-102325722D01*
X154319703Y-102325722D01*
G37*
D12*
X154155000Y-103350000D03*
D10*
G36*
X155589703Y-102325722D02*
G01*
X155604264Y-102327882D01*
X155618543Y-102331459D01*
X155632403Y-102336418D01*
X155645710Y-102342712D01*
X155658336Y-102350280D01*
X155670159Y-102359048D01*
X155681066Y-102368934D01*
X155690952Y-102379841D01*
X155699720Y-102391664D01*
X155707288Y-102404290D01*
X155713582Y-102417597D01*
X155718541Y-102431457D01*
X155722118Y-102445736D01*
X155724278Y-102460297D01*
X155725000Y-102475000D01*
X155725000Y-104225000D01*
X155724278Y-104239703D01*
X155722118Y-104254264D01*
X155718541Y-104268543D01*
X155713582Y-104282403D01*
X155707288Y-104295710D01*
X155699720Y-104308336D01*
X155690952Y-104320159D01*
X155681066Y-104331066D01*
X155670159Y-104340952D01*
X155658336Y-104349720D01*
X155645710Y-104357288D01*
X155632403Y-104363582D01*
X155618543Y-104368541D01*
X155604264Y-104372118D01*
X155589703Y-104374278D01*
X155575000Y-104375000D01*
X155275000Y-104375000D01*
X155260297Y-104374278D01*
X155245736Y-104372118D01*
X155231457Y-104368541D01*
X155217597Y-104363582D01*
X155204290Y-104357288D01*
X155191664Y-104349720D01*
X155179841Y-104340952D01*
X155168934Y-104331066D01*
X155159048Y-104320159D01*
X155150280Y-104308336D01*
X155142712Y-104295710D01*
X155136418Y-104282403D01*
X155131459Y-104268543D01*
X155127882Y-104254264D01*
X155125722Y-104239703D01*
X155125000Y-104225000D01*
X155125000Y-102475000D01*
X155125722Y-102460297D01*
X155127882Y-102445736D01*
X155131459Y-102431457D01*
X155136418Y-102417597D01*
X155142712Y-102404290D01*
X155150280Y-102391664D01*
X155159048Y-102379841D01*
X155168934Y-102368934D01*
X155179841Y-102359048D01*
X155191664Y-102350280D01*
X155204290Y-102342712D01*
X155217597Y-102336418D01*
X155231457Y-102331459D01*
X155245736Y-102327882D01*
X155260297Y-102325722D01*
X155275000Y-102325000D01*
X155575000Y-102325000D01*
X155589703Y-102325722D01*
X155589703Y-102325722D01*
G37*
D12*
X155425000Y-103350000D03*
D10*
G36*
X156859703Y-102325722D02*
G01*
X156874264Y-102327882D01*
X156888543Y-102331459D01*
X156902403Y-102336418D01*
X156915710Y-102342712D01*
X156928336Y-102350280D01*
X156940159Y-102359048D01*
X156951066Y-102368934D01*
X156960952Y-102379841D01*
X156969720Y-102391664D01*
X156977288Y-102404290D01*
X156983582Y-102417597D01*
X156988541Y-102431457D01*
X156992118Y-102445736D01*
X156994278Y-102460297D01*
X156995000Y-102475000D01*
X156995000Y-104225000D01*
X156994278Y-104239703D01*
X156992118Y-104254264D01*
X156988541Y-104268543D01*
X156983582Y-104282403D01*
X156977288Y-104295710D01*
X156969720Y-104308336D01*
X156960952Y-104320159D01*
X156951066Y-104331066D01*
X156940159Y-104340952D01*
X156928336Y-104349720D01*
X156915710Y-104357288D01*
X156902403Y-104363582D01*
X156888543Y-104368541D01*
X156874264Y-104372118D01*
X156859703Y-104374278D01*
X156845000Y-104375000D01*
X156545000Y-104375000D01*
X156530297Y-104374278D01*
X156515736Y-104372118D01*
X156501457Y-104368541D01*
X156487597Y-104363582D01*
X156474290Y-104357288D01*
X156461664Y-104349720D01*
X156449841Y-104340952D01*
X156438934Y-104331066D01*
X156429048Y-104320159D01*
X156420280Y-104308336D01*
X156412712Y-104295710D01*
X156406418Y-104282403D01*
X156401459Y-104268543D01*
X156397882Y-104254264D01*
X156395722Y-104239703D01*
X156395000Y-104225000D01*
X156395000Y-102475000D01*
X156395722Y-102460297D01*
X156397882Y-102445736D01*
X156401459Y-102431457D01*
X156406418Y-102417597D01*
X156412712Y-102404290D01*
X156420280Y-102391664D01*
X156429048Y-102379841D01*
X156438934Y-102368934D01*
X156449841Y-102359048D01*
X156461664Y-102350280D01*
X156474290Y-102342712D01*
X156487597Y-102336418D01*
X156501457Y-102331459D01*
X156515736Y-102327882D01*
X156530297Y-102325722D01*
X156545000Y-102325000D01*
X156845000Y-102325000D01*
X156859703Y-102325722D01*
X156859703Y-102325722D01*
G37*
D12*
X156695000Y-103350000D03*
D10*
G36*
X158129703Y-102325722D02*
G01*
X158144264Y-102327882D01*
X158158543Y-102331459D01*
X158172403Y-102336418D01*
X158185710Y-102342712D01*
X158198336Y-102350280D01*
X158210159Y-102359048D01*
X158221066Y-102368934D01*
X158230952Y-102379841D01*
X158239720Y-102391664D01*
X158247288Y-102404290D01*
X158253582Y-102417597D01*
X158258541Y-102431457D01*
X158262118Y-102445736D01*
X158264278Y-102460297D01*
X158265000Y-102475000D01*
X158265000Y-104225000D01*
X158264278Y-104239703D01*
X158262118Y-104254264D01*
X158258541Y-104268543D01*
X158253582Y-104282403D01*
X158247288Y-104295710D01*
X158239720Y-104308336D01*
X158230952Y-104320159D01*
X158221066Y-104331066D01*
X158210159Y-104340952D01*
X158198336Y-104349720D01*
X158185710Y-104357288D01*
X158172403Y-104363582D01*
X158158543Y-104368541D01*
X158144264Y-104372118D01*
X158129703Y-104374278D01*
X158115000Y-104375000D01*
X157815000Y-104375000D01*
X157800297Y-104374278D01*
X157785736Y-104372118D01*
X157771457Y-104368541D01*
X157757597Y-104363582D01*
X157744290Y-104357288D01*
X157731664Y-104349720D01*
X157719841Y-104340952D01*
X157708934Y-104331066D01*
X157699048Y-104320159D01*
X157690280Y-104308336D01*
X157682712Y-104295710D01*
X157676418Y-104282403D01*
X157671459Y-104268543D01*
X157667882Y-104254264D01*
X157665722Y-104239703D01*
X157665000Y-104225000D01*
X157665000Y-102475000D01*
X157665722Y-102460297D01*
X157667882Y-102445736D01*
X157671459Y-102431457D01*
X157676418Y-102417597D01*
X157682712Y-102404290D01*
X157690280Y-102391664D01*
X157699048Y-102379841D01*
X157708934Y-102368934D01*
X157719841Y-102359048D01*
X157731664Y-102350280D01*
X157744290Y-102342712D01*
X157757597Y-102336418D01*
X157771457Y-102331459D01*
X157785736Y-102327882D01*
X157800297Y-102325722D01*
X157815000Y-102325000D01*
X158115000Y-102325000D01*
X158129703Y-102325722D01*
X158129703Y-102325722D01*
G37*
D12*
X157965000Y-103350000D03*
D10*
G36*
X159399703Y-102325722D02*
G01*
X159414264Y-102327882D01*
X159428543Y-102331459D01*
X159442403Y-102336418D01*
X159455710Y-102342712D01*
X159468336Y-102350280D01*
X159480159Y-102359048D01*
X159491066Y-102368934D01*
X159500952Y-102379841D01*
X159509720Y-102391664D01*
X159517288Y-102404290D01*
X159523582Y-102417597D01*
X159528541Y-102431457D01*
X159532118Y-102445736D01*
X159534278Y-102460297D01*
X159535000Y-102475000D01*
X159535000Y-104225000D01*
X159534278Y-104239703D01*
X159532118Y-104254264D01*
X159528541Y-104268543D01*
X159523582Y-104282403D01*
X159517288Y-104295710D01*
X159509720Y-104308336D01*
X159500952Y-104320159D01*
X159491066Y-104331066D01*
X159480159Y-104340952D01*
X159468336Y-104349720D01*
X159455710Y-104357288D01*
X159442403Y-104363582D01*
X159428543Y-104368541D01*
X159414264Y-104372118D01*
X159399703Y-104374278D01*
X159385000Y-104375000D01*
X159085000Y-104375000D01*
X159070297Y-104374278D01*
X159055736Y-104372118D01*
X159041457Y-104368541D01*
X159027597Y-104363582D01*
X159014290Y-104357288D01*
X159001664Y-104349720D01*
X158989841Y-104340952D01*
X158978934Y-104331066D01*
X158969048Y-104320159D01*
X158960280Y-104308336D01*
X158952712Y-104295710D01*
X158946418Y-104282403D01*
X158941459Y-104268543D01*
X158937882Y-104254264D01*
X158935722Y-104239703D01*
X158935000Y-104225000D01*
X158935000Y-102475000D01*
X158935722Y-102460297D01*
X158937882Y-102445736D01*
X158941459Y-102431457D01*
X158946418Y-102417597D01*
X158952712Y-102404290D01*
X158960280Y-102391664D01*
X158969048Y-102379841D01*
X158978934Y-102368934D01*
X158989841Y-102359048D01*
X159001664Y-102350280D01*
X159014290Y-102342712D01*
X159027597Y-102336418D01*
X159041457Y-102331459D01*
X159055736Y-102327882D01*
X159070297Y-102325722D01*
X159085000Y-102325000D01*
X159385000Y-102325000D01*
X159399703Y-102325722D01*
X159399703Y-102325722D01*
G37*
D12*
X159235000Y-103350000D03*
D10*
G36*
X160669703Y-102325722D02*
G01*
X160684264Y-102327882D01*
X160698543Y-102331459D01*
X160712403Y-102336418D01*
X160725710Y-102342712D01*
X160738336Y-102350280D01*
X160750159Y-102359048D01*
X160761066Y-102368934D01*
X160770952Y-102379841D01*
X160779720Y-102391664D01*
X160787288Y-102404290D01*
X160793582Y-102417597D01*
X160798541Y-102431457D01*
X160802118Y-102445736D01*
X160804278Y-102460297D01*
X160805000Y-102475000D01*
X160805000Y-104225000D01*
X160804278Y-104239703D01*
X160802118Y-104254264D01*
X160798541Y-104268543D01*
X160793582Y-104282403D01*
X160787288Y-104295710D01*
X160779720Y-104308336D01*
X160770952Y-104320159D01*
X160761066Y-104331066D01*
X160750159Y-104340952D01*
X160738336Y-104349720D01*
X160725710Y-104357288D01*
X160712403Y-104363582D01*
X160698543Y-104368541D01*
X160684264Y-104372118D01*
X160669703Y-104374278D01*
X160655000Y-104375000D01*
X160355000Y-104375000D01*
X160340297Y-104374278D01*
X160325736Y-104372118D01*
X160311457Y-104368541D01*
X160297597Y-104363582D01*
X160284290Y-104357288D01*
X160271664Y-104349720D01*
X160259841Y-104340952D01*
X160248934Y-104331066D01*
X160239048Y-104320159D01*
X160230280Y-104308336D01*
X160222712Y-104295710D01*
X160216418Y-104282403D01*
X160211459Y-104268543D01*
X160207882Y-104254264D01*
X160205722Y-104239703D01*
X160205000Y-104225000D01*
X160205000Y-102475000D01*
X160205722Y-102460297D01*
X160207882Y-102445736D01*
X160211459Y-102431457D01*
X160216418Y-102417597D01*
X160222712Y-102404290D01*
X160230280Y-102391664D01*
X160239048Y-102379841D01*
X160248934Y-102368934D01*
X160259841Y-102359048D01*
X160271664Y-102350280D01*
X160284290Y-102342712D01*
X160297597Y-102336418D01*
X160311457Y-102331459D01*
X160325736Y-102327882D01*
X160340297Y-102325722D01*
X160355000Y-102325000D01*
X160655000Y-102325000D01*
X160669703Y-102325722D01*
X160669703Y-102325722D01*
G37*
D12*
X160505000Y-103350000D03*
D10*
G36*
X161939703Y-102325722D02*
G01*
X161954264Y-102327882D01*
X161968543Y-102331459D01*
X161982403Y-102336418D01*
X161995710Y-102342712D01*
X162008336Y-102350280D01*
X162020159Y-102359048D01*
X162031066Y-102368934D01*
X162040952Y-102379841D01*
X162049720Y-102391664D01*
X162057288Y-102404290D01*
X162063582Y-102417597D01*
X162068541Y-102431457D01*
X162072118Y-102445736D01*
X162074278Y-102460297D01*
X162075000Y-102475000D01*
X162075000Y-104225000D01*
X162074278Y-104239703D01*
X162072118Y-104254264D01*
X162068541Y-104268543D01*
X162063582Y-104282403D01*
X162057288Y-104295710D01*
X162049720Y-104308336D01*
X162040952Y-104320159D01*
X162031066Y-104331066D01*
X162020159Y-104340952D01*
X162008336Y-104349720D01*
X161995710Y-104357288D01*
X161982403Y-104363582D01*
X161968543Y-104368541D01*
X161954264Y-104372118D01*
X161939703Y-104374278D01*
X161925000Y-104375000D01*
X161625000Y-104375000D01*
X161610297Y-104374278D01*
X161595736Y-104372118D01*
X161581457Y-104368541D01*
X161567597Y-104363582D01*
X161554290Y-104357288D01*
X161541664Y-104349720D01*
X161529841Y-104340952D01*
X161518934Y-104331066D01*
X161509048Y-104320159D01*
X161500280Y-104308336D01*
X161492712Y-104295710D01*
X161486418Y-104282403D01*
X161481459Y-104268543D01*
X161477882Y-104254264D01*
X161475722Y-104239703D01*
X161475000Y-104225000D01*
X161475000Y-102475000D01*
X161475722Y-102460297D01*
X161477882Y-102445736D01*
X161481459Y-102431457D01*
X161486418Y-102417597D01*
X161492712Y-102404290D01*
X161500280Y-102391664D01*
X161509048Y-102379841D01*
X161518934Y-102368934D01*
X161529841Y-102359048D01*
X161541664Y-102350280D01*
X161554290Y-102342712D01*
X161567597Y-102336418D01*
X161581457Y-102331459D01*
X161595736Y-102327882D01*
X161610297Y-102325722D01*
X161625000Y-102325000D01*
X161925000Y-102325000D01*
X161939703Y-102325722D01*
X161939703Y-102325722D01*
G37*
D12*
X161775000Y-103350000D03*
D10*
G36*
X163209703Y-102325722D02*
G01*
X163224264Y-102327882D01*
X163238543Y-102331459D01*
X163252403Y-102336418D01*
X163265710Y-102342712D01*
X163278336Y-102350280D01*
X163290159Y-102359048D01*
X163301066Y-102368934D01*
X163310952Y-102379841D01*
X163319720Y-102391664D01*
X163327288Y-102404290D01*
X163333582Y-102417597D01*
X163338541Y-102431457D01*
X163342118Y-102445736D01*
X163344278Y-102460297D01*
X163345000Y-102475000D01*
X163345000Y-104225000D01*
X163344278Y-104239703D01*
X163342118Y-104254264D01*
X163338541Y-104268543D01*
X163333582Y-104282403D01*
X163327288Y-104295710D01*
X163319720Y-104308336D01*
X163310952Y-104320159D01*
X163301066Y-104331066D01*
X163290159Y-104340952D01*
X163278336Y-104349720D01*
X163265710Y-104357288D01*
X163252403Y-104363582D01*
X163238543Y-104368541D01*
X163224264Y-104372118D01*
X163209703Y-104374278D01*
X163195000Y-104375000D01*
X162895000Y-104375000D01*
X162880297Y-104374278D01*
X162865736Y-104372118D01*
X162851457Y-104368541D01*
X162837597Y-104363582D01*
X162824290Y-104357288D01*
X162811664Y-104349720D01*
X162799841Y-104340952D01*
X162788934Y-104331066D01*
X162779048Y-104320159D01*
X162770280Y-104308336D01*
X162762712Y-104295710D01*
X162756418Y-104282403D01*
X162751459Y-104268543D01*
X162747882Y-104254264D01*
X162745722Y-104239703D01*
X162745000Y-104225000D01*
X162745000Y-102475000D01*
X162745722Y-102460297D01*
X162747882Y-102445736D01*
X162751459Y-102431457D01*
X162756418Y-102417597D01*
X162762712Y-102404290D01*
X162770280Y-102391664D01*
X162779048Y-102379841D01*
X162788934Y-102368934D01*
X162799841Y-102359048D01*
X162811664Y-102350280D01*
X162824290Y-102342712D01*
X162837597Y-102336418D01*
X162851457Y-102331459D01*
X162865736Y-102327882D01*
X162880297Y-102325722D01*
X162895000Y-102325000D01*
X163195000Y-102325000D01*
X163209703Y-102325722D01*
X163209703Y-102325722D01*
G37*
D12*
X163045000Y-103350000D03*
D10*
G36*
X164479703Y-102325722D02*
G01*
X164494264Y-102327882D01*
X164508543Y-102331459D01*
X164522403Y-102336418D01*
X164535710Y-102342712D01*
X164548336Y-102350280D01*
X164560159Y-102359048D01*
X164571066Y-102368934D01*
X164580952Y-102379841D01*
X164589720Y-102391664D01*
X164597288Y-102404290D01*
X164603582Y-102417597D01*
X164608541Y-102431457D01*
X164612118Y-102445736D01*
X164614278Y-102460297D01*
X164615000Y-102475000D01*
X164615000Y-104225000D01*
X164614278Y-104239703D01*
X164612118Y-104254264D01*
X164608541Y-104268543D01*
X164603582Y-104282403D01*
X164597288Y-104295710D01*
X164589720Y-104308336D01*
X164580952Y-104320159D01*
X164571066Y-104331066D01*
X164560159Y-104340952D01*
X164548336Y-104349720D01*
X164535710Y-104357288D01*
X164522403Y-104363582D01*
X164508543Y-104368541D01*
X164494264Y-104372118D01*
X164479703Y-104374278D01*
X164465000Y-104375000D01*
X164165000Y-104375000D01*
X164150297Y-104374278D01*
X164135736Y-104372118D01*
X164121457Y-104368541D01*
X164107597Y-104363582D01*
X164094290Y-104357288D01*
X164081664Y-104349720D01*
X164069841Y-104340952D01*
X164058934Y-104331066D01*
X164049048Y-104320159D01*
X164040280Y-104308336D01*
X164032712Y-104295710D01*
X164026418Y-104282403D01*
X164021459Y-104268543D01*
X164017882Y-104254264D01*
X164015722Y-104239703D01*
X164015000Y-104225000D01*
X164015000Y-102475000D01*
X164015722Y-102460297D01*
X164017882Y-102445736D01*
X164021459Y-102431457D01*
X164026418Y-102417597D01*
X164032712Y-102404290D01*
X164040280Y-102391664D01*
X164049048Y-102379841D01*
X164058934Y-102368934D01*
X164069841Y-102359048D01*
X164081664Y-102350280D01*
X164094290Y-102342712D01*
X164107597Y-102336418D01*
X164121457Y-102331459D01*
X164135736Y-102327882D01*
X164150297Y-102325722D01*
X164165000Y-102325000D01*
X164465000Y-102325000D01*
X164479703Y-102325722D01*
X164479703Y-102325722D01*
G37*
D12*
X164315000Y-103350000D03*
D10*
G36*
X165749703Y-102325722D02*
G01*
X165764264Y-102327882D01*
X165778543Y-102331459D01*
X165792403Y-102336418D01*
X165805710Y-102342712D01*
X165818336Y-102350280D01*
X165830159Y-102359048D01*
X165841066Y-102368934D01*
X165850952Y-102379841D01*
X165859720Y-102391664D01*
X165867288Y-102404290D01*
X165873582Y-102417597D01*
X165878541Y-102431457D01*
X165882118Y-102445736D01*
X165884278Y-102460297D01*
X165885000Y-102475000D01*
X165885000Y-104225000D01*
X165884278Y-104239703D01*
X165882118Y-104254264D01*
X165878541Y-104268543D01*
X165873582Y-104282403D01*
X165867288Y-104295710D01*
X165859720Y-104308336D01*
X165850952Y-104320159D01*
X165841066Y-104331066D01*
X165830159Y-104340952D01*
X165818336Y-104349720D01*
X165805710Y-104357288D01*
X165792403Y-104363582D01*
X165778543Y-104368541D01*
X165764264Y-104372118D01*
X165749703Y-104374278D01*
X165735000Y-104375000D01*
X165435000Y-104375000D01*
X165420297Y-104374278D01*
X165405736Y-104372118D01*
X165391457Y-104368541D01*
X165377597Y-104363582D01*
X165364290Y-104357288D01*
X165351664Y-104349720D01*
X165339841Y-104340952D01*
X165328934Y-104331066D01*
X165319048Y-104320159D01*
X165310280Y-104308336D01*
X165302712Y-104295710D01*
X165296418Y-104282403D01*
X165291459Y-104268543D01*
X165287882Y-104254264D01*
X165285722Y-104239703D01*
X165285000Y-104225000D01*
X165285000Y-102475000D01*
X165285722Y-102460297D01*
X165287882Y-102445736D01*
X165291459Y-102431457D01*
X165296418Y-102417597D01*
X165302712Y-102404290D01*
X165310280Y-102391664D01*
X165319048Y-102379841D01*
X165328934Y-102368934D01*
X165339841Y-102359048D01*
X165351664Y-102350280D01*
X165364290Y-102342712D01*
X165377597Y-102336418D01*
X165391457Y-102331459D01*
X165405736Y-102327882D01*
X165420297Y-102325722D01*
X165435000Y-102325000D01*
X165735000Y-102325000D01*
X165749703Y-102325722D01*
X165749703Y-102325722D01*
G37*
D12*
X165585000Y-103350000D03*
D10*
G36*
X167019703Y-102325722D02*
G01*
X167034264Y-102327882D01*
X167048543Y-102331459D01*
X167062403Y-102336418D01*
X167075710Y-102342712D01*
X167088336Y-102350280D01*
X167100159Y-102359048D01*
X167111066Y-102368934D01*
X167120952Y-102379841D01*
X167129720Y-102391664D01*
X167137288Y-102404290D01*
X167143582Y-102417597D01*
X167148541Y-102431457D01*
X167152118Y-102445736D01*
X167154278Y-102460297D01*
X167155000Y-102475000D01*
X167155000Y-104225000D01*
X167154278Y-104239703D01*
X167152118Y-104254264D01*
X167148541Y-104268543D01*
X167143582Y-104282403D01*
X167137288Y-104295710D01*
X167129720Y-104308336D01*
X167120952Y-104320159D01*
X167111066Y-104331066D01*
X167100159Y-104340952D01*
X167088336Y-104349720D01*
X167075710Y-104357288D01*
X167062403Y-104363582D01*
X167048543Y-104368541D01*
X167034264Y-104372118D01*
X167019703Y-104374278D01*
X167005000Y-104375000D01*
X166705000Y-104375000D01*
X166690297Y-104374278D01*
X166675736Y-104372118D01*
X166661457Y-104368541D01*
X166647597Y-104363582D01*
X166634290Y-104357288D01*
X166621664Y-104349720D01*
X166609841Y-104340952D01*
X166598934Y-104331066D01*
X166589048Y-104320159D01*
X166580280Y-104308336D01*
X166572712Y-104295710D01*
X166566418Y-104282403D01*
X166561459Y-104268543D01*
X166557882Y-104254264D01*
X166555722Y-104239703D01*
X166555000Y-104225000D01*
X166555000Y-102475000D01*
X166555722Y-102460297D01*
X166557882Y-102445736D01*
X166561459Y-102431457D01*
X166566418Y-102417597D01*
X166572712Y-102404290D01*
X166580280Y-102391664D01*
X166589048Y-102379841D01*
X166598934Y-102368934D01*
X166609841Y-102359048D01*
X166621664Y-102350280D01*
X166634290Y-102342712D01*
X166647597Y-102336418D01*
X166661457Y-102331459D01*
X166675736Y-102327882D01*
X166690297Y-102325722D01*
X166705000Y-102325000D01*
X167005000Y-102325000D01*
X167019703Y-102325722D01*
X167019703Y-102325722D01*
G37*
D12*
X166855000Y-103350000D03*
M02*
