G04 #@! TF.GenerationSoftware,KiCad,Pcbnew,5.1.4+dfsg1-1*
G04 #@! TF.CreationDate,2019-10-28T17:39:09+02:00*
G04 #@! TF.ProjectId,backplane,6261636b-706c-4616-9e65-2e6b69636164,rev?*
G04 #@! TF.SameCoordinates,Original*
G04 #@! TF.FileFunction,Legend,Bot*
G04 #@! TF.FilePolarity,Positive*
%FSLAX46Y46*%
G04 Gerber Fmt 4.6, Leading zero omitted, Abs format (unit mm)*
G04 Created by KiCad (PCBNEW 5.1.4+dfsg1-1) date 2019-10-28 17:39:09*
%MOMM*%
%LPD*%
G04 APERTURE LIST*
%ADD10C,0.150000*%
%ADD11C,0.120000*%
G04 APERTURE END LIST*
D10*
X116608000Y-85676000D02*
G75*
G03X116608000Y-85676000I-1524000J0D01*
G01*
X139468000Y-85676000D02*
G75*
G03X139468000Y-85676000I-1524000J0D01*
G01*
D11*
X132864000Y-86244000D02*
X132864000Y-83584000D01*
X132864000Y-83584000D02*
X117564000Y-83584000D01*
X132864000Y-86244000D02*
X117564000Y-86244000D01*
X117564000Y-86244000D02*
X117564000Y-83584000D01*
X135464000Y-86244000D02*
X135464000Y-84914000D01*
X134134000Y-86244000D02*
X135464000Y-86244000D01*
X126514000Y-114184000D02*
X123914000Y-114184000D01*
X129114000Y-114184000D02*
X129114000Y-112854000D01*
X126514000Y-111524000D02*
X123914000Y-111524000D01*
X126514000Y-114184000D02*
X126514000Y-111524000D01*
X127784000Y-114184000D02*
X129114000Y-114184000D01*
X123914000Y-114184000D02*
X123914000Y-111524000D01*
X116160000Y-114124000D02*
X116160000Y-116724000D01*
X116160000Y-111524000D02*
X114830000Y-111524000D01*
X113500000Y-114124000D02*
X113500000Y-116724000D01*
X116160000Y-114124000D02*
X113500000Y-114124000D01*
X116160000Y-112854000D02*
X116160000Y-111524000D01*
X116160000Y-116724000D02*
X113500000Y-116724000D01*
X140230000Y-83390000D02*
X112798000Y-83390000D01*
X112798000Y-117934000D02*
X140230000Y-117934000D01*
X140230000Y-117934000D02*
X140230000Y-83390000D01*
X112798000Y-117934000D02*
X112798000Y-83390000D01*
X157410000Y-76971267D02*
X157410000Y-76628733D01*
X156390000Y-76971267D02*
X156390000Y-76628733D01*
X160028733Y-71610000D02*
X160371267Y-71610000D01*
X160028733Y-70590000D02*
X160371267Y-70590000D01*
X117370000Y-89396267D02*
X117370000Y-89053733D01*
X118390000Y-89396267D02*
X118390000Y-89053733D01*
X116950000Y-90686267D02*
X116950000Y-90343733D01*
X115930000Y-90686267D02*
X115930000Y-90343733D01*
X102328733Y-113590000D02*
X102671267Y-113590000D01*
X102328733Y-114610000D02*
X102671267Y-114610000D01*
X98096267Y-113590000D02*
X97753733Y-113590000D01*
X98096267Y-114610000D02*
X97753733Y-114610000D01*
X95135000Y-90696267D02*
X95135000Y-90353733D01*
X94115000Y-90696267D02*
X94115000Y-90353733D01*
X93585000Y-88428733D02*
X93585000Y-88771267D01*
X92565000Y-88428733D02*
X92565000Y-88771267D01*
X122471267Y-87460000D02*
X122128733Y-87460000D01*
X122471267Y-86440000D02*
X122128733Y-86440000D01*
X125328733Y-86440000D02*
X125671267Y-86440000D01*
X125328733Y-87460000D02*
X125671267Y-87460000D01*
X149540000Y-108000000D02*
X149540000Y-104140000D01*
X149540000Y-104140000D02*
X149785000Y-104140000D01*
X149540000Y-108000000D02*
X149540000Y-111860000D01*
X149540000Y-111860000D02*
X149785000Y-111860000D01*
X167660000Y-108000000D02*
X167660000Y-104140000D01*
X167660000Y-104140000D02*
X167415000Y-104140000D01*
X167660000Y-108000000D02*
X167660000Y-111860000D01*
X167660000Y-111860000D02*
X167415000Y-111860000D01*
X167415000Y-111860000D02*
X167415000Y-113675000D01*
D10*
X110472380Y-103329095D02*
X111281904Y-103329095D01*
X111377142Y-103376714D01*
X111424761Y-103424333D01*
X111472380Y-103519571D01*
X111472380Y-103710047D01*
X111424761Y-103805285D01*
X111377142Y-103852904D01*
X111281904Y-103900523D01*
X110472380Y-103900523D01*
X110472380Y-104852904D02*
X110472380Y-104376714D01*
X110948571Y-104329095D01*
X110900952Y-104376714D01*
X110853333Y-104471952D01*
X110853333Y-104710047D01*
X110900952Y-104805285D01*
X110948571Y-104852904D01*
X111043809Y-104900523D01*
X111281904Y-104900523D01*
X111377142Y-104852904D01*
X111424761Y-104805285D01*
X111472380Y-104710047D01*
X111472380Y-104471952D01*
X111424761Y-104376714D01*
X111377142Y-104329095D01*
X117330380Y-110163666D02*
X118330380Y-110401761D01*
X117616095Y-110592238D01*
X118330380Y-110782714D01*
X117330380Y-111020809D01*
X118044666Y-111354142D02*
X118044666Y-111830333D01*
X118330380Y-111258904D02*
X117330380Y-111592238D01*
X118330380Y-111925571D01*
X117330380Y-112116047D02*
X118330380Y-112449380D01*
X117330380Y-112782714D01*
X117378000Y-113639857D02*
X117330380Y-113544619D01*
X117330380Y-113401761D01*
X117378000Y-113258904D01*
X117473238Y-113163666D01*
X117568476Y-113116047D01*
X117758952Y-113068428D01*
X117901809Y-113068428D01*
X118092285Y-113116047D01*
X118187523Y-113163666D01*
X118282761Y-113258904D01*
X118330380Y-113401761D01*
X118330380Y-113497000D01*
X118282761Y-113639857D01*
X118235142Y-113687476D01*
X117901809Y-113687476D01*
X117901809Y-113497000D01*
X118044666Y-114068428D02*
X118044666Y-114544619D01*
X118330380Y-113973190D02*
X117330380Y-114306523D01*
X118330380Y-114639857D01*
X117330380Y-114830333D02*
X117330380Y-115401761D01*
X118330380Y-115116047D02*
X117330380Y-115116047D01*
X118425619Y-115497000D02*
X118425619Y-116258904D01*
X117330380Y-116782714D02*
X118044666Y-116782714D01*
X118187523Y-116735095D01*
X118282761Y-116639857D01*
X118330380Y-116497000D01*
X118330380Y-116401761D01*
X118330380Y-117782714D02*
X118330380Y-117211285D01*
X118330380Y-117497000D02*
X117330380Y-117497000D01*
X117473238Y-117401761D01*
X117568476Y-117306523D01*
X117616095Y-117211285D01*
X130347333Y-109258380D02*
X130109238Y-110258380D01*
X129918761Y-109544095D01*
X129728285Y-110258380D01*
X129490190Y-109258380D01*
X129156857Y-109972666D02*
X128680666Y-109972666D01*
X129252095Y-110258380D02*
X128918761Y-109258380D01*
X128585428Y-110258380D01*
X128394952Y-109258380D02*
X128061619Y-110258380D01*
X127728285Y-109258380D01*
X126871142Y-109306000D02*
X126966380Y-109258380D01*
X127109238Y-109258380D01*
X127252095Y-109306000D01*
X127347333Y-109401238D01*
X127394952Y-109496476D01*
X127442571Y-109686952D01*
X127442571Y-109829809D01*
X127394952Y-110020285D01*
X127347333Y-110115523D01*
X127252095Y-110210761D01*
X127109238Y-110258380D01*
X127014000Y-110258380D01*
X126871142Y-110210761D01*
X126823523Y-110163142D01*
X126823523Y-109829809D01*
X127014000Y-109829809D01*
X126442571Y-109972666D02*
X125966380Y-109972666D01*
X126537809Y-110258380D02*
X126204476Y-109258380D01*
X125871142Y-110258380D01*
X125680666Y-109258380D02*
X125109238Y-109258380D01*
X125394952Y-110258380D02*
X125394952Y-109258380D01*
X125014000Y-110353619D02*
X124252095Y-110353619D01*
X123728285Y-109258380D02*
X123728285Y-109972666D01*
X123775904Y-110115523D01*
X123871142Y-110210761D01*
X124014000Y-110258380D01*
X124109238Y-110258380D01*
X123347333Y-109258380D02*
X122728285Y-109258380D01*
X123061619Y-109639333D01*
X122918761Y-109639333D01*
X122823523Y-109686952D01*
X122775904Y-109734571D01*
X122728285Y-109829809D01*
X122728285Y-110067904D01*
X122775904Y-110163142D01*
X122823523Y-110210761D01*
X122918761Y-110258380D01*
X123204476Y-110258380D01*
X123299714Y-110210761D01*
X123347333Y-110163142D01*
X126733333Y-82052380D02*
X126495238Y-83052380D01*
X126304761Y-82338095D01*
X126114285Y-83052380D01*
X125876190Y-82052380D01*
X125542857Y-82766666D02*
X125066666Y-82766666D01*
X125638095Y-83052380D02*
X125304761Y-82052380D01*
X124971428Y-83052380D01*
X124780952Y-82052380D02*
X124447619Y-83052380D01*
X124114285Y-82052380D01*
X123257142Y-82100000D02*
X123352380Y-82052380D01*
X123495238Y-82052380D01*
X123638095Y-82100000D01*
X123733333Y-82195238D01*
X123780952Y-82290476D01*
X123828571Y-82480952D01*
X123828571Y-82623809D01*
X123780952Y-82814285D01*
X123733333Y-82909523D01*
X123638095Y-83004761D01*
X123495238Y-83052380D01*
X123400000Y-83052380D01*
X123257142Y-83004761D01*
X123209523Y-82957142D01*
X123209523Y-82623809D01*
X123400000Y-82623809D01*
X122828571Y-82766666D02*
X122352380Y-82766666D01*
X122923809Y-83052380D02*
X122590476Y-82052380D01*
X122257142Y-83052380D01*
X122066666Y-82052380D02*
X121495238Y-82052380D01*
X121780952Y-83052380D02*
X121780952Y-82052380D01*
X121400000Y-83147619D02*
X120638095Y-83147619D01*
X120114285Y-82052380D02*
X120114285Y-82766666D01*
X120161904Y-82909523D01*
X120257142Y-83004761D01*
X120400000Y-83052380D01*
X120495238Y-83052380D01*
X119209523Y-82385714D02*
X119209523Y-83052380D01*
X119447619Y-82004761D02*
X119685714Y-82719047D01*
X119066666Y-82719047D01*
X158782380Y-76633333D02*
X158306190Y-76300000D01*
X158782380Y-76061904D02*
X157782380Y-76061904D01*
X157782380Y-76442857D01*
X157830000Y-76538095D01*
X157877619Y-76585714D01*
X157972857Y-76633333D01*
X158115714Y-76633333D01*
X158210952Y-76585714D01*
X158258571Y-76538095D01*
X158306190Y-76442857D01*
X158306190Y-76061904D01*
X158782380Y-77585714D02*
X158782380Y-77014285D01*
X158782380Y-77300000D02*
X157782380Y-77300000D01*
X157925238Y-77204761D01*
X158020476Y-77109523D01*
X158068095Y-77014285D01*
X160366666Y-72982380D02*
X160700000Y-72506190D01*
X160938095Y-72982380D02*
X160938095Y-71982380D01*
X160557142Y-71982380D01*
X160461904Y-72030000D01*
X160414285Y-72077619D01*
X160366666Y-72172857D01*
X160366666Y-72315714D01*
X160414285Y-72410952D01*
X160461904Y-72458571D01*
X160557142Y-72506190D01*
X160938095Y-72506190D01*
X160033333Y-71982380D02*
X159414285Y-71982380D01*
X159747619Y-72363333D01*
X159604761Y-72363333D01*
X159509523Y-72410952D01*
X159461904Y-72458571D01*
X159414285Y-72553809D01*
X159414285Y-72791904D01*
X159461904Y-72887142D01*
X159509523Y-72934761D01*
X159604761Y-72982380D01*
X159890476Y-72982380D01*
X159985714Y-72934761D01*
X160033333Y-72887142D01*
X119852380Y-89433333D02*
X119376190Y-89100000D01*
X119852380Y-88861904D02*
X118852380Y-88861904D01*
X118852380Y-89242857D01*
X118900000Y-89338095D01*
X118947619Y-89385714D01*
X119042857Y-89433333D01*
X119185714Y-89433333D01*
X119280952Y-89385714D01*
X119328571Y-89338095D01*
X119376190Y-89242857D01*
X119376190Y-88861904D01*
X118852380Y-90290476D02*
X118852380Y-90100000D01*
X118900000Y-90004761D01*
X118947619Y-89957142D01*
X119090476Y-89861904D01*
X119280952Y-89814285D01*
X119661904Y-89814285D01*
X119757142Y-89861904D01*
X119804761Y-89909523D01*
X119852380Y-90004761D01*
X119852380Y-90195238D01*
X119804761Y-90290476D01*
X119757142Y-90338095D01*
X119661904Y-90385714D01*
X119423809Y-90385714D01*
X119328571Y-90338095D01*
X119280952Y-90290476D01*
X119233333Y-90195238D01*
X119233333Y-90004761D01*
X119280952Y-89909523D01*
X119328571Y-89861904D01*
X119423809Y-89814285D01*
X118452380Y-92033333D02*
X117976190Y-91700000D01*
X118452380Y-91461904D02*
X117452380Y-91461904D01*
X117452380Y-91842857D01*
X117500000Y-91938095D01*
X117547619Y-91985714D01*
X117642857Y-92033333D01*
X117785714Y-92033333D01*
X117880952Y-91985714D01*
X117928571Y-91938095D01*
X117976190Y-91842857D01*
X117976190Y-91461904D01*
X117452380Y-92366666D02*
X117452380Y-93033333D01*
X118452380Y-92604761D01*
X101666666Y-115982380D02*
X102000000Y-115506190D01*
X102238095Y-115982380D02*
X102238095Y-114982380D01*
X101857142Y-114982380D01*
X101761904Y-115030000D01*
X101714285Y-115077619D01*
X101666666Y-115172857D01*
X101666666Y-115315714D01*
X101714285Y-115410952D01*
X101761904Y-115458571D01*
X101857142Y-115506190D01*
X102238095Y-115506190D01*
X101095238Y-115410952D02*
X101190476Y-115363333D01*
X101238095Y-115315714D01*
X101285714Y-115220476D01*
X101285714Y-115172857D01*
X101238095Y-115077619D01*
X101190476Y-115030000D01*
X101095238Y-114982380D01*
X100904761Y-114982380D01*
X100809523Y-115030000D01*
X100761904Y-115077619D01*
X100714285Y-115172857D01*
X100714285Y-115220476D01*
X100761904Y-115315714D01*
X100809523Y-115363333D01*
X100904761Y-115410952D01*
X101095238Y-115410952D01*
X101190476Y-115458571D01*
X101238095Y-115506190D01*
X101285714Y-115601428D01*
X101285714Y-115791904D01*
X101238095Y-115887142D01*
X101190476Y-115934761D01*
X101095238Y-115982380D01*
X100904761Y-115982380D01*
X100809523Y-115934761D01*
X100761904Y-115887142D01*
X100714285Y-115791904D01*
X100714285Y-115601428D01*
X100761904Y-115506190D01*
X100809523Y-115458571D01*
X100904761Y-115410952D01*
X98091666Y-113122380D02*
X98425000Y-112646190D01*
X98663095Y-113122380D02*
X98663095Y-112122380D01*
X98282142Y-112122380D01*
X98186904Y-112170000D01*
X98139285Y-112217619D01*
X98091666Y-112312857D01*
X98091666Y-112455714D01*
X98139285Y-112550952D01*
X98186904Y-112598571D01*
X98282142Y-112646190D01*
X98663095Y-112646190D01*
X97615476Y-113122380D02*
X97425000Y-113122380D01*
X97329761Y-113074761D01*
X97282142Y-113027142D01*
X97186904Y-112884285D01*
X97139285Y-112693809D01*
X97139285Y-112312857D01*
X97186904Y-112217619D01*
X97234523Y-112170000D01*
X97329761Y-112122380D01*
X97520238Y-112122380D01*
X97615476Y-112170000D01*
X97663095Y-112217619D01*
X97710714Y-112312857D01*
X97710714Y-112550952D01*
X97663095Y-112646190D01*
X97615476Y-112693809D01*
X97520238Y-112741428D01*
X97329761Y-112741428D01*
X97234523Y-112693809D01*
X97186904Y-112646190D01*
X97139285Y-112550952D01*
X96507380Y-89882142D02*
X96031190Y-89548809D01*
X96507380Y-89310714D02*
X95507380Y-89310714D01*
X95507380Y-89691666D01*
X95555000Y-89786904D01*
X95602619Y-89834523D01*
X95697857Y-89882142D01*
X95840714Y-89882142D01*
X95935952Y-89834523D01*
X95983571Y-89786904D01*
X96031190Y-89691666D01*
X96031190Y-89310714D01*
X96507380Y-90834523D02*
X96507380Y-90263095D01*
X96507380Y-90548809D02*
X95507380Y-90548809D01*
X95650238Y-90453571D01*
X95745476Y-90358333D01*
X95793095Y-90263095D01*
X95507380Y-91167857D02*
X95507380Y-91786904D01*
X95888333Y-91453571D01*
X95888333Y-91596428D01*
X95935952Y-91691666D01*
X95983571Y-91739285D01*
X96078809Y-91786904D01*
X96316904Y-91786904D01*
X96412142Y-91739285D01*
X96459761Y-91691666D01*
X96507380Y-91596428D01*
X96507380Y-91310714D01*
X96459761Y-91215476D01*
X96412142Y-91167857D01*
X92097380Y-87957142D02*
X91621190Y-87623809D01*
X92097380Y-87385714D02*
X91097380Y-87385714D01*
X91097380Y-87766666D01*
X91145000Y-87861904D01*
X91192619Y-87909523D01*
X91287857Y-87957142D01*
X91430714Y-87957142D01*
X91525952Y-87909523D01*
X91573571Y-87861904D01*
X91621190Y-87766666D01*
X91621190Y-87385714D01*
X92097380Y-88909523D02*
X92097380Y-88338095D01*
X92097380Y-88623809D02*
X91097380Y-88623809D01*
X91240238Y-88528571D01*
X91335476Y-88433333D01*
X91383095Y-88338095D01*
X91430714Y-89766666D02*
X92097380Y-89766666D01*
X91049761Y-89528571D02*
X91764047Y-89290476D01*
X91764047Y-89909523D01*
X122142857Y-88752380D02*
X122476190Y-88276190D01*
X122714285Y-88752380D02*
X122714285Y-87752380D01*
X122333333Y-87752380D01*
X122238095Y-87800000D01*
X122190476Y-87847619D01*
X122142857Y-87942857D01*
X122142857Y-88085714D01*
X122190476Y-88180952D01*
X122238095Y-88228571D01*
X122333333Y-88276190D01*
X122714285Y-88276190D01*
X121761904Y-87847619D02*
X121714285Y-87800000D01*
X121619047Y-87752380D01*
X121380952Y-87752380D01*
X121285714Y-87800000D01*
X121238095Y-87847619D01*
X121190476Y-87942857D01*
X121190476Y-88038095D01*
X121238095Y-88180952D01*
X121809523Y-88752380D01*
X121190476Y-88752380D01*
X120714285Y-88752380D02*
X120523809Y-88752380D01*
X120428571Y-88704761D01*
X120380952Y-88657142D01*
X120285714Y-88514285D01*
X120238095Y-88323809D01*
X120238095Y-87942857D01*
X120285714Y-87847619D01*
X120333333Y-87800000D01*
X120428571Y-87752380D01*
X120619047Y-87752380D01*
X120714285Y-87800000D01*
X120761904Y-87847619D01*
X120809523Y-87942857D01*
X120809523Y-88180952D01*
X120761904Y-88276190D01*
X120714285Y-88323809D01*
X120619047Y-88371428D01*
X120428571Y-88371428D01*
X120333333Y-88323809D01*
X120285714Y-88276190D01*
X120238095Y-88180952D01*
X126142857Y-88832380D02*
X126476190Y-88356190D01*
X126714285Y-88832380D02*
X126714285Y-87832380D01*
X126333333Y-87832380D01*
X126238095Y-87880000D01*
X126190476Y-87927619D01*
X126142857Y-88022857D01*
X126142857Y-88165714D01*
X126190476Y-88260952D01*
X126238095Y-88308571D01*
X126333333Y-88356190D01*
X126714285Y-88356190D01*
X125809523Y-87832380D02*
X125190476Y-87832380D01*
X125523809Y-88213333D01*
X125380952Y-88213333D01*
X125285714Y-88260952D01*
X125238095Y-88308571D01*
X125190476Y-88403809D01*
X125190476Y-88641904D01*
X125238095Y-88737142D01*
X125285714Y-88784761D01*
X125380952Y-88832380D01*
X125666666Y-88832380D01*
X125761904Y-88784761D01*
X125809523Y-88737142D01*
X124571428Y-87832380D02*
X124476190Y-87832380D01*
X124380952Y-87880000D01*
X124333333Y-87927619D01*
X124285714Y-88022857D01*
X124238095Y-88213333D01*
X124238095Y-88451428D01*
X124285714Y-88641904D01*
X124333333Y-88737142D01*
X124380952Y-88784761D01*
X124476190Y-88832380D01*
X124571428Y-88832380D01*
X124666666Y-88784761D01*
X124714285Y-88737142D01*
X124761904Y-88641904D01*
X124809523Y-88451428D01*
X124809523Y-88213333D01*
X124761904Y-88022857D01*
X124714285Y-87927619D01*
X124666666Y-87880000D01*
X124571428Y-87832380D01*
X167952380Y-107238095D02*
X168761904Y-107238095D01*
X168857142Y-107285714D01*
X168904761Y-107333333D01*
X168952380Y-107428571D01*
X168952380Y-107619047D01*
X168904761Y-107714285D01*
X168857142Y-107761904D01*
X168761904Y-107809523D01*
X167952380Y-107809523D01*
X168285714Y-108714285D02*
X168952380Y-108714285D01*
X167904761Y-108476190D02*
X168619047Y-108238095D01*
X168619047Y-108857142D01*
M02*
