M48
; DRILL file {KiCad 5.1.4+dfsg1-1} date Mon 28 Oct 2019 05:39:05 PM EET
; FORMAT={-:-/ absolute / inch / decimal}
; #@! TF.CreationDate,2019-10-28T17:39:05+02:00
; #@! TF.GenerationSoftware,Kicad,Pcbnew,5.1.4+dfsg1-1
; #@! TF.FileFunction,Plated,1,2,PTH
FMAT,2
INCH
T1C0.0157
T2C0.0236
T3C0.0315
T4C0.0350
T5C0.0354
T6C0.0394
T7C0.0400
T8C0.0650
%
G90
G05
T1
X3.3307Y-2.937
X3.5039Y-3.9685
X3.6063Y-3.315
X3.7078Y-3.2248
X3.7362Y-3.1693
X3.7372Y-3.251
X3.8425Y-3.0591
X4.0067Y-3.5335
X4.0075Y-3.4677
X4.8346Y-3.1969
X4.8465Y-3.9709
X4.898Y-3.111
X4.9978Y-3.1425
X5.0217Y-3.9709
X5.0315Y-3.248
X5.0709Y-3.1752
X5.1039Y-3.0961
X5.1417Y-3.0354
X5.1516Y-3.2136
X5.2254Y-3.2136
X5.2598Y-3.2598
X5.3583Y-3.563
X5.3819Y-3.5945
X5.4213Y-3.1693
X5.622Y-3.9695
X5.6582Y-3.985
X5.6585Y-3.5502
X5.6585Y-3.6191
X5.8563Y-4.1289
X5.9429Y-4.1319
X6.0177Y-4.1339
X6.0689Y-4.2264
X6.1673Y-3.9695
X6.1693Y-4.3701
X6.2087Y-2.7953
X6.2195Y-4.1427
X6.2201Y-2.9137
X6.2605Y-2.8734
X6.2606Y-3.6272
X6.2638Y-2.9961
X6.2687Y-4.1407
X6.3102Y-3.628
X6.3228Y-2.9094
X6.3268Y-2.8661
X6.3701Y-3.5189
X6.4189Y-3.998
X6.4189Y-4.1394
X6.4394Y-3.8449
X6.44Y-3.94
X6.478Y-4.1309
X6.4996Y-3.8449
X6.81Y-3.5
X6.9528Y-2.8898
T2
X3.402Y-3.4846
X3.4499Y-3.5256
X3.5673Y-3.7913
X3.6386Y-3.8945
X3.8504Y-4.2874
X3.9567Y-4.2874
X5.7323Y-4.3622
X5.8268Y-4.315
X5.9528Y-4.311
X6.0591Y-4.3425
X6.3976Y-4.2402
T3
X3.8094Y-3.6945
X4.063Y-3.7913
X5.4341Y-3.6319
X5.435Y-3.7933
X6.1102Y-3.626
X6.1102Y-3.7913
T4
X3.7559Y-4.1811
X3.8059Y-4.0811
X3.8559Y-4.1811
X3.9059Y-4.0811
X3.9559Y-4.1811
X4.0059Y-4.0811
X4.0559Y-4.1811
X4.1059Y-4.0811
X6.1106Y-3.38
X6.1606Y-3.28
X6.2106Y-3.38
X6.2606Y-3.28
X6.3106Y-3.38
X6.3606Y-3.28
X6.4106Y-3.38
X6.4606Y-3.28
T5
X6.7307Y-3.7913
T6
X5.9654Y-4.626
X6.0654Y-4.626
X6.1654Y-4.626
X6.2654Y-4.626
X6.3654Y-4.626
X6.4654Y-4.626
X6.5654Y-4.626
X6.6654Y-4.626
X5.7843Y-2.8413
X5.7843Y-2.9413
X5.7843Y-3.0413
X5.7843Y-3.1413
X6.9134Y-3.2913
X6.9134Y-3.3913
X6.9134Y-3.4913
X6.9134Y-3.5913
X6.9134Y-3.6913
X6.9134Y-3.7913
X6.9134Y-3.8913
X6.9134Y-3.9913
X6.9134Y-4.0913
X6.9134Y-4.1913
X7.0134Y-3.2913
X7.0134Y-3.3913
X7.0134Y-3.4913
X7.0134Y-3.5913
X7.0134Y-3.6913
X7.0134Y-3.7913
X7.0134Y-3.8913
X7.0134Y-3.9913
X7.0134Y-4.0913
X7.0134Y-4.1913
X3.2205Y-3.2945
X3.2205Y-3.3945
X3.2205Y-3.4945
X3.2205Y-3.5945
X3.2205Y-3.6945
X3.2205Y-3.7945
X3.2205Y-3.8945
X3.2205Y-3.9945
X3.2205Y-4.0945
X3.2205Y-4.1945
X3.3205Y-3.2945
X3.3205Y-3.3945
X3.3205Y-3.4945
X3.3205Y-3.5945
X3.3205Y-3.6945
X3.3205Y-3.7945
X3.3205Y-3.8945
X3.3205Y-3.9945
X3.3205Y-4.0945
X3.3205Y-4.1945
X3.59Y-2.84
X3.59Y-2.94
X3.69Y-2.84
X3.69Y-2.94
X3.79Y-2.84
X3.79Y-2.94
X3.89Y-2.84
X3.89Y-2.94
X3.99Y-2.84
X3.99Y-2.94
X4.09Y-2.84
X4.09Y-2.94
X4.19Y-2.84
X4.19Y-2.94
X4.29Y-2.84
X4.29Y-2.94
X4.39Y-2.84
X4.39Y-2.94
X4.49Y-2.84
X4.49Y-2.94
X4.59Y-2.84
X4.59Y-2.94
X4.69Y-2.84
X4.69Y-2.94
X4.79Y-2.84
X4.79Y-2.94
X4.89Y-2.84
X4.89Y-2.94
X4.99Y-2.84
X4.99Y-2.94
X5.09Y-2.84
X5.09Y-2.94
X5.19Y-2.84
X5.19Y-2.94
X5.29Y-2.84
X5.29Y-2.94
X5.39Y-2.84
X5.39Y-2.94
X5.49Y-2.84
X5.49Y-2.94
X4.5209Y-4.4431
X4.5209Y-4.5431
X4.6809Y-3.3431
X4.7809Y-3.3431
X4.8809Y-3.3431
X4.9309Y-4.4431
X4.9809Y-3.3431
X5.0309Y-4.4431
X5.0809Y-3.3431
X5.1809Y-3.3431
X5.2809Y-3.3431
T7
X3.6819Y-4.5931
X3.7809Y-4.5931
X4.0799Y-4.5931
X4.1789Y-4.5931
X6.0376Y-2.868
X6.1366Y-2.868
X6.4356Y-2.868
X6.5346Y-2.868
T8
X3.6209Y-4.2781
X4.2409Y-4.2781
X5.9756Y-3.183
X6.5956Y-3.183
T0
M30
