G04 #@! TF.GenerationSoftware,KiCad,Pcbnew,5.1.4+dfsg1-1*
G04 #@! TF.CreationDate,2019-10-28T17:39:09+02:00*
G04 #@! TF.ProjectId,backplane,6261636b-706c-4616-9e65-2e6b69636164,rev?*
G04 #@! TF.SameCoordinates,Original*
G04 #@! TF.FileFunction,Legend,Top*
G04 #@! TF.FilePolarity,Positive*
%FSLAX46Y46*%
G04 Gerber Fmt 4.6, Leading zero omitted, Abs format (unit mm)*
G04 Created by KiCad (PCBNEW 5.1.4+dfsg1-1) date 2019-10-28 17:39:09*
%MOMM*%
%LPD*%
G04 APERTURE LIST*
%ADD10C,0.120000*%
%ADD11C,0.150000*%
G04 APERTURE END LIST*
D10*
X97090000Y-79671267D02*
X97090000Y-79328733D01*
X98110000Y-79671267D02*
X98110000Y-79328733D01*
X155703733Y-107840000D02*
X156046267Y-107840000D01*
X155703733Y-108860000D02*
X156046267Y-108860000D01*
X84072000Y-76282733D02*
X84072000Y-76625267D01*
X85092000Y-76282733D02*
X85092000Y-76625267D01*
X156046267Y-110410000D02*
X155703733Y-110410000D01*
X156046267Y-109390000D02*
X155703733Y-109390000D01*
X92110000Y-81946267D02*
X92110000Y-81603733D01*
X91090000Y-81946267D02*
X91090000Y-81603733D01*
X132428733Y-78060000D02*
X132771267Y-78060000D01*
X132428733Y-77040000D02*
X132771267Y-77040000D01*
X136878733Y-78915000D02*
X137221267Y-78915000D01*
X136878733Y-79935000D02*
X137221267Y-79935000D01*
X123503733Y-82985000D02*
X123846267Y-82985000D01*
X123503733Y-81965000D02*
X123846267Y-81965000D01*
X131428733Y-82115000D02*
X131771267Y-82115000D01*
X131428733Y-83135000D02*
X131771267Y-83135000D01*
X178056000Y-75012733D02*
X178056000Y-75355267D01*
X177036000Y-75012733D02*
X177036000Y-75355267D01*
X87545000Y-75750000D02*
X87545000Y-78210000D01*
X87545000Y-78210000D02*
X89015000Y-78210000D01*
X89015000Y-78210000D02*
X89015000Y-75750000D01*
X168050000Y-70012000D02*
X151250000Y-70012000D01*
X168050000Y-70112000D02*
X168050000Y-79412000D01*
X168050000Y-87612000D02*
X151250000Y-87612000D01*
X151250000Y-87612000D02*
X151250000Y-82312000D01*
X168050000Y-87612000D02*
X168050000Y-82312000D01*
X151250000Y-70012000D02*
X151250000Y-79412000D01*
X168100000Y-83312000D02*
X168600000Y-83812000D01*
X168600000Y-83812000D02*
X168600000Y-82812000D01*
X168600000Y-82812000D02*
X168100000Y-83312000D01*
X90900000Y-106700000D02*
X91400000Y-106200000D01*
X90900000Y-105700000D02*
X90900000Y-106700000D01*
X91400000Y-106200000D02*
X90900000Y-105700000D01*
X108250000Y-119500000D02*
X108250000Y-110100000D01*
X91450000Y-101900000D02*
X91450000Y-107200000D01*
X108250000Y-101900000D02*
X108250000Y-107200000D01*
X91450000Y-101900000D02*
X108250000Y-101900000D01*
X91450000Y-119400000D02*
X91450000Y-110100000D01*
X91450000Y-119500000D02*
X108250000Y-119500000D01*
X140776000Y-76006000D02*
X140776000Y-70806000D01*
X92456000Y-76006000D02*
X140776000Y-76006000D01*
X89856000Y-70806000D02*
X140776000Y-70806000D01*
X92456000Y-76006000D02*
X92456000Y-73406000D01*
X92456000Y-73406000D02*
X89856000Y-73406000D01*
X89856000Y-73406000D02*
X89856000Y-70806000D01*
X91186000Y-76006000D02*
X89856000Y-76006000D01*
X89856000Y-76006000D02*
X89856000Y-74676000D01*
X80470000Y-82350000D02*
X81800000Y-82350000D01*
X80470000Y-83680000D02*
X80470000Y-82350000D01*
X83070000Y-82350000D02*
X85670000Y-82350000D01*
X83070000Y-84950000D02*
X83070000Y-82350000D01*
X80470000Y-84950000D02*
X83070000Y-84950000D01*
X85670000Y-82350000D02*
X85670000Y-107870000D01*
X80470000Y-84950000D02*
X80470000Y-107870000D01*
X80470000Y-107870000D02*
X85670000Y-107870000D01*
X174270000Y-107790000D02*
X179470000Y-107790000D01*
X174270000Y-84870000D02*
X174270000Y-107790000D01*
X179470000Y-82270000D02*
X179470000Y-107790000D01*
X174270000Y-84870000D02*
X176870000Y-84870000D01*
X176870000Y-84870000D02*
X176870000Y-82270000D01*
X176870000Y-82270000D02*
X179470000Y-82270000D01*
X174270000Y-83600000D02*
X174270000Y-82270000D01*
X174270000Y-82270000D02*
X175600000Y-82270000D01*
X150190000Y-116170000D02*
X150190000Y-118830000D01*
X168030000Y-116170000D02*
X150190000Y-116170000D01*
X168030000Y-118830000D02*
X150190000Y-118830000D01*
X168030000Y-116170000D02*
X168030000Y-118830000D01*
X169300000Y-116170000D02*
X170630000Y-116170000D01*
X170630000Y-116170000D02*
X170630000Y-117500000D01*
X85854000Y-80040267D02*
X85854000Y-79697733D01*
X84834000Y-80040267D02*
X84834000Y-79697733D01*
X88790000Y-73181267D02*
X88790000Y-72838733D01*
X87770000Y-73181267D02*
X87770000Y-72838733D01*
X83310000Y-80040267D02*
X83310000Y-79697733D01*
X84330000Y-80040267D02*
X84330000Y-79697733D01*
X153360000Y-106853733D02*
X153360000Y-107196267D01*
X152340000Y-106853733D02*
X152340000Y-107196267D01*
X150740000Y-106853733D02*
X150740000Y-107196267D01*
X151760000Y-106853733D02*
X151760000Y-107196267D01*
X150160000Y-106853733D02*
X150160000Y-107196267D01*
X149140000Y-106853733D02*
X149140000Y-107196267D01*
X147515000Y-106853733D02*
X147515000Y-107196267D01*
X148535000Y-106853733D02*
X148535000Y-107196267D01*
X146910000Y-106853733D02*
X146910000Y-107196267D01*
X145890000Y-106853733D02*
X145890000Y-107196267D01*
X144265000Y-106853733D02*
X144265000Y-107196267D01*
X145285000Y-106853733D02*
X145285000Y-107196267D01*
X157940000Y-107328733D02*
X157940000Y-107671267D01*
X158960000Y-107328733D02*
X158960000Y-107671267D01*
X160510000Y-107328733D02*
X160510000Y-107671267D01*
X159490000Y-107328733D02*
X159490000Y-107671267D01*
X125660000Y-90003733D02*
X125660000Y-90346267D01*
X124640000Y-90003733D02*
X124640000Y-90346267D01*
X127285000Y-89071267D02*
X127285000Y-88728733D01*
X126265000Y-89071267D02*
X126265000Y-88728733D01*
X166710000Y-107676267D02*
X166710000Y-107333733D01*
X165690000Y-107676267D02*
X165690000Y-107333733D01*
X164140000Y-107671267D02*
X164140000Y-107328733D01*
X165160000Y-107671267D02*
X165160000Y-107328733D01*
X178818000Y-78911267D02*
X178818000Y-78568733D01*
X177798000Y-78911267D02*
X177798000Y-78568733D01*
X176274000Y-78911267D02*
X176274000Y-78568733D01*
X177294000Y-78911267D02*
X177294000Y-78568733D01*
X95900000Y-79450000D02*
X95900000Y-79650000D01*
X95900000Y-81750000D02*
X96300000Y-81750000D01*
X95900000Y-81850000D02*
X95900000Y-81750000D01*
X93300000Y-81850000D02*
X95900000Y-81850000D01*
X93300000Y-81650000D02*
X93300000Y-81850000D01*
X93300000Y-79450000D02*
X93300000Y-79650000D01*
X95900000Y-79450000D02*
X93300000Y-79450000D01*
X128925000Y-80675000D02*
X126325000Y-80675000D01*
X126325000Y-80675000D02*
X126325000Y-80875000D01*
X126325000Y-82875000D02*
X126325000Y-83075000D01*
X126325000Y-83075000D02*
X128925000Y-83075000D01*
X128925000Y-83075000D02*
X128925000Y-82975000D01*
X128925000Y-82975000D02*
X129325000Y-82975000D01*
X128925000Y-80675000D02*
X128925000Y-80875000D01*
X134425000Y-78475000D02*
X134425000Y-78675000D01*
X134425000Y-80775000D02*
X134825000Y-80775000D01*
X134425000Y-80875000D02*
X134425000Y-80775000D01*
X131825000Y-80875000D02*
X134425000Y-80875000D01*
X131825000Y-80675000D02*
X131825000Y-80875000D01*
X131825000Y-78475000D02*
X131825000Y-78675000D01*
X134425000Y-78475000D02*
X131825000Y-78475000D01*
X145590000Y-81120000D02*
X148250000Y-81120000D01*
X145590000Y-73440000D02*
X145590000Y-81120000D01*
X148250000Y-73440000D02*
X148250000Y-81120000D01*
X145590000Y-73440000D02*
X148250000Y-73440000D01*
X145590000Y-72170000D02*
X145590000Y-70840000D01*
X145590000Y-70840000D02*
X146920000Y-70840000D01*
D11*
X99357142Y-79366666D02*
X99404761Y-79414285D01*
X99452380Y-79557142D01*
X99452380Y-79652380D01*
X99404761Y-79795238D01*
X99309523Y-79890476D01*
X99214285Y-79938095D01*
X99023809Y-79985714D01*
X98880952Y-79985714D01*
X98690476Y-79938095D01*
X98595238Y-79890476D01*
X98500000Y-79795238D01*
X98452380Y-79652380D01*
X98452380Y-79557142D01*
X98500000Y-79414285D01*
X98547619Y-79366666D01*
X98785714Y-78509523D02*
X99452380Y-78509523D01*
X98404761Y-78747619D02*
X99119047Y-78985714D01*
X99119047Y-78366666D01*
X155057142Y-107652380D02*
X154723809Y-107176190D01*
X154485714Y-107652380D02*
X154485714Y-106652380D01*
X154866666Y-106652380D01*
X154961904Y-106700000D01*
X155009523Y-106747619D01*
X155057142Y-106842857D01*
X155057142Y-106985714D01*
X155009523Y-107080952D01*
X154961904Y-107128571D01*
X154866666Y-107176190D01*
X154485714Y-107176190D01*
X156009523Y-107652380D02*
X155438095Y-107652380D01*
X155723809Y-107652380D02*
X155723809Y-106652380D01*
X155628571Y-106795238D01*
X155533333Y-106890476D01*
X155438095Y-106938095D01*
X156866666Y-106652380D02*
X156676190Y-106652380D01*
X156580952Y-106700000D01*
X156533333Y-106747619D01*
X156438095Y-106890476D01*
X156390476Y-107080952D01*
X156390476Y-107461904D01*
X156438095Y-107557142D01*
X156485714Y-107604761D01*
X156580952Y-107652380D01*
X156771428Y-107652380D01*
X156866666Y-107604761D01*
X156914285Y-107557142D01*
X156961904Y-107461904D01*
X156961904Y-107223809D01*
X156914285Y-107128571D01*
X156866666Y-107080952D01*
X156771428Y-107033333D01*
X156580952Y-107033333D01*
X156485714Y-107080952D01*
X156438095Y-107128571D01*
X156390476Y-107223809D01*
X83657142Y-76620666D02*
X83704761Y-76668285D01*
X83752380Y-76811142D01*
X83752380Y-76906380D01*
X83704761Y-77049238D01*
X83609523Y-77144476D01*
X83514285Y-77192095D01*
X83323809Y-77239714D01*
X83180952Y-77239714D01*
X82990476Y-77192095D01*
X82895238Y-77144476D01*
X82800000Y-77049238D01*
X82752380Y-76906380D01*
X82752380Y-76811142D01*
X82800000Y-76668285D01*
X82847619Y-76620666D01*
X83752380Y-75668285D02*
X83752380Y-76239714D01*
X83752380Y-75954000D02*
X82752380Y-75954000D01*
X82895238Y-76049238D01*
X82990476Y-76144476D01*
X83038095Y-76239714D01*
X158333333Y-110282142D02*
X158285714Y-110329761D01*
X158142857Y-110377380D01*
X158047619Y-110377380D01*
X157904761Y-110329761D01*
X157809523Y-110234523D01*
X157761904Y-110139285D01*
X157714285Y-109948809D01*
X157714285Y-109805952D01*
X157761904Y-109615476D01*
X157809523Y-109520238D01*
X157904761Y-109425000D01*
X158047619Y-109377380D01*
X158142857Y-109377380D01*
X158285714Y-109425000D01*
X158333333Y-109472619D01*
X158714285Y-109472619D02*
X158761904Y-109425000D01*
X158857142Y-109377380D01*
X159095238Y-109377380D01*
X159190476Y-109425000D01*
X159238095Y-109472619D01*
X159285714Y-109567857D01*
X159285714Y-109663095D01*
X159238095Y-109805952D01*
X158666666Y-110377380D01*
X159285714Y-110377380D01*
X90527142Y-81941666D02*
X90574761Y-81989285D01*
X90622380Y-82132142D01*
X90622380Y-82227380D01*
X90574761Y-82370238D01*
X90479523Y-82465476D01*
X90384285Y-82513095D01*
X90193809Y-82560714D01*
X90050952Y-82560714D01*
X89860476Y-82513095D01*
X89765238Y-82465476D01*
X89670000Y-82370238D01*
X89622380Y-82227380D01*
X89622380Y-82132142D01*
X89670000Y-81989285D01*
X89717619Y-81941666D01*
X89622380Y-81608333D02*
X89622380Y-80989285D01*
X90003333Y-81322619D01*
X90003333Y-81179761D01*
X90050952Y-81084523D01*
X90098571Y-81036904D01*
X90193809Y-80989285D01*
X90431904Y-80989285D01*
X90527142Y-81036904D01*
X90574761Y-81084523D01*
X90622380Y-81179761D01*
X90622380Y-81465476D01*
X90574761Y-81560714D01*
X90527142Y-81608333D01*
X135033333Y-77957142D02*
X134985714Y-78004761D01*
X134842857Y-78052380D01*
X134747619Y-78052380D01*
X134604761Y-78004761D01*
X134509523Y-77909523D01*
X134461904Y-77814285D01*
X134414285Y-77623809D01*
X134414285Y-77480952D01*
X134461904Y-77290476D01*
X134509523Y-77195238D01*
X134604761Y-77100000D01*
X134747619Y-77052380D01*
X134842857Y-77052380D01*
X134985714Y-77100000D01*
X135033333Y-77147619D01*
X135938095Y-77052380D02*
X135461904Y-77052380D01*
X135414285Y-77528571D01*
X135461904Y-77480952D01*
X135557142Y-77433333D01*
X135795238Y-77433333D01*
X135890476Y-77480952D01*
X135938095Y-77528571D01*
X135985714Y-77623809D01*
X135985714Y-77861904D01*
X135938095Y-77957142D01*
X135890476Y-78004761D01*
X135795238Y-78052380D01*
X135557142Y-78052380D01*
X135461904Y-78004761D01*
X135414285Y-77957142D01*
X136883333Y-78352142D02*
X136835714Y-78399761D01*
X136692857Y-78447380D01*
X136597619Y-78447380D01*
X136454761Y-78399761D01*
X136359523Y-78304523D01*
X136311904Y-78209285D01*
X136264285Y-78018809D01*
X136264285Y-77875952D01*
X136311904Y-77685476D01*
X136359523Y-77590238D01*
X136454761Y-77495000D01*
X136597619Y-77447380D01*
X136692857Y-77447380D01*
X136835714Y-77495000D01*
X136883333Y-77542619D01*
X137740476Y-77447380D02*
X137550000Y-77447380D01*
X137454761Y-77495000D01*
X137407142Y-77542619D01*
X137311904Y-77685476D01*
X137264285Y-77875952D01*
X137264285Y-78256904D01*
X137311904Y-78352142D01*
X137359523Y-78399761D01*
X137454761Y-78447380D01*
X137645238Y-78447380D01*
X137740476Y-78399761D01*
X137788095Y-78352142D01*
X137835714Y-78256904D01*
X137835714Y-78018809D01*
X137788095Y-77923571D01*
X137740476Y-77875952D01*
X137645238Y-77828333D01*
X137454761Y-77828333D01*
X137359523Y-77875952D01*
X137311904Y-77923571D01*
X137264285Y-78018809D01*
X123508333Y-81402142D02*
X123460714Y-81449761D01*
X123317857Y-81497380D01*
X123222619Y-81497380D01*
X123079761Y-81449761D01*
X122984523Y-81354523D01*
X122936904Y-81259285D01*
X122889285Y-81068809D01*
X122889285Y-80925952D01*
X122936904Y-80735476D01*
X122984523Y-80640238D01*
X123079761Y-80545000D01*
X123222619Y-80497380D01*
X123317857Y-80497380D01*
X123460714Y-80545000D01*
X123508333Y-80592619D01*
X123841666Y-80497380D02*
X124508333Y-80497380D01*
X124079761Y-81497380D01*
X134133333Y-83357142D02*
X134085714Y-83404761D01*
X133942857Y-83452380D01*
X133847619Y-83452380D01*
X133704761Y-83404761D01*
X133609523Y-83309523D01*
X133561904Y-83214285D01*
X133514285Y-83023809D01*
X133514285Y-82880952D01*
X133561904Y-82690476D01*
X133609523Y-82595238D01*
X133704761Y-82500000D01*
X133847619Y-82452380D01*
X133942857Y-82452380D01*
X134085714Y-82500000D01*
X134133333Y-82547619D01*
X134704761Y-82880952D02*
X134609523Y-82833333D01*
X134561904Y-82785714D01*
X134514285Y-82690476D01*
X134514285Y-82642857D01*
X134561904Y-82547619D01*
X134609523Y-82500000D01*
X134704761Y-82452380D01*
X134895238Y-82452380D01*
X134990476Y-82500000D01*
X135038095Y-82547619D01*
X135085714Y-82642857D01*
X135085714Y-82690476D01*
X135038095Y-82785714D01*
X134990476Y-82833333D01*
X134895238Y-82880952D01*
X134704761Y-82880952D01*
X134609523Y-82928571D01*
X134561904Y-82976190D01*
X134514285Y-83071428D01*
X134514285Y-83261904D01*
X134561904Y-83357142D01*
X134609523Y-83404761D01*
X134704761Y-83452380D01*
X134895238Y-83452380D01*
X134990476Y-83404761D01*
X135038095Y-83357142D01*
X135085714Y-83261904D01*
X135085714Y-83071428D01*
X135038095Y-82976190D01*
X134990476Y-82928571D01*
X134895238Y-82880952D01*
X179333142Y-75350666D02*
X179380761Y-75398285D01*
X179428380Y-75541142D01*
X179428380Y-75636380D01*
X179380761Y-75779238D01*
X179285523Y-75874476D01*
X179190285Y-75922095D01*
X178999809Y-75969714D01*
X178856952Y-75969714D01*
X178666476Y-75922095D01*
X178571238Y-75874476D01*
X178476000Y-75779238D01*
X178428380Y-75636380D01*
X178428380Y-75541142D01*
X178476000Y-75398285D01*
X178523619Y-75350666D01*
X179428380Y-74874476D02*
X179428380Y-74684000D01*
X179380761Y-74588761D01*
X179333142Y-74541142D01*
X179190285Y-74445904D01*
X178999809Y-74398285D01*
X178618857Y-74398285D01*
X178523619Y-74445904D01*
X178476000Y-74493523D01*
X178428380Y-74588761D01*
X178428380Y-74779238D01*
X178476000Y-74874476D01*
X178523619Y-74922095D01*
X178618857Y-74969714D01*
X178856952Y-74969714D01*
X178952190Y-74922095D01*
X178999809Y-74874476D01*
X179047428Y-74779238D01*
X179047428Y-74588761D01*
X178999809Y-74493523D01*
X178952190Y-74445904D01*
X178856952Y-74398285D01*
X87302380Y-77288095D02*
X86302380Y-77288095D01*
X86302380Y-77050000D01*
X86350000Y-76907142D01*
X86445238Y-76811904D01*
X86540476Y-76764285D01*
X86730952Y-76716666D01*
X86873809Y-76716666D01*
X87064285Y-76764285D01*
X87159523Y-76811904D01*
X87254761Y-76907142D01*
X87302380Y-77050000D01*
X87302380Y-77288095D01*
X87302380Y-75764285D02*
X87302380Y-76335714D01*
X87302380Y-76050000D02*
X86302380Y-76050000D01*
X86445238Y-76145238D01*
X86540476Y-76240476D01*
X86588095Y-76335714D01*
X159266666Y-88152380D02*
X159266666Y-88866666D01*
X159219047Y-89009523D01*
X159123809Y-89104761D01*
X158980952Y-89152380D01*
X158885714Y-89152380D01*
X159695238Y-88247619D02*
X159742857Y-88200000D01*
X159838095Y-88152380D01*
X160076190Y-88152380D01*
X160171428Y-88200000D01*
X160219047Y-88247619D01*
X160266666Y-88342857D01*
X160266666Y-88438095D01*
X160219047Y-88580952D01*
X159647619Y-89152380D01*
X160266666Y-89152380D01*
X99511666Y-100252380D02*
X99511666Y-100966666D01*
X99464047Y-101109523D01*
X99368809Y-101204761D01*
X99225952Y-101252380D01*
X99130714Y-101252380D01*
X100464047Y-100252380D02*
X99987857Y-100252380D01*
X99940238Y-100728571D01*
X99987857Y-100680952D01*
X100083095Y-100633333D01*
X100321190Y-100633333D01*
X100416428Y-100680952D01*
X100464047Y-100728571D01*
X100511666Y-100823809D01*
X100511666Y-101061904D01*
X100464047Y-101157142D01*
X100416428Y-101204761D01*
X100321190Y-101252380D01*
X100083095Y-101252380D01*
X99987857Y-101204761D01*
X99940238Y-101157142D01*
X89452380Y-77733333D02*
X90166666Y-77733333D01*
X90309523Y-77780952D01*
X90404761Y-77876190D01*
X90452380Y-78019047D01*
X90452380Y-78114285D01*
X89452380Y-76828571D02*
X89452380Y-77019047D01*
X89500000Y-77114285D01*
X89547619Y-77161904D01*
X89690476Y-77257142D01*
X89880952Y-77304761D01*
X90261904Y-77304761D01*
X90357142Y-77257142D01*
X90404761Y-77209523D01*
X90452380Y-77114285D01*
X90452380Y-76923809D01*
X90404761Y-76828571D01*
X90357142Y-76780952D01*
X90261904Y-76733333D01*
X90023809Y-76733333D01*
X89928571Y-76780952D01*
X89880952Y-76828571D01*
X89833333Y-76923809D01*
X89833333Y-77114285D01*
X89880952Y-77209523D01*
X89928571Y-77257142D01*
X90023809Y-77304761D01*
X81566666Y-81052380D02*
X81566666Y-81766666D01*
X81519047Y-81909523D01*
X81423809Y-82004761D01*
X81280952Y-82052380D01*
X81185714Y-82052380D01*
X82090476Y-82052380D02*
X82280952Y-82052380D01*
X82376190Y-82004761D01*
X82423809Y-81957142D01*
X82519047Y-81814285D01*
X82566666Y-81623809D01*
X82566666Y-81242857D01*
X82519047Y-81147619D01*
X82471428Y-81100000D01*
X82376190Y-81052380D01*
X82185714Y-81052380D01*
X82090476Y-81100000D01*
X82042857Y-81147619D01*
X81995238Y-81242857D01*
X81995238Y-81480952D01*
X82042857Y-81576190D01*
X82090476Y-81623809D01*
X82185714Y-81671428D01*
X82376190Y-81671428D01*
X82471428Y-81623809D01*
X82519047Y-81576190D01*
X82566666Y-81480952D01*
X176060476Y-80722380D02*
X176060476Y-81436666D01*
X176012857Y-81579523D01*
X175917619Y-81674761D01*
X175774761Y-81722380D01*
X175679523Y-81722380D01*
X177060476Y-81722380D02*
X176489047Y-81722380D01*
X176774761Y-81722380D02*
X176774761Y-80722380D01*
X176679523Y-80865238D01*
X176584285Y-80960476D01*
X176489047Y-81008095D01*
X177679523Y-80722380D02*
X177774761Y-80722380D01*
X177870000Y-80770000D01*
X177917619Y-80817619D01*
X177965238Y-80912857D01*
X178012857Y-81103333D01*
X178012857Y-81341428D01*
X177965238Y-81531904D01*
X177917619Y-81627142D01*
X177870000Y-81674761D01*
X177774761Y-81722380D01*
X177679523Y-81722380D01*
X177584285Y-81674761D01*
X177536666Y-81627142D01*
X177489047Y-81531904D01*
X177441428Y-81341428D01*
X177441428Y-81103333D01*
X177489047Y-80912857D01*
X177536666Y-80817619D01*
X177584285Y-80770000D01*
X177679523Y-80722380D01*
X171082380Y-118309523D02*
X171796666Y-118309523D01*
X171939523Y-118357142D01*
X172034761Y-118452380D01*
X172082380Y-118595238D01*
X172082380Y-118690476D01*
X172082380Y-117309523D02*
X172082380Y-117880952D01*
X172082380Y-117595238D02*
X171082380Y-117595238D01*
X171225238Y-117690476D01*
X171320476Y-117785714D01*
X171368095Y-117880952D01*
X171082380Y-116976190D02*
X171082380Y-116357142D01*
X171463333Y-116690476D01*
X171463333Y-116547619D01*
X171510952Y-116452380D01*
X171558571Y-116404761D01*
X171653809Y-116357142D01*
X171891904Y-116357142D01*
X171987142Y-116404761D01*
X172034761Y-116452380D01*
X172082380Y-116547619D01*
X172082380Y-116833333D01*
X172034761Y-116928571D01*
X171987142Y-116976190D01*
X87152380Y-79966666D02*
X86676190Y-80300000D01*
X87152380Y-80538095D02*
X86152380Y-80538095D01*
X86152380Y-80157142D01*
X86200000Y-80061904D01*
X86247619Y-80014285D01*
X86342857Y-79966666D01*
X86485714Y-79966666D01*
X86580952Y-80014285D01*
X86628571Y-80061904D01*
X86676190Y-80157142D01*
X86676190Y-80538095D01*
X86247619Y-79585714D02*
X86200000Y-79538095D01*
X86152380Y-79442857D01*
X86152380Y-79204761D01*
X86200000Y-79109523D01*
X86247619Y-79061904D01*
X86342857Y-79014285D01*
X86438095Y-79014285D01*
X86580952Y-79061904D01*
X87152380Y-79633333D01*
X87152380Y-79014285D01*
X87302380Y-73176666D02*
X86826190Y-73510000D01*
X87302380Y-73748095D02*
X86302380Y-73748095D01*
X86302380Y-73367142D01*
X86350000Y-73271904D01*
X86397619Y-73224285D01*
X86492857Y-73176666D01*
X86635714Y-73176666D01*
X86730952Y-73224285D01*
X86778571Y-73271904D01*
X86826190Y-73367142D01*
X86826190Y-73748095D01*
X86635714Y-72319523D02*
X87302380Y-72319523D01*
X86254761Y-72557619D02*
X86969047Y-72795714D01*
X86969047Y-72176666D01*
X82842380Y-80035666D02*
X82366190Y-80369000D01*
X82842380Y-80607095D02*
X81842380Y-80607095D01*
X81842380Y-80226142D01*
X81890000Y-80130904D01*
X81937619Y-80083285D01*
X82032857Y-80035666D01*
X82175714Y-80035666D01*
X82270952Y-80083285D01*
X82318571Y-80130904D01*
X82366190Y-80226142D01*
X82366190Y-80607095D01*
X81842380Y-79130904D02*
X81842380Y-79607095D01*
X82318571Y-79654714D01*
X82270952Y-79607095D01*
X82223333Y-79511857D01*
X82223333Y-79273761D01*
X82270952Y-79178523D01*
X82318571Y-79130904D01*
X82413809Y-79083285D01*
X82651904Y-79083285D01*
X82747142Y-79130904D01*
X82794761Y-79178523D01*
X82842380Y-79273761D01*
X82842380Y-79511857D01*
X82794761Y-79607095D01*
X82747142Y-79654714D01*
X153302380Y-110692857D02*
X152826190Y-111026190D01*
X153302380Y-111264285D02*
X152302380Y-111264285D01*
X152302380Y-110883333D01*
X152350000Y-110788095D01*
X152397619Y-110740476D01*
X152492857Y-110692857D01*
X152635714Y-110692857D01*
X152730952Y-110740476D01*
X152778571Y-110788095D01*
X152826190Y-110883333D01*
X152826190Y-111264285D01*
X153302380Y-109740476D02*
X153302380Y-110311904D01*
X153302380Y-110026190D02*
X152302380Y-110026190D01*
X152445238Y-110121428D01*
X152540476Y-110216666D01*
X152588095Y-110311904D01*
X152302380Y-109121428D02*
X152302380Y-109026190D01*
X152350000Y-108930952D01*
X152397619Y-108883333D01*
X152492857Y-108835714D01*
X152683333Y-108788095D01*
X152921428Y-108788095D01*
X153111904Y-108835714D01*
X153207142Y-108883333D01*
X153254761Y-108930952D01*
X153302380Y-109026190D01*
X153302380Y-109121428D01*
X153254761Y-109216666D01*
X153207142Y-109264285D01*
X153111904Y-109311904D01*
X152921428Y-109359523D01*
X152683333Y-109359523D01*
X152492857Y-109311904D01*
X152397619Y-109264285D01*
X152350000Y-109216666D01*
X152302380Y-109121428D01*
X151702380Y-110717857D02*
X151226190Y-111051190D01*
X151702380Y-111289285D02*
X150702380Y-111289285D01*
X150702380Y-110908333D01*
X150750000Y-110813095D01*
X150797619Y-110765476D01*
X150892857Y-110717857D01*
X151035714Y-110717857D01*
X151130952Y-110765476D01*
X151178571Y-110813095D01*
X151226190Y-110908333D01*
X151226190Y-111289285D01*
X151702380Y-109765476D02*
X151702380Y-110336904D01*
X151702380Y-110051190D02*
X150702380Y-110051190D01*
X150845238Y-110146428D01*
X150940476Y-110241666D01*
X150988095Y-110336904D01*
X151702380Y-108813095D02*
X151702380Y-109384523D01*
X151702380Y-109098809D02*
X150702380Y-109098809D01*
X150845238Y-109194047D01*
X150940476Y-109289285D01*
X150988095Y-109384523D01*
X150177380Y-110742857D02*
X149701190Y-111076190D01*
X150177380Y-111314285D02*
X149177380Y-111314285D01*
X149177380Y-110933333D01*
X149225000Y-110838095D01*
X149272619Y-110790476D01*
X149367857Y-110742857D01*
X149510714Y-110742857D01*
X149605952Y-110790476D01*
X149653571Y-110838095D01*
X149701190Y-110933333D01*
X149701190Y-111314285D01*
X150177380Y-109790476D02*
X150177380Y-110361904D01*
X150177380Y-110076190D02*
X149177380Y-110076190D01*
X149320238Y-110171428D01*
X149415476Y-110266666D01*
X149463095Y-110361904D01*
X149272619Y-109409523D02*
X149225000Y-109361904D01*
X149177380Y-109266666D01*
X149177380Y-109028571D01*
X149225000Y-108933333D01*
X149272619Y-108885714D01*
X149367857Y-108838095D01*
X149463095Y-108838095D01*
X149605952Y-108885714D01*
X150177380Y-109457142D01*
X150177380Y-108838095D01*
X148552380Y-110742857D02*
X148076190Y-111076190D01*
X148552380Y-111314285D02*
X147552380Y-111314285D01*
X147552380Y-110933333D01*
X147600000Y-110838095D01*
X147647619Y-110790476D01*
X147742857Y-110742857D01*
X147885714Y-110742857D01*
X147980952Y-110790476D01*
X148028571Y-110838095D01*
X148076190Y-110933333D01*
X148076190Y-111314285D01*
X148552380Y-109790476D02*
X148552380Y-110361904D01*
X148552380Y-110076190D02*
X147552380Y-110076190D01*
X147695238Y-110171428D01*
X147790476Y-110266666D01*
X147838095Y-110361904D01*
X147552380Y-108885714D02*
X147552380Y-109361904D01*
X148028571Y-109409523D01*
X147980952Y-109361904D01*
X147933333Y-109266666D01*
X147933333Y-109028571D01*
X147980952Y-108933333D01*
X148028571Y-108885714D01*
X148123809Y-108838095D01*
X148361904Y-108838095D01*
X148457142Y-108885714D01*
X148504761Y-108933333D01*
X148552380Y-109028571D01*
X148552380Y-109266666D01*
X148504761Y-109361904D01*
X148457142Y-109409523D01*
X146902380Y-110767857D02*
X146426190Y-111101190D01*
X146902380Y-111339285D02*
X145902380Y-111339285D01*
X145902380Y-110958333D01*
X145950000Y-110863095D01*
X145997619Y-110815476D01*
X146092857Y-110767857D01*
X146235714Y-110767857D01*
X146330952Y-110815476D01*
X146378571Y-110863095D01*
X146426190Y-110958333D01*
X146426190Y-111339285D01*
X146902380Y-109815476D02*
X146902380Y-110386904D01*
X146902380Y-110101190D02*
X145902380Y-110101190D01*
X146045238Y-110196428D01*
X146140476Y-110291666D01*
X146188095Y-110386904D01*
X145902380Y-109482142D02*
X145902380Y-108815476D01*
X146902380Y-109244047D01*
X145277380Y-110767857D02*
X144801190Y-111101190D01*
X145277380Y-111339285D02*
X144277380Y-111339285D01*
X144277380Y-110958333D01*
X144325000Y-110863095D01*
X144372619Y-110815476D01*
X144467857Y-110767857D01*
X144610714Y-110767857D01*
X144705952Y-110815476D01*
X144753571Y-110863095D01*
X144801190Y-110958333D01*
X144801190Y-111339285D01*
X145277380Y-109815476D02*
X145277380Y-110386904D01*
X145277380Y-110101190D02*
X144277380Y-110101190D01*
X144420238Y-110196428D01*
X144515476Y-110291666D01*
X144563095Y-110386904D01*
X144705952Y-109244047D02*
X144658333Y-109339285D01*
X144610714Y-109386904D01*
X144515476Y-109434523D01*
X144467857Y-109434523D01*
X144372619Y-109386904D01*
X144325000Y-109339285D01*
X144277380Y-109244047D01*
X144277380Y-109053571D01*
X144325000Y-108958333D01*
X144372619Y-108910714D01*
X144467857Y-108863095D01*
X144515476Y-108863095D01*
X144610714Y-108910714D01*
X144658333Y-108958333D01*
X144705952Y-109053571D01*
X144705952Y-109244047D01*
X144753571Y-109339285D01*
X144801190Y-109386904D01*
X144896428Y-109434523D01*
X145086904Y-109434523D01*
X145182142Y-109386904D01*
X145229761Y-109339285D01*
X145277380Y-109244047D01*
X145277380Y-109053571D01*
X145229761Y-108958333D01*
X145182142Y-108910714D01*
X145086904Y-108863095D01*
X144896428Y-108863095D01*
X144801190Y-108910714D01*
X144753571Y-108958333D01*
X144705952Y-109053571D01*
X157057142Y-105752380D02*
X156723809Y-105276190D01*
X156485714Y-105752380D02*
X156485714Y-104752380D01*
X156866666Y-104752380D01*
X156961904Y-104800000D01*
X157009523Y-104847619D01*
X157057142Y-104942857D01*
X157057142Y-105085714D01*
X157009523Y-105180952D01*
X156961904Y-105228571D01*
X156866666Y-105276190D01*
X156485714Y-105276190D01*
X158009523Y-105752380D02*
X157438095Y-105752380D01*
X157723809Y-105752380D02*
X157723809Y-104752380D01*
X157628571Y-104895238D01*
X157533333Y-104990476D01*
X157438095Y-105038095D01*
X158485714Y-105752380D02*
X158676190Y-105752380D01*
X158771428Y-105704761D01*
X158819047Y-105657142D01*
X158914285Y-105514285D01*
X158961904Y-105323809D01*
X158961904Y-104942857D01*
X158914285Y-104847619D01*
X158866666Y-104800000D01*
X158771428Y-104752380D01*
X158580952Y-104752380D01*
X158485714Y-104800000D01*
X158438095Y-104847619D01*
X158390476Y-104942857D01*
X158390476Y-105180952D01*
X158438095Y-105276190D01*
X158485714Y-105323809D01*
X158580952Y-105371428D01*
X158771428Y-105371428D01*
X158866666Y-105323809D01*
X158914285Y-105276190D01*
X158961904Y-105180952D01*
X161882380Y-108142857D02*
X161406190Y-108476190D01*
X161882380Y-108714285D02*
X160882380Y-108714285D01*
X160882380Y-108333333D01*
X160930000Y-108238095D01*
X160977619Y-108190476D01*
X161072857Y-108142857D01*
X161215714Y-108142857D01*
X161310952Y-108190476D01*
X161358571Y-108238095D01*
X161406190Y-108333333D01*
X161406190Y-108714285D01*
X160977619Y-107761904D02*
X160930000Y-107714285D01*
X160882380Y-107619047D01*
X160882380Y-107380952D01*
X160930000Y-107285714D01*
X160977619Y-107238095D01*
X161072857Y-107190476D01*
X161168095Y-107190476D01*
X161310952Y-107238095D01*
X161882380Y-107809523D01*
X161882380Y-107190476D01*
X160882380Y-106571428D02*
X160882380Y-106476190D01*
X160930000Y-106380952D01*
X160977619Y-106333333D01*
X161072857Y-106285714D01*
X161263333Y-106238095D01*
X161501428Y-106238095D01*
X161691904Y-106285714D01*
X161787142Y-106333333D01*
X161834761Y-106380952D01*
X161882380Y-106476190D01*
X161882380Y-106571428D01*
X161834761Y-106666666D01*
X161787142Y-106714285D01*
X161691904Y-106761904D01*
X161501428Y-106809523D01*
X161263333Y-106809523D01*
X161072857Y-106761904D01*
X160977619Y-106714285D01*
X160930000Y-106666666D01*
X160882380Y-106571428D01*
X124352380Y-91242857D02*
X123876190Y-91576190D01*
X124352380Y-91814285D02*
X123352380Y-91814285D01*
X123352380Y-91433333D01*
X123400000Y-91338095D01*
X123447619Y-91290476D01*
X123542857Y-91242857D01*
X123685714Y-91242857D01*
X123780952Y-91290476D01*
X123828571Y-91338095D01*
X123876190Y-91433333D01*
X123876190Y-91814285D01*
X123447619Y-90861904D02*
X123400000Y-90814285D01*
X123352380Y-90719047D01*
X123352380Y-90480952D01*
X123400000Y-90385714D01*
X123447619Y-90338095D01*
X123542857Y-90290476D01*
X123638095Y-90290476D01*
X123780952Y-90338095D01*
X124352380Y-90909523D01*
X124352380Y-90290476D01*
X123352380Y-89957142D02*
X123352380Y-89338095D01*
X123733333Y-89671428D01*
X123733333Y-89528571D01*
X123780952Y-89433333D01*
X123828571Y-89385714D01*
X123923809Y-89338095D01*
X124161904Y-89338095D01*
X124257142Y-89385714D01*
X124304761Y-89433333D01*
X124352380Y-89528571D01*
X124352380Y-89814285D01*
X124304761Y-89909523D01*
X124257142Y-89957142D01*
X128552380Y-89542857D02*
X128076190Y-89876190D01*
X128552380Y-90114285D02*
X127552380Y-90114285D01*
X127552380Y-89733333D01*
X127600000Y-89638095D01*
X127647619Y-89590476D01*
X127742857Y-89542857D01*
X127885714Y-89542857D01*
X127980952Y-89590476D01*
X128028571Y-89638095D01*
X128076190Y-89733333D01*
X128076190Y-90114285D01*
X127647619Y-89161904D02*
X127600000Y-89114285D01*
X127552380Y-89019047D01*
X127552380Y-88780952D01*
X127600000Y-88685714D01*
X127647619Y-88638095D01*
X127742857Y-88590476D01*
X127838095Y-88590476D01*
X127980952Y-88638095D01*
X128552380Y-89209523D01*
X128552380Y-88590476D01*
X127885714Y-87733333D02*
X128552380Y-87733333D01*
X127504761Y-87971428D02*
X128219047Y-88209523D01*
X128219047Y-87590476D01*
X168052380Y-109042857D02*
X167576190Y-109376190D01*
X168052380Y-109614285D02*
X167052380Y-109614285D01*
X167052380Y-109233333D01*
X167100000Y-109138095D01*
X167147619Y-109090476D01*
X167242857Y-109042857D01*
X167385714Y-109042857D01*
X167480952Y-109090476D01*
X167528571Y-109138095D01*
X167576190Y-109233333D01*
X167576190Y-109614285D01*
X167147619Y-108661904D02*
X167100000Y-108614285D01*
X167052380Y-108519047D01*
X167052380Y-108280952D01*
X167100000Y-108185714D01*
X167147619Y-108138095D01*
X167242857Y-108090476D01*
X167338095Y-108090476D01*
X167480952Y-108138095D01*
X168052380Y-108709523D01*
X168052380Y-108090476D01*
X167052380Y-107757142D02*
X167052380Y-107090476D01*
X168052380Y-107519047D01*
X163852380Y-109242857D02*
X163376190Y-109576190D01*
X163852380Y-109814285D02*
X162852380Y-109814285D01*
X162852380Y-109433333D01*
X162900000Y-109338095D01*
X162947619Y-109290476D01*
X163042857Y-109242857D01*
X163185714Y-109242857D01*
X163280952Y-109290476D01*
X163328571Y-109338095D01*
X163376190Y-109433333D01*
X163376190Y-109814285D01*
X162947619Y-108861904D02*
X162900000Y-108814285D01*
X162852380Y-108719047D01*
X162852380Y-108480952D01*
X162900000Y-108385714D01*
X162947619Y-108338095D01*
X163042857Y-108290476D01*
X163138095Y-108290476D01*
X163280952Y-108338095D01*
X163852380Y-108909523D01*
X163852380Y-108290476D01*
X163280952Y-107719047D02*
X163233333Y-107814285D01*
X163185714Y-107861904D01*
X163090476Y-107909523D01*
X163042857Y-107909523D01*
X162947619Y-107861904D01*
X162900000Y-107814285D01*
X162852380Y-107719047D01*
X162852380Y-107528571D01*
X162900000Y-107433333D01*
X162947619Y-107385714D01*
X163042857Y-107338095D01*
X163090476Y-107338095D01*
X163185714Y-107385714D01*
X163233333Y-107433333D01*
X163280952Y-107528571D01*
X163280952Y-107719047D01*
X163328571Y-107814285D01*
X163376190Y-107861904D01*
X163471428Y-107909523D01*
X163661904Y-107909523D01*
X163757142Y-107861904D01*
X163804761Y-107814285D01*
X163852380Y-107719047D01*
X163852380Y-107528571D01*
X163804761Y-107433333D01*
X163757142Y-107385714D01*
X163661904Y-107338095D01*
X163471428Y-107338095D01*
X163376190Y-107385714D01*
X163328571Y-107433333D01*
X163280952Y-107528571D01*
X175952380Y-79342857D02*
X175476190Y-79676190D01*
X175952380Y-79914285D02*
X174952380Y-79914285D01*
X174952380Y-79533333D01*
X175000000Y-79438095D01*
X175047619Y-79390476D01*
X175142857Y-79342857D01*
X175285714Y-79342857D01*
X175380952Y-79390476D01*
X175428571Y-79438095D01*
X175476190Y-79533333D01*
X175476190Y-79914285D01*
X174952380Y-79009523D02*
X174952380Y-78390476D01*
X175333333Y-78723809D01*
X175333333Y-78580952D01*
X175380952Y-78485714D01*
X175428571Y-78438095D01*
X175523809Y-78390476D01*
X175761904Y-78390476D01*
X175857142Y-78438095D01*
X175904761Y-78485714D01*
X175952380Y-78580952D01*
X175952380Y-78866666D01*
X175904761Y-78961904D01*
X175857142Y-79009523D01*
X175952380Y-77438095D02*
X175952380Y-78009523D01*
X175952380Y-77723809D02*
X174952380Y-77723809D01*
X175095238Y-77819047D01*
X175190476Y-77914285D01*
X175238095Y-78009523D01*
X174652380Y-79342857D02*
X174176190Y-79676190D01*
X174652380Y-79914285D02*
X173652380Y-79914285D01*
X173652380Y-79533333D01*
X173700000Y-79438095D01*
X173747619Y-79390476D01*
X173842857Y-79342857D01*
X173985714Y-79342857D01*
X174080952Y-79390476D01*
X174128571Y-79438095D01*
X174176190Y-79533333D01*
X174176190Y-79914285D01*
X173652380Y-79009523D02*
X173652380Y-78390476D01*
X174033333Y-78723809D01*
X174033333Y-78580952D01*
X174080952Y-78485714D01*
X174128571Y-78438095D01*
X174223809Y-78390476D01*
X174461904Y-78390476D01*
X174557142Y-78438095D01*
X174604761Y-78485714D01*
X174652380Y-78580952D01*
X174652380Y-78866666D01*
X174604761Y-78961904D01*
X174557142Y-79009523D01*
X173747619Y-78009523D02*
X173700000Y-77961904D01*
X173652380Y-77866666D01*
X173652380Y-77628571D01*
X173700000Y-77533333D01*
X173747619Y-77485714D01*
X173842857Y-77438095D01*
X173938095Y-77438095D01*
X174080952Y-77485714D01*
X174652380Y-78057142D01*
X174652380Y-77438095D01*
X93838095Y-82642380D02*
X93838095Y-83451904D01*
X93885714Y-83547142D01*
X93933333Y-83594761D01*
X94028571Y-83642380D01*
X94219047Y-83642380D01*
X94314285Y-83594761D01*
X94361904Y-83547142D01*
X94409523Y-83451904D01*
X94409523Y-82642380D01*
X95409523Y-83642380D02*
X94838095Y-83642380D01*
X95123809Y-83642380D02*
X95123809Y-82642380D01*
X95028571Y-82785238D01*
X94933333Y-82880476D01*
X94838095Y-82928095D01*
X126938095Y-79352380D02*
X126938095Y-80161904D01*
X126985714Y-80257142D01*
X127033333Y-80304761D01*
X127128571Y-80352380D01*
X127319047Y-80352380D01*
X127414285Y-80304761D01*
X127461904Y-80257142D01*
X127509523Y-80161904D01*
X127509523Y-79352380D01*
X127938095Y-79447619D02*
X127985714Y-79400000D01*
X128080952Y-79352380D01*
X128319047Y-79352380D01*
X128414285Y-79400000D01*
X128461904Y-79447619D01*
X128509523Y-79542857D01*
X128509523Y-79638095D01*
X128461904Y-79780952D01*
X127890476Y-80352380D01*
X128509523Y-80352380D01*
X133638095Y-81152380D02*
X133638095Y-81961904D01*
X133685714Y-82057142D01*
X133733333Y-82104761D01*
X133828571Y-82152380D01*
X134019047Y-82152380D01*
X134114285Y-82104761D01*
X134161904Y-82057142D01*
X134209523Y-81961904D01*
X134209523Y-81152380D01*
X134590476Y-81152380D02*
X135209523Y-81152380D01*
X134876190Y-81533333D01*
X135019047Y-81533333D01*
X135114285Y-81580952D01*
X135161904Y-81628571D01*
X135209523Y-81723809D01*
X135209523Y-81961904D01*
X135161904Y-82057142D01*
X135114285Y-82104761D01*
X135019047Y-82152380D01*
X134733333Y-82152380D01*
X134638095Y-82104761D01*
X134590476Y-82057142D01*
X143666666Y-70652380D02*
X143666666Y-71366666D01*
X143619047Y-71509523D01*
X143523809Y-71604761D01*
X143380952Y-71652380D01*
X143285714Y-71652380D01*
X144666666Y-71652380D02*
X144095238Y-71652380D01*
X144380952Y-71652380D02*
X144380952Y-70652380D01*
X144285714Y-70795238D01*
X144190476Y-70890476D01*
X144095238Y-70938095D01*
M02*
