<?xml version="1.0" encoding="utf-8"?>
<!-- Generator: Adobe Illustrator 16.0.0, SVG Export Plug-In . SVG Version: 6.00 Build 0)  -->
<!DOCTYPE svg PUBLIC "-//W3C//DTD SVG 1.1//EN" "http://www.w3.org/Graphics/SVG/1.1/DTD/svg11.dtd">
<svg version="1.1" xmlns="http://www.w3.org/2000/svg" xmlns:xlink="http://www.w3.org/1999/xlink" x="0px" y="0px"
	 width="1020.473px" height="425.197px" viewBox="0 0 1020.473 425.197" enable-background="new 0 0 1020.473 425.197"
	 xml:space="preserve">
<g id="symbols">
	<g>
		<path d="M65.915,181.495c0,4.829-1.638,7.243-4.917,7.243c-1.895,0-3.37-0.839-4.426-2.518c-0.601-0.959-1.174-2.534-1.722-4.725
			l-2.35-9.306l-8.142,16.212h-5.164l11.694-22.113c-0.202-0.88-0.41-1.711-0.629-2.496l-9.863,8.396v-2.255l9.29-7.891
			c-1.075-2.782-2.506-4.173-4.29-4.173c-2.496,0-3.835,1.424-4.016,4.27h-0.984c0.036-1.887,0.427-3.534,1.175-4.941
			c0.983-1.886,2.404-2.83,4.261-2.83c2.222,0,3.924,1.568,5.11,4.702c0.09,0.256,0.254,0.751,0.491,1.486l5.218-4.438v2.255
			l-4.671,3.981c0.455,1.551,1.11,4.022,1.967,7.412l1.94,7.602c0.583,2.271,1.11,3.886,1.584,4.846
			c1.039,2.015,2.368,3.022,3.99,3.022c2.039,0,3.196-1.247,3.47-3.741H65.915z"/>
	</g>
	<g>
		<path d="M633.764,300.647c-2.071,1.104-4.244,1.656-6.518,1.656c-1.923,0-3.652-0.361-5.191-1.078
			c-0.869,0.381-1.804,0.684-2.807,0.902c-1.003,0.215-2.083,0.324-3.236,0.324c-2.105,0-4.062-0.309-5.866-0.926
			c-1.806-0.619-3.365-1.615-4.676-2.984c-1.313-1.371-2.342-3.148-3.085-5.33s-1.116-4.842-1.116-7.984
			c0-2.775,0.368-5.241,1.104-7.398c0.734-2.156,1.817-3.986,3.248-5.49c1.428-1.504,3.188-2.674,5.276-3.51
			c2.09-0.837,4.489-1.305,7.198-1.404v2.182c-2.105,0.117-3.905,0.5-5.392,1.152c-1.488,0.652-2.7,1.59-3.636,2.809
			c-0.936,1.22-1.622,2.738-2.056,4.549c-0.437,1.814-0.652,3.943-0.652,6.384c0,2.843,0.25,5.261,0.752,7.257
			c0.501,2,1.206,3.625,2.12,4.879c0.908,1.254,1.996,2.17,3.258,2.744c1.261,0.578,2.655,0.865,4.174,0.865
			c0.953,0,1.856-0.115,2.709-0.35c-1.136-0.818-2.119-1.805-2.946-2.959c-0.827-1.152-1.508-2.406-2.042-3.762
			c-0.538-1.354-0.934-2.771-1.192-4.25c-0.26-1.479-0.39-2.963-0.39-4.449c0-1.673,0.185-3.291,0.553-4.854
			c0.369-1.562,0.937-2.949,1.704-4.162c0.771-1.211,1.752-2.185,2.948-2.92c1.193-0.737,2.627-1.104,4.3-1.104
			c1.721,0,3.163,0.389,4.325,1.164c1.161,0.778,2.094,1.789,2.795,3.035c0.703,1.246,1.2,2.641,1.493,4.187
			c0.292,1.548,0.438,3.099,0.438,4.653c0,1.369-0.112,2.762-0.337,4.174c-0.228,1.412-0.587,2.779-1.079,4.1
			c-0.494,1.32-1.129,2.568-1.905,3.736c-0.779,1.17-1.725,2.189-2.848,3.061c0.888,0.316,1.865,0.477,2.936,0.477
			c1.454,0,3.084-0.402,4.888-1.205L633.764,300.647z M626.343,285.528c0-1.453-0.071-2.894-0.213-4.313
			c-0.143-1.422-0.379-2.689-0.715-3.801c-0.334-1.109-0.789-2.01-1.366-2.695c-0.577-0.684-1.291-1.025-2.144-1.025
			c-0.871,0-1.571,0.301-2.106,0.9c-0.535,0.604-0.953,1.379-1.254,2.332c-0.3,0.953-0.501,2.023-0.602,3.209
			c-0.1,1.189-0.15,2.375-0.15,3.562c0,1.438,0.097,2.858,0.288,4.263c0.192,1.402,0.484,2.729,0.878,3.975
			c0.392,1.244,0.893,2.389,1.505,3.434c0.609,1.047,1.332,1.928,2.167,2.646c0.671-0.652,1.243-1.43,1.72-2.332
			c0.476-0.902,0.861-1.889,1.153-2.959c0.292-1.068,0.506-2.211,0.639-3.424C626.276,288.091,626.343,286.831,626.343,285.528z"/>
	</g>
	<g>
		<path d="M938.722,280.909h13.714l4.259-13.027l4.28,13.027h13.69l-11.08,8.082l4.258,13.004l-11.148-8.059l-11.126,8.059
			l4.232-13.004L938.722,280.909z M951.359,288.509l-3.206,9.938l8.541-6.135l8.791,6.455l-3.479-10.303l9.134-6.41h-11.127
			l-3.318-10.051l-3.251,10.051h-11.172L951.359,288.509z"/>
	</g>
	<g>
		<path d="M183.712,75.663h-5.273l-6.516-12.635h-6.541v12.635h-4.734V63.028h-6.585l-6.517,12.635h-5.274l18.048-34.995h5.369
			L183.712,75.663z M169.836,58.974l-6.844-13.29l-6.844,13.29H169.836z"/>
	</g>
	<g>
		<path d="M51.809,71.573v9.377h-4.313v-9.377c-3.938-0.406-7.157-2.007-9.656-4.804c-2.954-3.281-4.43-7.687-4.43-13.22
			c0-5.531,1.476-9.945,4.43-13.243c2.937-3.281,6.868-4.922,11.79-4.922c4.906,0,8.829,1.641,11.767,4.922
			c2.938,3.298,4.407,7.712,4.407,13.243c0,5.517-1.47,9.915-4.407,13.196C58.912,69.542,55.715,71.152,51.809,71.573z
			 M49.629,39.228c-3.438,0-6.165,1.282-8.18,3.843c-2.031,2.563-3.047,6.056-3.047,10.478c0,4.407,1.016,7.891,3.047,10.454
			c2.016,2.563,4.742,3.843,8.18,3.843c3.438,0,6.165-1.28,8.18-3.843c2-2.563,3-6.047,3-10.454c0-4.422-1-7.915-3-10.478
			C55.794,40.51,53.067,39.228,49.629,39.228z"/>
	</g>
	<g>
		<path d="M290.614,72.143l-0.586,3.579c-0.642,0.057-1.216,0.078-1.719,0.064c-0.55-0.017-1.142-0.08-1.78-0.19
			c-3.769-0.646-5.598-2.814-5.489-6.506c0.015-0.474,0.058-0.93,0.132-1.37l1.806-10.804l-17.77,10.769l-0.546-0.084l3.318-19.392
			c0.074-0.428,0.115-0.785,0.124-1.075c0.06-2.029-0.932-3.075-2.977-3.134c-0.87-0.025-1.864,0.037-2.983,0.187l0.632-3.576
			c0.674-0.057,1.248-0.078,1.719-0.065c0.52,0.015,1.106,0.078,1.759,0.19c3.783,0.646,5.62,2.814,5.512,6.506
			c-0.014,0.473-0.059,0.93-0.131,1.37l-1.883,11.053l17.794-10.814l0.524,0.063l-3.268,19.188c-0.075,0.44-0.115,0.799-0.123,1.074
			c-0.06,2.06,0.931,3.118,2.975,3.178C288.553,72.38,289.54,72.309,290.614,72.143z"/>
	</g>
	<g>
		<path d="M387.76,55.086l-8.082-14.011h29.717l-9.89,17.148c2.502,0.763,4.639,2.136,6.41,4.12
			c2.869,3.205,4.305,7.509,4.305,12.912h-4.877c0-4.365-0.977-7.776-2.931-10.233c-1.465-1.862-3.365-3.039-5.7-3.525v13.759
			h-4.626V61.497c-2.242,0.427-4.127,1.602-5.654,3.525c-1.984,2.502-2.976,5.914-2.976,10.233h-4.877
			c0-5.403,1.443-9.707,4.328-12.912c1.297-1.45,2.786-2.572,4.464-3.366h-13.439v16.278h-4.624V41.075h4.624v14.011H387.76z
			 M394.537,57.605l7.28-12.638h-14.584L394.537,57.605z"/>
	</g>
	<g>
		<path d="M851.24,66.475c-3.756-0.487-5.886-2.563-6.39-6.227c-0.151-1.114-0.228-2.163-0.228-3.148
			c0-0.983,0.099-1.881,0.298-2.69l-4.327,2.473c-1.466,4.045-3.725,7.014-6.777,8.906c-0.84,0.519-1.516,0.778-2.035,0.778
			c-0.84,0-1.261-0.603-1.261-1.808c0-2.352,2.229-5.548,6.685-9.593c0.947-2.107,1.42-4.091,1.42-5.953
			c0-0.886-0.108-1.74-0.321-2.564c-0.396-1.587-1.679-2.381-3.845-2.381c-0.871,0-2,0.825-3.389,2.473v-5.128
			c0.979-0.732,2.159-1.1,3.55-1.1c0.396,0,0.8,0.031,1.211,0.092c4.35,0.595,6.526,3.312,6.526,8.15
			c0,1.389-0.222,2.672-0.665,3.846l4.327-2.473c1.465-4.044,3.727-7.012,6.777-8.906c0.842-0.519,1.52-0.778,2.037-0.778
			c0.84,0,1.26,0.604,1.26,1.81c0,2.35-2.228,5.547-6.686,9.592c-0.945,2.107-1.418,4.091-1.418,5.952
			c0,0.886,0.105,1.74,0.319,2.565c0.398,1.588,1.679,2.381,3.847,2.381c0.87,0,1.998-0.825,3.389-2.474
			c-0.58,8.303-2.436,13.233-5.566,14.79c-1.067,0.549-2.218,0.825-3.455,0.825c-1.235,0-2.564-0.374-3.981-1.122V71.1
			c1.45,0.749,2.731,1.123,3.845,1.123C848.89,72.223,850.507,70.308,851.24,66.475z"/>
	</g>
	<g>
		<path d="M715.811,43.339c1.628-1.11,3.366-1.941,5.217-2.497c1.853-0.553,3.825-0.831,5.92-0.831c5.297,0,9.47,1.621,12.516,4.862
			c3.048,3.244,4.569,7.677,4.569,13.302c0,5.61-1.521,10.036-4.569,13.279c-3.046,3.244-7.219,4.864-12.516,4.864
			c-2.062,0-4.021-0.282-5.872-0.843c-1.85-0.563-3.606-1.406-5.265-2.532v-4.946c1.595,1.485,3.296,2.594,5.102,3.329
			c1.804,0.735,3.723,1.101,5.755,1.101c3.998,0,7.061-1.222,9.187-3.667c2.124-2.445,3.188-5.974,3.188-10.584
			c0-4.624-1.064-8.16-3.188-10.604c-2.126-2.445-5.188-3.669-9.187-3.669c-2.032,0-3.951,0.368-5.755,1.103
			c-1.806,0.734-3.507,1.844-5.102,3.328V43.339z M723.593,55.997h4.947v5.955h-4.947V55.997z"/>
	</g>
	<g>
		<path d="M390.083,157.988c5.021,0,9.065,1.629,12.133,4.887c3.068,3.261,4.603,7.544,4.603,12.855
			c0,5.434-1.596,9.747-4.785,12.937c-3.19,3.189-7.044,4.784-11.562,4.784c-3.632,0-6.635-0.82-9.009-2.462
			c-2.374-1.64-4.063-4.056-5.07-7.245h4.211c1.465,4.838,4.756,7.258,9.868,7.258c3.648,0,6.372-1.245,8.173-3.733
			c1.801-2.487,2.77-5.943,2.908-10.369H385.07v-2.793h16.483c-0.182-4.229-1.165-7.563-2.942-10.006
			c-1.778-2.442-4.49-3.664-8.139-3.664c-3.067,0-5.453,0.68-7.155,2.037c-1.701,1.36-2.835,3.473-3.4,6.343h-2.586v-7.875
			C382.154,158.973,386.405,157.988,390.083,157.988z M386.053,149.654c0.734,0,1.362,0.268,1.888,0.801
			c0.526,0.534,0.791,1.152,0.791,1.855c0,0.763-0.256,1.399-0.768,1.912c-0.511,0.511-1.147,0.767-1.911,0.767
			c-0.747,0-1.378-0.256-1.889-0.767c-0.511-0.513-0.766-1.149-0.766-1.912c0-0.703,0.262-1.321,0.789-1.855
			C384.713,149.922,385.336,149.654,386.053,149.654z M394.982,149.654c0.718,0,1.339,0.268,1.866,0.801
			c0.526,0.534,0.79,1.152,0.79,1.855c0,0.763-0.256,1.399-0.768,1.912c-0.511,0.511-1.14,0.767-1.888,0.767
			c-0.763,0-1.4-0.256-1.912-0.767c-0.511-0.513-0.766-1.149-0.766-1.912c0-0.703,0.262-1.321,0.789-1.855
			C393.619,149.922,394.25,149.654,394.982,149.654z"/>
	</g>
	<g>
		<path d="M174.42,183.113c0,0.612-0.168,1.21-0.504,1.798c-0.336,0.587-0.862,1.155-1.579,1.705
			c-0.625,0.474-1.457,0.89-2.496,1.248c-1.037,0.358-2.122,0.539-3.251,0.539c-1.618,0-3.048-0.252-4.292-0.757
			c-1.244-0.502-2.278-1.189-3.103-2.06c-0.839-0.885-1.461-1.88-1.866-2.989c-0.404-1.105-0.607-2.308-0.607-3.604
			c0-2.824,0.901-5.128,2.701-6.914c1.801-1.787,4.274-2.862,7.418-3.229v-5.059h2.106v8.677c-0.962,0.077-1.916,0.234-2.862,0.468
			c-0.946,0.238-1.794,0.623-2.541,1.157c-0.779,0.565-1.385,1.249-1.82,2.048c-0.435,0.803-0.653,1.92-0.653,3.354
			c0,2.291,0.484,4.046,1.454,5.267c0.969,1.221,2.384,1.831,4.246,1.831c0.703,0,1.317-0.103,1.844-0.308
			c0.526-0.208,0.91-0.402,1.155-0.584c-0.076-0.367-0.179-0.894-0.309-1.58c-0.13-0.687-0.195-1.213-0.195-1.58
			c0-0.565,0.244-1.08,0.732-1.545c0.489-0.465,1.199-0.698,2.129-0.698c0.825,0,1.412,0.281,1.763,0.847
			C174.245,181.709,174.42,182.365,174.42,183.113z M170.963,157.793c0,0.855-0.309,1.591-0.927,2.21
			c-0.618,0.617-1.355,0.926-2.21,0.926c-0.854,0-1.589-0.31-2.208-0.926c-0.619-0.62-0.929-1.355-0.929-2.21
			s0.31-1.583,0.929-2.186c0.618-0.603,1.354-0.905,2.208-0.905c0.855,0,1.592,0.302,2.21,0.905
			C170.654,156.209,170.963,156.938,170.963,157.793z"/>
	</g>
	<g>
		<path d="M297.005,284.938c0,2.633-0.458,5.09-1.374,7.371c-0.916,2.28-2.229,4.272-3.937,5.973c-1.709,1.7-3.711,3.009-6.01,3.925
			c-2.296,0.916-4.747,1.373-7.346,1.373c-2.569,0-4.985-0.441-7.249-1.323c-2.266-0.885-4.261-2.164-5.986-3.84
			c-1.725-1.675-3.062-3.675-4.01-5.997c-0.948-2.321-1.422-4.816-1.422-7.481s0.474-5.161,1.422-7.482
			c0.949-2.322,2.29-4.32,4.023-5.998c1.733-1.674,3.729-2.955,5.985-3.838c2.257-0.883,4.667-1.323,7.236-1.323
			c2.599,0,5.049,0.457,7.346,1.373c2.299,0.915,4.301,2.224,6.01,3.924c1.708,1.701,3.021,3.691,3.937,5.974
			C296.547,279.848,297.005,282.306,297.005,284.938z M293.94,284.938c0-3.075-0.656-5.855-1.963-8.341
			c-1.309-2.485-3.161-4.418-5.557-5.801c-2.396-1.382-5.097-2.073-8.107-2.073c-3.009,0-5.711,0.695-8.106,2.086
			c-2.396,1.389-4.24,3.323-5.532,5.8c-1.292,2.479-1.938,5.254-1.938,8.329c0,3.123,0.658,5.923,1.975,8.4
			c1.316,2.479,3.164,4.403,5.543,5.777c2.379,1.372,5.065,2.061,8.057,2.061c3.01,0,5.708-0.691,8.096-2.073
			c2.387-1.381,4.239-3.314,5.555-5.801C293.281,290.816,293.94,288.029,293.94,284.938z M285.647,275.151v4.611h-2.084
			c-0.376-1.063-0.78-1.889-1.214-2.479c-0.433-0.588-0.937-1.009-1.508-1.262c-0.572-0.253-1.358-0.381-2.355-0.381
			c-1.127,0-2.113,0.335-2.956,1.006c-0.842,0.67-1.496,1.68-1.962,3.029c-0.466,1.349-0.699,2.979-0.699,4.894
			c0,1.309,0.102,2.539,0.306,3.692c0.205,1.152,0.535,2.167,0.993,3.04c0.457,0.875,1.051,1.562,1.779,2.062
			c0.727,0.499,1.622,0.747,2.687,0.747c1.307,0,2.336-0.331,3.09-0.993c0.752-0.662,1.373-1.778,1.864-3.347h2.085v4.756
			c-1.243,0.541-2.441,0.913-3.593,1.117c-1.154,0.204-2.49,0.309-4.012,0.309c-3.089,0-5.428-0.922-7.014-2.761
			c-1.587-1.84-2.38-4.558-2.38-8.156c0-2.241,0.401-4.208,1.202-5.899c0.802-1.692,1.979-3.004,3.533-3.938
			c1.554-0.931,3.402-1.397,5.543-1.397c1.374,0,2.584,0.106,3.631,0.318C283.629,274.334,284.649,274.677,285.647,275.151z"/>
	</g>
	<g>
		<path d="M979.688,68.233c0,3.781-0.718,6.758-2.156,8.93c-1.626,2.469-4.086,3.704-7.383,3.704c-1.267,0-2.682-0.533-4.242-1.594
			c-1.362-1-2.712-2-4.056-3c-1.718-1.063-3.422-1.594-5.108-1.594c-1.721,0-3.449,0.531-5.182,1.594l-4.08,3
			c-1.546,1.062-2.96,1.594-4.24,1.594c-3.3,0-5.759-1.228-7.386-3.68c-1.436-2.172-2.156-5.149-2.156-8.931
			c0-3.095,0.47-6.406,1.407-9.938c1-3.688,2.282-6.719,3.844-9.095h5.251c-1.766,1.673-3.289,4.406-4.57,8.205
			c-1.188,3.531-1.782,6.719-1.782,9.563c0,5.093,1.798,7.64,5.393,7.64c1.935,0,3.562-0.42,4.875-1.264
			c1.063-0.798,2.123-1.594,3.188-2.393c1.438-0.844,3.258-1.265,5.461-1.265c2.171,0,3.962,0.42,5.366,1.265
			c1.064,0.799,2.119,1.594,3.164,2.393c1.298,0.843,2.916,1.264,4.854,1.264c3.609,0,5.415-2.546,5.415-7.64
			c0-2.844-0.604-6.032-1.806-9.563c-1.282-3.799-2.806-6.532-4.571-8.205h5.275c1.561,2.376,2.833,5.407,3.819,9.095
			C979.219,61.85,979.688,65.153,979.688,68.233z M964.826,42.309h-2.484c-0.328-2.422-1.633-3.632-3.913-3.632
			c-1.296,0-2.589,0.366-3.868,1.101c-2.061,1.172-4.055,1.937-5.976,2.297v-3.141c1.951-0.61,3.451-1.243,4.499-1.899
			c1.671-1.047,3.383-1.57,5.134-1.57C962.328,35.464,964.528,37.747,964.826,42.309z M959.482,45.379
			c0,4.173-1.704,6.258-5.109,6.258v-2.414c1.875,0.048,2.813-1.156,2.813-3.609h-2.788V41.91h5.085V45.379z"/>
	</g>
	<g>
		<path d="M858.895,183.808h-2.447v-1.174c-0.928-2.318-1.687-4.302-2.279-5.948c-1.024-2.862-1.755-4.782-2.195-5.757
			c-0.439-0.974-1.018-1.718-1.736-2.23c-0.721-0.511-1.697-0.767-2.927-0.767h-2.256v9.905c0,2.031,0.195,3.271,0.589,3.717
			c0.391,0.449,1.13,0.809,2.219,1.08v1.174h-9.954v-1.174c1.118-0.271,1.862-0.64,2.231-1.104c0.367-0.463,0.553-1.693,0.553-3.693
			v-9.905h-2.231c-1.2,0-2.158,0.25-2.878,0.754c-0.721,0.503-1.32,1.264-1.8,2.279c-0.479,1.015-1.217,2.922-2.207,5.72
			c-1.183,3.247-1.942,5.229-2.277,5.948v1.174h-8.132v-1.174c1.358-0.208,2.378-0.711,3.058-1.511
			c0.681-0.799,1.372-2.022,2.076-3.669l2.11-4.821c1.439-3.276,3.364-5.285,5.779-6.021v-0.192
			c-0.959-0.591-1.683-1.291-2.17-2.098c-0.49-0.807-1.1-2.267-1.834-4.377c-0.786-2.191-1.434-3.669-1.943-4.437
			c-0.513-0.768-1.128-1.151-1.846-1.151c-1.122,0-1.809,0.68-2.063,2.039h-2.327v-5.182c1.167-0.35,2.158-0.527,2.974-0.527
			c2.334,0,3.993,0.596,4.977,1.788c0.982,1.191,1.963,3.282,2.939,6.271c1.104,3.342,2.024,5.365,2.769,6.067
			c0.745,0.705,1.724,1.056,2.939,1.056h2.088v-8.779c0-1.901-0.167-3.113-0.495-3.632c-0.327-0.519-1.09-0.924-2.289-1.211v-1.175
			h9.954v1.175c-1.217,0.336-1.988,0.764-2.316,1.283c-0.326,0.52-0.491,1.707-0.491,3.561v8.779h2.111
			c1.229,0,2.214-0.364,2.95-1.092c0.735-0.727,1.646-2.737,2.735-6.031c1.037-3.085,2.049-5.2,3.032-6.343
			c0.984-1.144,2.634-1.716,4.954-1.716c0.799,0,1.782,0.177,2.951,0.527v5.182h-2.377c-0.256-1.358-0.942-2.039-2.062-2.039
			c-0.801,0-1.46,0.448-1.979,1.343c-0.521,0.896-1.109,2.311-1.763,4.245c-0.768,2.207-1.415,3.703-1.943,4.485
			c-0.528,0.785-1.223,1.448-2.086,1.991v0.192c2.475,0.752,4.396,2.758,5.755,6.021l2.111,4.821c0.352,0.8,0.751,1.606,1.2,2.422
			c0.446,0.815,0.982,1.472,1.606,1.967h3.933v10.578h-2.47c-0.161-1.665-0.469-3.239-0.924-4.726
			c-0.457-1.486-0.971-2.511-1.547-3.069C860.698,184.112,859.917,183.841,858.895,183.808z"/>
	</g>
	<g>
		<path d="M734.326,175.648c0-2.207-0.355-3.847-1.066-4.917c-0.713-1.073-1.597-1.766-2.649-2.086
			c-1.057-0.318-2.441-0.478-4.158-0.478h-3.924v-2.919h3.972c2.583,0,4.457-0.576,5.616-1.729c1.163-1.153,1.743-2.905,1.743-5.26
			c0-1.849-0.565-3.292-1.692-4.331c-1.129-1.038-2.575-1.557-4.341-1.557c-1.816,0-3.275,0.416-4.378,1.25
			c-1.106,0.834-2.065,2.33-2.883,4.488h-2.382v-6.45c3.827-0.965,7.312-1.448,10.451-1.448c6.752,0,10.13,2.568,10.13,7.702
			c0,3.845-2.159,6.624-6.476,8.341v0.344c4.415,1.276,6.623,3.941,6.623,7.995v7.482h4.222v10.818h-2.53
			c-0.161-1.702-0.476-3.312-0.942-4.833c-0.468-1.521-0.994-2.568-1.584-3.14c-0.556-0.523-1.356-0.802-2.402-0.834h-4.194v-1.201
			c0.898-0.229,1.527-0.483,1.888-0.762c0.361-0.278,0.61-0.703,0.748-1.275c0.141-0.572,0.21-1.538,0.21-2.894V175.648z"/>
	</g>
	<g>
		<path d="M505.405,44.65c-4.767-0.031-7.844,0.873-9.234,2.711c-0.896,1.183-1.52,3.055-1.871,5.612
			c1.296-1.375,2.622-2.335,3.981-2.878c1.966-0.783,3.99-1.176,6.067-1.176c3.917,0,7.1,1.295,9.547,3.885
			c2.446,2.591,3.669,5.997,3.669,10.218c0,4.222-1.223,7.627-3.669,10.218c-2.447,2.59-5.772,3.885-9.978,3.885
			c-4.894,0-8.652-1.248-11.272-3.741c-2.607-2.479-3.91-6.404-3.91-11.776c0-7.643,1.111-13.144,3.335-16.502
			c1.981-2.989,6.427-4.484,13.335-4.484c1.838,0,3.948-0.081,6.331-0.24c2.557-0.159,4.437-0.551,5.636-1.176v4.246
			c-1.503,0.576-3.462,0.929-5.876,1.056C509.77,44.603,507.738,44.65,505.405,44.65z M512.312,63.022
			c0-3.085-0.8-5.548-2.397-7.388c-1.601-1.837-3.887-2.757-6.86-2.757c-3.007,0-5.341,0.92-7.003,2.757
			c-1.679,1.856-2.52,4.317-2.52,7.388c0,3.023,0.841,5.493,2.52,7.412c1.614,1.839,3.949,2.757,7.003,2.757
			c3.006,0,5.292-0.918,6.86-2.757C511.512,68.58,512.312,66.109,512.312,63.022z"/>
	</g>
	<g>
		<path d="M503.256,284.915c-3.047-0.239-5.404-1.143-7.068-2.709s-2.498-3.652-2.498-6.261c0-2.692,0.923-4.86,2.763-6.505
			c1.843-1.644,4.287-2.467,7.335-2.467h11.437v2.275h-2.508v33.654h-2.274v-33.654h-4.912v15.792"/>
	</g>
	<g>
		<path d="M939.699,165.616v-6.932h9.907v-2.47h-4.558v-2.566h13.983v2.566h-4.558v2.47h9.906v6.932h-2.663l-0.072-0.575
			c-0.288-2.27-1.214-3.405-2.782-3.405h-4.389v6.763h5.276c5.516,0,9.219,1.019,11.104,3.058c1.887,2.039,2.831,4.529,2.831,7.471
			c0,2.942-0.944,5.433-2.831,7.471c-1.886,2.039-5.589,3.058-11.104,3.058h-14.702v-2.543h4.558v-25.278h-4.389
			c-1.568,0-2.495,1.135-2.782,3.405l-0.073,0.575H939.699z M954.475,186.914h6.355c2.255,0,4.046-0.619,5.372-1.858
			c1.329-1.239,1.992-3.218,1.992-5.936c0-2.703-0.658-4.677-1.979-5.924c-1.318-1.247-3.115-1.871-5.386-1.871h-6.355V186.914z"/>
	</g>
	<g>
		<path d="M71.101,274.319c0.235,1.408,0.352,2.658,0.352,3.752c0,2.109-0.593,3.954-1.781,5.53
			c-1.999,2.673-5.477,4.509-10.43,5.509c-4.454,0.906-8.126,1.361-11.017,1.361c-2.985,0-5.484-0.299-7.5-0.893
			c-5.157-1.514-7.735-4.367-7.735-8.555c0-2.155,0.492-3.955,1.478-5.391h4.313c-1.017,1.469-1.524,3.266-1.524,5.391
			c0,1.953,1.585,3.453,4.757,4.502c1.625,0.529,3.619,0.795,5.978,0.795c2.891,0,6.406-0.445,10.548-1.336
			c3.984-0.844,6.5-2.149,7.546-3.914c0.86-1.452,1.291-2.766,1.291-3.939c0-0.921-0.197-1.856-0.587-2.813H71.101z M56.17,293.47
			c0,1.439-0.492,2.658-1.477,3.656c-1,1-2.218,1.5-3.656,1.5s-2.649-0.5-3.632-1.5c-1.001-0.998-1.5-2.217-1.5-3.656
			c0-1.438,0.5-2.656,1.5-3.656c0.983-0.984,2.194-1.477,3.632-1.477s2.657,0.492,3.656,1.477
			C55.678,290.813,56.17,292.032,56.17,293.47z M46.349,271.251h3.516v3.514h-3.516V271.251z M53.312,293.47
			c0-0.623-0.22-1.156-0.657-1.594c-0.438-0.453-0.976-0.68-1.617-0.68s-1.179,0.219-1.617,0.656
			c-0.438,0.438-0.657,0.977-0.657,1.617c0,0.656,0.219,1.205,0.657,1.643c0.438,0.422,0.976,0.631,1.617,0.631
			s1.18-0.219,1.617-0.654C53.092,294.649,53.312,294.112,53.312,293.47z M52.209,271.251h3.516v3.514h-3.516V271.251z"/>
	</g>
	<g>
		<path d="M167.529,290.106c2.125,0,3.738-0.359,4.84-1.078c1.101-0.718,1.836-1.594,2.203-2.625
			c0.367-1.031,0.605-7.216,0.715-9.622c0.11-2.671,0.707-4.66,1.792-5.966c1.087-1.305,2.872-1.956,5.357-1.956v0.89
			c-0.891,0.063-1.498,0.41-1.817,1.044c-0.321,0.633-0.48,1.974-0.48,4.02c0,3-0.316,9.782-0.95,11.416
			c-0.632,1.632-1.902,2.955-3.809,3.973c-1.906,1.016-4.524,1.563-7.852,1.641v2.965c0,1.828,0.106,3.012,0.316,3.55
			c0.212,0.539,0.657,0.974,1.336,1.302c0.679,0.329,1.731,0.491,3.153,0.491v0.868h-14.112v-0.868
			c1.392-0.016,2.426-0.168,3.106-0.456c0.68-0.289,1.132-0.711,1.359-1.266s0.34-1.762,0.34-3.621v-2.965
			c-3.359-0.078-5.968-0.616-7.829-1.617c-1.859-1.002-3.121-2.31-3.785-3.927c-0.665-1.617-0.997-8.43-0.997-11.508
			c0-1.969-0.149-3.279-0.446-3.927c-0.296-0.647-0.914-1.02-1.85-1.114v-0.89c1.578,0.03,2.852,0.282,3.82,0.749
			c0.969,0.469,1.746,1.299,2.333,2.486c0.585,1.186,0.918,2.749,0.997,4.687c0.108,2.392,0.339,8.568,0.69,9.599
			c0.352,1.032,1.09,1.91,2.215,2.636c1.125,0.728,2.743,1.091,4.852,1.091v-14.685c0-1.828-0.106-3.013-0.316-3.55
			c-0.211-0.541-0.653-0.965-1.324-1.278c-0.672-0.313-1.727-0.477-3.166-0.492v-0.867h14.112v0.867
			c-1.438,0.016-2.494,0.175-3.165,0.479c-0.672,0.307-1.113,0.73-1.325,1.279c-0.21,0.547-0.316,1.733-0.316,3.562V290.106z"/>
	</g>
	<g>
		<path d="M630.646,43.339v4.993c-1.593-1.484-3.292-2.594-5.099-3.328c-1.805-0.734-3.723-1.103-5.753-1.103
			c-4.001,0-7.065,1.224-9.188,3.669c-2.126,2.445-3.188,5.98-3.188,10.604c0,4.61,1.062,8.139,3.188,10.584
			c2.122,2.445,5.187,3.667,9.188,3.667c2.03,0,3.948-0.366,5.753-1.101c1.807-0.735,3.506-1.844,5.099-3.329v4.946
			c-1.656,1.125-3.41,1.969-5.261,2.532c-1.853,0.562-3.81,0.843-5.872,0.843c-5.297,0-9.469-1.621-12.517-4.864
			c-3.046-3.243-4.57-7.668-4.57-13.279c0-5.625,1.524-10.058,4.57-13.302c3.048-3.241,7.22-4.862,12.517-4.862
			c2.093,0,4.067,0.278,5.919,0.831C627.281,41.398,629.021,42.229,630.646,43.339z M618.06,55.997h4.946v5.955h-4.946V55.997z"/>
	</g>
	<g>
		<path d="M401.166,290.623c0,2.633-0.731,4.605-2.193,5.915c-1.934,1.729-4.16,2.594-6.677,2.594c-0.866,0-1.89-0.023-3.071-0.076
			c-1.184-0.05-1.998-0.076-2.443-0.076c-1.221,0-1.832,0.827-1.832,2.481c0,1.449,1.399,2.174,4.197,2.174
			c0.827,0,2.054-0.076,3.682-0.229c1.475-0.14,2.417-0.196,2.824-0.172c1.246,0.089,2.404,0.368,3.472,0.84v3.187
			c-0.865-0.497-2.034-0.744-3.51-0.744c-0.751,0-1.927,0.085-3.53,0.259c-1.602,0.17-2.784,0.256-3.547,0.256
			c-1.59,0-2.857-0.279-3.797-0.84c-2.074-1.233-3.11-2.777-3.11-4.636c0-1.551,0.337-2.843,1.012-3.872
			c0.801-1.195,1.946-1.794,3.435-1.794h6.695c1.324,0,2.43-0.559,3.322-1.678c0.827-1.043,1.239-2.238,1.239-3.588
			c0-2.403-1.189-3.954-3.568-4.655c-1.119-0.316-3.262-0.477-6.429-0.477v-3.167c0.229,0,0.617,0.008,1.164,0.019
			c0.547,0.014,0.966,0.021,1.26,0.021c2.073,0,3.63-0.241,4.673-0.726c1.488-0.688,2.232-1.928,2.232-3.72
			c0-3.027-2.002-4.541-6.009-4.541c-2.099,0-4.559,0.47-7.382,1.411v-3.434c2.034-0.573,3.872-0.94,5.512-1.106l-3.034-7.385h2.195
			l3.052,7.271l2.023-4.235c0.382-0.814,0.667-1.374,0.859-1.68c0.292-0.496,0.584-0.857,0.876-1.086
			c0.446-0.345,1.088-0.516,1.928-0.516c0.331,0,0.717,0.063,1.164,0.19v1.659l-0.745-0.095c-0.14-0.025-0.305-0.038-0.496-0.038
			c-0.433,0-0.967,0.706-1.602,2.117l-1.718,3.854c2.111,0.305,3.79,1.011,5.037,2.117c1.45,1.271,2.175,2.971,2.175,5.093
			c0,3.295-1.736,5.381-5.209,6.258c1.794,0.383,3.211,1.158,4.254,2.329C400.625,287.322,401.166,288.829,401.166,290.623z"/>
	</g>
	<g>
		<path d="M825.662,280.909h13.716l4.257-13.027l4.28,13.027h13.691l-11.082,8.082l4.259,13.004l-11.148-8.059l-11.125,8.059
			l4.231-13.004L825.662,280.909z"/>
	</g>
	<g>
		<path d="M746.218,281.263l-3.435,5.977l-7.418-4.293l-3.603,6.217l7.416,4.291l-3.434,5.977l-7.417-4.295l-4.295,7.418
			l-5.976-3.434l4.294-7.416l-7.419-4.293l3.434-5.975l7.42,4.293l3.605-6.217l-7.418-4.293l3.434-5.975l7.417,4.293l3.608-6.215
			l5.973,3.433l-3.605,6.215L746.218,281.263z"/>
	</g>
	<g>
		<path d="M294.844,177.671c-0.906,1.922-2.153,3.414-3.739,4.477c-1.586,1.063-3.34,1.594-5.262,1.594
			c-1.984,0-3.664-0.355-5.039-1.066c-1.376-0.711-2.603-1.825-3.681-3.34h-0.14c-1.204,1.563-2.481,2.688-3.833,3.375
			s-2.941,1.031-4.77,1.031c-1.765,0-3.215-0.52-4.349-1.56c-1.132-1.038-1.698-2.44-1.698-4.206c0-0.952,0.132-1.793,0.397-2.521
			c0.266-0.727,0.625-1.362,1.079-1.911c0.437-0.514,0.94-0.943,1.512-1.288c0.571-0.343,1.153-0.641,1.746-0.891
			c2.157-0.859,3.829-1.461,5.017-1.804c1.188-0.345,2.32-0.681,3.398-1.009v-2.508c0-0.219-0.044-0.602-0.129-1.148
			c-0.086-0.547-0.27-1.11-0.55-1.688c-0.282-0.562-0.693-1.058-1.231-1.488c-0.539-0.429-1.262-0.645-2.167-0.645
			c-0.782,0-1.481,0.123-2.097,0.364c-0.618,0.242-1.052,0.496-1.302,0.761c0,0.313,0.074,0.773,0.224,1.385
			c0.148,0.608,0.222,1.171,0.222,1.687c0,0.547-0.246,1.047-0.738,1.5s-1.177,0.68-2.052,0.68c-0.78,0-1.355-0.278-1.723-0.832
			c-0.367-0.554-0.55-1.176-0.55-1.863c0-0.751,0.25-1.441,0.75-2.075c0.5-0.632,1.148-1.207,1.945-1.722
			c0.719-0.469,1.59-0.853,2.614-1.147c1.022-0.299,1.957-0.447,2.8-0.447c1.562,0,2.976,0.196,4.243,0.586
			c1.265,0.392,2.281,1.141,3.046,2.25c0.798-0.827,1.778-1.508,2.942-2.038c1.164-0.531,2.371-0.798,3.621-0.798
			c1.625,0,3,0.262,4.125,0.785c1.125,0.525,2.032,1.216,2.719,2.074c0.72,0.876,1.242,1.88,1.571,3.013
			c0.328,1.133,0.492,2.355,0.492,3.668v1.359h-14.484c0,3.57,0.581,6.283,1.745,8.14c1.164,1.855,2.972,2.783,5.426,2.783
			c1.626,0,2.907-0.404,3.844-1.212c0.938-0.81,1.743-1.913,2.415-3.313L294.844,177.671z M275.53,178.585v-8.041
			c-1.254,0.251-2.358,0.54-3.314,0.867c-0.956,0.33-1.856,0.783-2.703,1.36c-0.8,0.548-1.419,1.196-1.857,1.947
			c-0.439,0.749-0.658,1.616-0.658,2.601c0,1.298,0.31,2.254,0.929,2.871c0.619,0.617,1.437,0.926,2.455,0.926
			c1.192,0,2.21-0.254,3.056-0.763C274.284,179.847,274.98,179.256,275.53,178.585z M289.64,168.342
			c0-0.623-0.063-1.418-0.188-2.383c-0.126-0.965-0.321-1.745-0.585-2.336c-0.329-0.715-0.793-1.308-1.396-1.776
			c-0.602-0.468-1.402-0.7-2.402-0.7c-1.563,0-2.833,0.705-3.809,2.112c-0.977,1.411-1.473,3.105-1.488,5.083H289.64z"/>
	</g>
	<g>
		<path d="M633.483,187.105l-2.219,9.446h-4.723v-1.43l4.002-6.984h-9.265v-1.148c1.309-0.312,2.132-0.723,2.478-1.23
			c0.343-0.507,0.516-1.661,0.516-3.458v-10.078c0-3.298,0.034-5.417,0.102-6.354h-0.102L609.592,182.3
			c0,1.875,0.183,3.055,0.554,3.539c0.372,0.484,1.182,0.867,2.439,1.149v1.148h-10.786v-1.148c1.324-0.312,2.164-0.723,2.516-1.23
			c0.352-0.507,0.529-1.661,0.529-3.458v-20.276c0-2.062-0.225-3.305-0.672-3.728c-0.447-0.42-1.238-0.757-2.373-1.006v-1.15h10.786
			v1.15c-1.152,0.265-1.94,0.612-2.362,1.042c-0.421,0.429-0.631,1.661-0.631,3.691v10.314c0,2.313-0.051,4.258-0.154,5.836h0.154
			l14.681-16.431c0-1.656-0.177-2.735-0.53-3.234c-0.352-0.501-1.172-0.907-2.463-1.219v-1.15h10.733v1.15
			c-1.15,0.265-1.938,0.612-2.36,1.042c-0.421,0.429-0.634,1.661-0.634,3.691v24.19h4.465V187.105z M625.409,147.515
			c0,1.736-0.832,3.094-2.492,4.08c-1.659,0.982-3.709,1.476-6.154,1.476c-2.665,0-4.728-0.477-6.191-1.43
			c-1.461-0.954-2.194-2.329-2.194-4.125v-0.96h4.361v0.96c0,1.313,0.306,2.273,0.916,2.884c0.61,0.608,1.665,0.914,3.161,0.914
			c1.549,0,2.641-0.293,3.278-0.88c0.636-0.584,0.954-1.557,0.954-2.918v-0.96h4.361V147.515z"/>
	</g>
	<g>
		<path d="M487.429,180.887h0.908c0.064,1.162,0.408,1.971,1.03,2.428c0.621,0.458,1.611,0.687,2.967,0.687h6.697l-0.048-1.644
			c-2.602-0.522-4.973-1.97-7.115-4.342c-2.144-2.371-3.213-5.364-3.213-8.978c0-4.006,1.492-7.424,4.477-10.254
			c2.985-2.828,6.881-4.244,11.689-4.244c4.661,0,8.471,1.338,11.433,4.012c2.957,2.673,4.438,6.095,4.438,10.266
			c0,3.384-0.918,6.258-2.76,8.621c-1.84,2.364-4.326,4.003-7.469,4.918l-0.244,1.644h6.818c1.554,0,2.58-0.294,3.076-0.883
			c0.499-0.589,0.767-1.332,0.8-2.232h0.905v7.678h-13.734l0.638-7.408c4.221-1.325,6.328-5.226,6.328-11.702
			c0-4.234-1.034-7.481-3.103-9.738c-2.069-2.256-4.494-3.384-7.272-3.384c-2.961,0-5.41,1.198-7.348,3.593
			c-1.938,2.397-2.908,5.459-2.908,9.188c0,2.696,0.434,5.153,1.301,7.37c0.866,2.215,2.526,3.773,4.979,4.673l0.468,7.408h-13.737
			V180.887z"/>
	</g>
</g>
<g id="buttons">
	<g>
		<g>
			<g>
				<g>
					<rect x="919.842" y="239.527" fill="none" stroke="#000000" stroke-miterlimit="10" width="73.7" height="73.697"/>
					<rect x="907.086" y="226.771" fill="none" stroke="#000000" stroke-miterlimit="10" width="99.212" height="99.209"/>
					<line fill="none" stroke="#000000" stroke-miterlimit="10" x1="993.542" y1="313.225" x2="1006.298" y2="325.98"/>
					<line fill="none" stroke="#000000" stroke-miterlimit="10" x1="919.842" y1="313.225" x2="907.086" y2="325.98"/>
					<line fill="none" stroke="#000000" stroke-miterlimit="10" x1="1006.298" y1="226.771" x2="993.542" y2="239.527"/>
					<line fill="none" stroke="#000000" stroke-miterlimit="10" x1="919.842" y1="239.527" x2="907.086" y2="226.771"/>
					<rect x="942.52" y="245.195" fill="none" stroke="#000000" stroke-miterlimit="10" width="28.347" height="11.339"/>
				</g>
			</g>
			<g>
				<g>
					<rect x="806.456" y="239.527" fill="none" stroke="#000000" stroke-miterlimit="10" width="73.7" height="73.697"/>
					<rect x="793.7" y="226.771" fill="none" stroke="#000000" stroke-miterlimit="10" width="99.212" height="99.209"/>
					<line fill="none" stroke="#000000" stroke-miterlimit="10" x1="880.156" y1="313.225" x2="892.912" y2="325.98"/>
					<line fill="none" stroke="#000000" stroke-miterlimit="10" x1="806.456" y1="313.225" x2="793.7" y2="325.98"/>
					<line fill="none" stroke="#000000" stroke-miterlimit="10" x1="892.912" y1="226.771" x2="880.156" y2="239.527"/>
					<line fill="none" stroke="#000000" stroke-miterlimit="10" x1="806.456" y1="239.527" x2="793.7" y2="226.771"/>
					<rect x="829.134" y="245.195" fill="none" stroke="#000000" stroke-miterlimit="10" width="28.347" height="11.339"/>
				</g>
			</g>
			<g>
				<g>
					<rect x="693.07" y="239.527" fill="none" stroke="#000000" stroke-miterlimit="10" width="73.7" height="73.697"/>
					<rect x="680.314" y="226.771" fill="none" stroke="#000000" stroke-miterlimit="10" width="99.212" height="99.209"/>
					<line fill="none" stroke="#000000" stroke-miterlimit="10" x1="766.771" y1="313.225" x2="779.526" y2="325.98"/>
					<line fill="none" stroke="#000000" stroke-miterlimit="10" x1="693.07" y1="313.225" x2="680.314" y2="325.98"/>
					<line fill="none" stroke="#000000" stroke-miterlimit="10" x1="779.526" y1="226.771" x2="766.771" y2="239.527"/>
					<line fill="none" stroke="#000000" stroke-miterlimit="10" x1="693.07" y1="239.527" x2="680.314" y2="226.771"/>
					<rect x="715.748" y="245.195" fill="none" stroke="#000000" stroke-miterlimit="10" width="28.347" height="11.339"/>
				</g>
			</g>
			<g>
				<g>
					<rect x="579.685" y="239.527" fill="none" stroke="#000000" stroke-miterlimit="10" width="73.7" height="73.697"/>
					<rect x="566.929" y="226.771" fill="none" stroke="#000000" stroke-miterlimit="10" width="99.212" height="99.209"/>
					<line fill="none" stroke="#000000" stroke-miterlimit="10" x1="653.385" y1="313.225" x2="666.141" y2="325.98"/>
					<line fill="none" stroke="#000000" stroke-miterlimit="10" x1="579.685" y1="313.225" x2="566.929" y2="325.98"/>
					<line fill="none" stroke="#000000" stroke-miterlimit="10" x1="666.141" y1="226.771" x2="653.385" y2="239.527"/>
					<line fill="none" stroke="#000000" stroke-miterlimit="10" x1="579.685" y1="239.527" x2="566.929" y2="226.771"/>
					<rect x="602.362" y="245.195" fill="none" stroke="#000000" stroke-miterlimit="10" width="28.347" height="11.339"/>
				</g>
			</g>
			<g>
				<g>
					<rect x="466.298" y="239.527" fill="none" stroke="#000000" stroke-miterlimit="10" width="73.701" height="73.697"/>
					<rect x="453.543" y="226.771" fill="none" stroke="#000000" stroke-miterlimit="10" width="99.212" height="99.209"/>
					<line fill="none" stroke="#000000" stroke-miterlimit="10" x1="539.999" y1="313.225" x2="552.755" y2="325.98"/>
					<line fill="none" stroke="#000000" stroke-miterlimit="10" x1="466.298" y1="313.225" x2="453.543" y2="325.98"/>
					<line fill="none" stroke="#000000" stroke-miterlimit="10" x1="552.755" y1="226.771" x2="539.999" y2="239.527"/>
					<line fill="none" stroke="#000000" stroke-miterlimit="10" x1="466.298" y1="239.527" x2="453.543" y2="226.771"/>
					<rect x="488.977" y="245.195" fill="none" stroke="#000000" stroke-miterlimit="10" width="28.347" height="11.339"/>
				</g>
			</g>
			<g>
				<g>
					<rect x="352.913" y="239.527" fill="none" stroke="#000000" stroke-miterlimit="10" width="73.701" height="73.697"/>
					<rect x="340.157" y="226.771" fill="none" stroke="#000000" stroke-miterlimit="10" width="99.211" height="99.209"/>
					<line fill="none" stroke="#000000" stroke-miterlimit="10" x1="426.613" y1="313.225" x2="439.369" y2="325.98"/>
					<line fill="none" stroke="#000000" stroke-miterlimit="10" x1="352.913" y1="313.225" x2="340.157" y2="325.98"/>
					<line fill="none" stroke="#000000" stroke-miterlimit="10" x1="439.369" y1="226.771" x2="426.613" y2="239.527"/>
					<line fill="none" stroke="#000000" stroke-miterlimit="10" x1="352.913" y1="239.527" x2="340.157" y2="226.771"/>
					<rect x="375.591" y="245.195" fill="none" stroke="#000000" stroke-miterlimit="10" width="28.346" height="11.339"/>
				</g>
			</g>
			<g>
				<g>
					<rect x="239.527" y="239.527" fill="none" stroke="#000000" stroke-miterlimit="10" width="73.701" height="73.697"/>
					<rect x="226.771" y="226.771" fill="none" stroke="#000000" stroke-miterlimit="10" width="99.211" height="99.209"/>
					<line fill="none" stroke="#000000" stroke-miterlimit="10" x1="313.228" y1="313.225" x2="325.983" y2="325.98"/>
					<line fill="none" stroke="#000000" stroke-miterlimit="10" x1="239.527" y1="313.225" x2="226.771" y2="325.98"/>
					<line fill="none" stroke="#000000" stroke-miterlimit="10" x1="325.983" y1="226.771" x2="313.228" y2="239.527"/>
					<line fill="none" stroke="#000000" stroke-miterlimit="10" x1="239.527" y1="239.527" x2="226.771" y2="226.771"/>
					<rect x="262.205" y="245.195" fill="none" stroke="#000000" stroke-miterlimit="10" width="28.346" height="11.339"/>
				</g>
			</g>
			<g>
				<g>
					<rect x="126.141" y="239.527" fill="none" stroke="#000000" stroke-miterlimit="10" width="73.701" height="73.697"/>
					<rect x="113.386" y="226.771" fill="none" stroke="#000000" stroke-miterlimit="10" width="99.211" height="99.209"/>
					<line fill="none" stroke="#000000" stroke-miterlimit="10" x1="199.842" y1="313.225" x2="212.597" y2="325.98"/>
					<line fill="none" stroke="#000000" stroke-miterlimit="10" x1="126.141" y1="313.225" x2="113.386" y2="325.98"/>
					<line fill="none" stroke="#000000" stroke-miterlimit="10" x1="212.597" y1="226.771" x2="199.842" y2="239.527"/>
					<line fill="none" stroke="#000000" stroke-miterlimit="10" x1="126.141" y1="239.527" x2="113.386" y2="226.771"/>
					<rect x="148.819" y="245.195" fill="none" stroke="#000000" stroke-miterlimit="10" width="28.346" height="11.339"/>
				</g>
			</g>
			<g>
				<g>
					<rect x="12.755" y="239.527" fill="none" stroke="#000000" stroke-miterlimit="10" width="73.701" height="73.697"/>
					<rect y="226.771" fill="none" stroke="#000000" stroke-miterlimit="10" width="99.211" height="99.209"/>
					<line fill="none" stroke="#000000" stroke-miterlimit="10" x1="86.456" y1="313.225" x2="99.211" y2="325.98"/>
					<line fill="none" stroke="#000000" stroke-miterlimit="10" x1="12.755" y1="313.225" x2="0" y2="325.98"/>
					<line fill="none" stroke="#000000" stroke-miterlimit="10" x1="99.211" y1="226.771" x2="86.456" y2="239.527"/>
					<line fill="none" stroke="#000000" stroke-miterlimit="10" x1="12.755" y1="239.527" x2="0" y2="226.771"/>
					<rect x="35.434" y="245.195" fill="none" stroke="#000000" stroke-miterlimit="10" width="28.346" height="11.339"/>
				</g>
			</g>
		</g>
		<g>
			<g>
				<g>
					<rect x="919.842" y="126.141" fill="none" stroke="#000000" stroke-miterlimit="10" width="73.7" height="73.697"/>
					<rect x="907.086" y="113.386" fill="none" stroke="#000000" stroke-miterlimit="10" width="99.212" height="99.208"/>
					<line fill="none" stroke="#000000" stroke-miterlimit="10" x1="993.542" y1="199.838" x2="1006.298" y2="212.594"/>
					<line fill="none" stroke="#000000" stroke-miterlimit="10" x1="919.842" y1="199.838" x2="907.086" y2="212.594"/>
					<line fill="none" stroke="#000000" stroke-miterlimit="10" x1="1006.298" y1="113.386" x2="993.542" y2="126.141"/>
					<line fill="none" stroke="#000000" stroke-miterlimit="10" x1="919.842" y1="126.141" x2="907.086" y2="113.386"/>
					<rect x="942.52" y="131.81" fill="none" stroke="#000000" stroke-miterlimit="10" width="28.347" height="11.338"/>
				</g>
			</g>
			<g>
				<g>
					<rect x="806.456" y="126.141" fill="none" stroke="#000000" stroke-miterlimit="10" width="73.7" height="73.697"/>
					<rect x="793.7" y="113.386" fill="none" stroke="#000000" stroke-miterlimit="10" width="99.212" height="99.208"/>
					<line fill="none" stroke="#000000" stroke-miterlimit="10" x1="880.156" y1="199.838" x2="892.912" y2="212.594"/>
					<line fill="none" stroke="#000000" stroke-miterlimit="10" x1="806.456" y1="199.838" x2="793.7" y2="212.594"/>
					<line fill="none" stroke="#000000" stroke-miterlimit="10" x1="892.912" y1="113.386" x2="880.156" y2="126.141"/>
					<line fill="none" stroke="#000000" stroke-miterlimit="10" x1="806.456" y1="126.141" x2="793.7" y2="113.386"/>
					<rect x="829.134" y="131.81" fill="none" stroke="#000000" stroke-miterlimit="10" width="28.347" height="11.338"/>
				</g>
			</g>
			<g>
				<g>
					<rect x="693.07" y="126.141" fill="none" stroke="#000000" stroke-miterlimit="10" width="73.7" height="73.697"/>
					<rect x="680.314" y="113.386" fill="none" stroke="#000000" stroke-miterlimit="10" width="99.212" height="99.208"/>
					<line fill="none" stroke="#000000" stroke-miterlimit="10" x1="766.771" y1="199.838" x2="779.526" y2="212.594"/>
					<line fill="none" stroke="#000000" stroke-miterlimit="10" x1="693.07" y1="199.838" x2="680.314" y2="212.594"/>
					<line fill="none" stroke="#000000" stroke-miterlimit="10" x1="779.526" y1="113.386" x2="766.771" y2="126.141"/>
					<line fill="none" stroke="#000000" stroke-miterlimit="10" x1="693.07" y1="126.141" x2="680.314" y2="113.386"/>
					<rect x="715.748" y="131.81" fill="none" stroke="#000000" stroke-miterlimit="10" width="28.347" height="11.338"/>
				</g>
			</g>
			<g>
				<g>
					<rect x="579.685" y="126.141" fill="none" stroke="#000000" stroke-miterlimit="10" width="73.7" height="73.697"/>
					<rect x="566.929" y="113.386" fill="none" stroke="#000000" stroke-miterlimit="10" width="99.212" height="99.208"/>
					<line fill="none" stroke="#000000" stroke-miterlimit="10" x1="653.385" y1="199.838" x2="666.141" y2="212.594"/>
					<line fill="none" stroke="#000000" stroke-miterlimit="10" x1="579.685" y1="199.838" x2="566.929" y2="212.594"/>
					<line fill="none" stroke="#000000" stroke-miterlimit="10" x1="666.141" y1="113.386" x2="653.385" y2="126.141"/>
					<line fill="none" stroke="#000000" stroke-miterlimit="10" x1="579.685" y1="126.141" x2="566.929" y2="113.386"/>
					<rect x="602.362" y="131.81" fill="none" stroke="#000000" stroke-miterlimit="10" width="28.347" height="11.338"/>
				</g>
			</g>
			<g>
				<g>
					<rect x="466.298" y="126.141" fill="none" stroke="#000000" stroke-miterlimit="10" width="73.701" height="73.697"/>
					<rect x="453.543" y="113.386" fill="none" stroke="#000000" stroke-miterlimit="10" width="99.212" height="99.208"/>
					<line fill="none" stroke="#000000" stroke-miterlimit="10" x1="539.999" y1="199.838" x2="552.755" y2="212.594"/>
					<line fill="none" stroke="#000000" stroke-miterlimit="10" x1="466.298" y1="199.838" x2="453.543" y2="212.594"/>
					<line fill="none" stroke="#000000" stroke-miterlimit="10" x1="552.755" y1="113.386" x2="539.999" y2="126.141"/>
					<line fill="none" stroke="#000000" stroke-miterlimit="10" x1="466.298" y1="126.141" x2="453.543" y2="113.386"/>
					<rect x="488.977" y="131.81" fill="none" stroke="#000000" stroke-miterlimit="10" width="28.347" height="11.338"/>
				</g>
			</g>
			<g>
				<g>
					<rect x="352.913" y="126.141" fill="none" stroke="#000000" stroke-miterlimit="10" width="73.701" height="73.697"/>
					<rect x="340.157" y="113.386" fill="none" stroke="#000000" stroke-miterlimit="10" width="99.211" height="99.208"/>
					<line fill="none" stroke="#000000" stroke-miterlimit="10" x1="426.613" y1="199.838" x2="439.369" y2="212.594"/>
					<line fill="none" stroke="#000000" stroke-miterlimit="10" x1="352.913" y1="199.838" x2="340.157" y2="212.594"/>
					<line fill="none" stroke="#000000" stroke-miterlimit="10" x1="439.369" y1="113.386" x2="426.613" y2="126.141"/>
					<line fill="none" stroke="#000000" stroke-miterlimit="10" x1="352.913" y1="126.141" x2="340.157" y2="113.386"/>
					<rect x="375.591" y="131.81" fill="none" stroke="#000000" stroke-miterlimit="10" width="28.346" height="11.338"/>
				</g>
			</g>
			<g>
				<g>
					<rect x="239.527" y="126.141" fill="none" stroke="#000000" stroke-miterlimit="10" width="73.701" height="73.697"/>
					<rect x="226.771" y="113.386" fill="none" stroke="#000000" stroke-miterlimit="10" width="99.211" height="99.208"/>
					<line fill="none" stroke="#000000" stroke-miterlimit="10" x1="313.228" y1="199.838" x2="325.983" y2="212.594"/>
					<line fill="none" stroke="#000000" stroke-miterlimit="10" x1="239.527" y1="199.838" x2="226.771" y2="212.594"/>
					<line fill="none" stroke="#000000" stroke-miterlimit="10" x1="325.983" y1="113.386" x2="313.228" y2="126.141"/>
					<line fill="none" stroke="#000000" stroke-miterlimit="10" x1="239.527" y1="126.141" x2="226.771" y2="113.386"/>
					<rect x="262.205" y="131.81" fill="none" stroke="#000000" stroke-miterlimit="10" width="28.346" height="11.338"/>
				</g>
			</g>
			<g>
				<g>
					<rect x="126.141" y="126.141" fill="none" stroke="#000000" stroke-miterlimit="10" width="73.701" height="73.697"/>
					<rect x="113.386" y="113.386" fill="none" stroke="#000000" stroke-miterlimit="10" width="99.211" height="99.208"/>
					<line fill="none" stroke="#000000" stroke-miterlimit="10" x1="199.842" y1="199.838" x2="212.597" y2="212.594"/>
					<line fill="none" stroke="#000000" stroke-miterlimit="10" x1="126.141" y1="199.838" x2="113.386" y2="212.594"/>
					<line fill="none" stroke="#000000" stroke-miterlimit="10" x1="212.597" y1="113.386" x2="199.842" y2="126.141"/>
					<line fill="none" stroke="#000000" stroke-miterlimit="10" x1="126.141" y1="126.141" x2="113.386" y2="113.386"/>
					<rect x="148.819" y="131.81" fill="none" stroke="#000000" stroke-miterlimit="10" width="28.346" height="11.338"/>
				</g>
			</g>
			<g>
				<g>
					<rect x="12.755" y="126.141" fill="none" stroke="#000000" stroke-miterlimit="10" width="73.701" height="73.697"/>
					<rect y="113.386" fill="none" stroke="#000000" stroke-miterlimit="10" width="99.211" height="99.208"/>
					<line fill="none" stroke="#000000" stroke-miterlimit="10" x1="86.456" y1="199.838" x2="99.211" y2="212.594"/>
					<line fill="none" stroke="#000000" stroke-miterlimit="10" x1="12.755" y1="199.838" x2="0" y2="212.594"/>
					<line fill="none" stroke="#000000" stroke-miterlimit="10" x1="99.211" y1="113.386" x2="86.456" y2="126.141"/>
					<line fill="none" stroke="#000000" stroke-miterlimit="10" x1="12.755" y1="126.141" x2="0" y2="113.386"/>
					<rect x="35.434" y="131.81" fill="none" stroke="#000000" stroke-miterlimit="10" width="28.346" height="11.338"/>
				</g>
			</g>
		</g>
		<g>
			<g>
				<g>
					<rect x="919.842" y="12.755" fill="none" stroke="#000000" stroke-miterlimit="10" width="73.7" height="73.697"/>
					<rect x="907.086" fill="none" stroke="#000000" stroke-miterlimit="10" width="99.212" height="99.208"/>
					<line fill="none" stroke="#000000" stroke-miterlimit="10" x1="993.542" y1="86.453" x2="1006.298" y2="99.208"/>
					<line fill="none" stroke="#000000" stroke-miterlimit="10" x1="919.842" y1="86.453" x2="907.086" y2="99.208"/>
					<line fill="none" stroke="#000000" stroke-miterlimit="10" x1="1006.298" y1="0" x2="993.542" y2="12.755"/>
					<line fill="none" stroke="#000000" stroke-miterlimit="10" x1="919.842" y1="12.755" x2="907.086" y2="0"/>
					<rect x="942.52" y="18.424" fill="none" stroke="#000000" stroke-miterlimit="10" width="28.347" height="11.338"/>
				</g>
			</g>
			<g>
				<g>
					<rect x="806.456" y="12.755" fill="none" stroke="#000000" stroke-miterlimit="10" width="73.7" height="73.697"/>
					<rect x="793.7" fill="none" stroke="#000000" stroke-miterlimit="10" width="99.212" height="99.208"/>
					<line fill="none" stroke="#000000" stroke-miterlimit="10" x1="880.156" y1="86.453" x2="892.912" y2="99.208"/>
					<line fill="none" stroke="#000000" stroke-miterlimit="10" x1="806.456" y1="86.453" x2="793.7" y2="99.208"/>
					<line fill="none" stroke="#000000" stroke-miterlimit="10" x1="892.912" y1="0" x2="880.156" y2="12.755"/>
					<line fill="none" stroke="#000000" stroke-miterlimit="10" x1="806.456" y1="12.755" x2="793.7" y2="0"/>
					<rect x="829.134" y="18.424" fill="none" stroke="#000000" stroke-miterlimit="10" width="28.347" height="11.338"/>
				</g>
			</g>
			<g>
				<g>
					<rect x="693.07" y="12.755" fill="none" stroke="#000000" stroke-miterlimit="10" width="73.7" height="73.697"/>
					<rect x="680.314" fill="none" stroke="#000000" stroke-miterlimit="10" width="99.212" height="99.208"/>
					<line fill="none" stroke="#000000" stroke-miterlimit="10" x1="766.771" y1="86.453" x2="779.526" y2="99.208"/>
					<line fill="none" stroke="#000000" stroke-miterlimit="10" x1="693.07" y1="86.453" x2="680.314" y2="99.208"/>
					<line fill="none" stroke="#000000" stroke-miterlimit="10" x1="779.526" y1="0" x2="766.771" y2="12.755"/>
					<line fill="none" stroke="#000000" stroke-miterlimit="10" x1="693.07" y1="12.755" x2="680.314" y2="0"/>
					<rect x="715.748" y="18.424" fill="none" stroke="#000000" stroke-miterlimit="10" width="28.347" height="11.338"/>
				</g>
			</g>
			<g>
				<g>
					<rect x="579.685" y="12.755" fill="none" stroke="#000000" stroke-miterlimit="10" width="73.7" height="73.697"/>
					<rect x="566.929" fill="none" stroke="#000000" stroke-miterlimit="10" width="99.212" height="99.208"/>
					<line fill="none" stroke="#000000" stroke-miterlimit="10" x1="653.385" y1="86.453" x2="666.141" y2="99.208"/>
					<line fill="none" stroke="#000000" stroke-miterlimit="10" x1="579.685" y1="86.453" x2="566.929" y2="99.208"/>
					<line fill="none" stroke="#000000" stroke-miterlimit="10" x1="666.141" y1="0" x2="653.385" y2="12.755"/>
					<line fill="none" stroke="#000000" stroke-miterlimit="10" x1="579.685" y1="12.755" x2="566.929" y2="0"/>
					<rect x="602.362" y="18.424" fill="none" stroke="#000000" stroke-miterlimit="10" width="28.347" height="11.338"/>
				</g>
			</g>
			<g>
				<g>
					<rect x="466.298" y="12.755" fill="none" stroke="#000000" stroke-miterlimit="10" width="73.701" height="73.697"/>
					<rect x="453.543" fill="none" stroke="#000000" stroke-miterlimit="10" width="99.212" height="99.208"/>
					<line fill="none" stroke="#000000" stroke-miterlimit="10" x1="539.999" y1="86.453" x2="552.755" y2="99.208"/>
					<line fill="none" stroke="#000000" stroke-miterlimit="10" x1="466.298" y1="86.453" x2="453.543" y2="99.208"/>
					<line fill="none" stroke="#000000" stroke-miterlimit="10" x1="552.755" y1="0" x2="539.999" y2="12.755"/>
					<line fill="none" stroke="#000000" stroke-miterlimit="10" x1="466.298" y1="12.755" x2="453.543" y2="0"/>
					<rect x="488.977" y="18.424" fill="none" stroke="#000000" stroke-miterlimit="10" width="28.347" height="11.338"/>
				</g>
			</g>
			<g>
				<g>
					<rect x="352.913" y="12.755" fill="none" stroke="#000000" stroke-miterlimit="10" width="73.701" height="73.697"/>
					<rect x="340.157" fill="none" stroke="#000000" stroke-miterlimit="10" width="99.211" height="99.208"/>
					<line fill="none" stroke="#000000" stroke-miterlimit="10" x1="426.613" y1="86.453" x2="439.369" y2="99.208"/>
					<line fill="none" stroke="#000000" stroke-miterlimit="10" x1="352.913" y1="86.453" x2="340.157" y2="99.208"/>
					<line fill="none" stroke="#000000" stroke-miterlimit="10" x1="439.369" y1="0" x2="426.613" y2="12.755"/>
					<line fill="none" stroke="#000000" stroke-miterlimit="10" x1="352.913" y1="12.755" x2="340.157" y2="0"/>
					<rect x="375.591" y="18.424" fill="none" stroke="#000000" stroke-miterlimit="10" width="28.346" height="11.338"/>
				</g>
			</g>
			<g>
				<g>
					<rect x="239.527" y="12.755" fill="none" stroke="#000000" stroke-miterlimit="10" width="73.701" height="73.697"/>
					<rect x="226.771" fill="none" stroke="#000000" stroke-miterlimit="10" width="99.211" height="99.208"/>
					<line fill="none" stroke="#000000" stroke-miterlimit="10" x1="313.228" y1="86.453" x2="325.983" y2="99.208"/>
					<line fill="none" stroke="#000000" stroke-miterlimit="10" x1="239.527" y1="86.453" x2="226.771" y2="99.208"/>
					<line fill="none" stroke="#000000" stroke-miterlimit="10" x1="325.983" y1="0" x2="313.228" y2="12.755"/>
					<line fill="none" stroke="#000000" stroke-miterlimit="10" x1="239.527" y1="12.755" x2="226.771" y2="0"/>
					<rect x="262.205" y="18.424" fill="none" stroke="#000000" stroke-miterlimit="10" width="28.346" height="11.338"/>
				</g>
			</g>
			<g>
				<g>
					<rect x="126.141" y="12.755" fill="none" stroke="#000000" stroke-miterlimit="10" width="73.701" height="73.697"/>
					<rect x="113.386" fill="none" stroke="#000000" stroke-miterlimit="10" width="99.211" height="99.208"/>
					<line fill="none" stroke="#000000" stroke-miterlimit="10" x1="199.842" y1="86.453" x2="212.597" y2="99.208"/>
					<line fill="none" stroke="#000000" stroke-miterlimit="10" x1="126.141" y1="86.453" x2="113.386" y2="99.208"/>
					<line fill="none" stroke="#000000" stroke-miterlimit="10" x1="212.597" y1="0" x2="199.842" y2="12.755"/>
					<line fill="none" stroke="#000000" stroke-miterlimit="10" x1="126.141" y1="12.755" x2="113.386" y2="0"/>
					<rect x="148.819" y="18.424" fill="none" stroke="#000000" stroke-miterlimit="10" width="28.346" height="11.338"/>
				</g>
			</g>
			<g>
				<g>
					<rect x="12.755" y="12.755" fill="none" stroke="#000000" stroke-miterlimit="10" width="73.701" height="73.697"/>
					<rect fill="none" stroke="#000000" stroke-miterlimit="10" width="99.211" height="99.208"/>
					<line fill="none" stroke="#000000" stroke-miterlimit="10" x1="86.456" y1="86.453" x2="99.211" y2="99.208"/>
					<line fill="none" stroke="#000000" stroke-miterlimit="10" x1="12.755" y1="86.453" x2="0" y2="99.208"/>
					<line fill="none" stroke="#000000" stroke-miterlimit="10" x1="99.211" y1="0" x2="86.456" y2="12.755"/>
					<line fill="none" stroke="#000000" stroke-miterlimit="10" x1="12.755" y1="12.755" x2="0" y2="0"/>
					<rect x="35.434" y="18.424" fill="none" stroke="#000000" stroke-miterlimit="10" width="28.346" height="11.338"/>
				</g>
			</g>
		</g>
	</g>
</g>
</svg>
